<svg width="70" height="31" viewBox="0 0 70 31" fill="none" xmlns="http://www.w3.org/2000/svg">
<path fill-rule="evenodd" clip-rule="evenodd" d="M43.4244 22.4508C39.3717 25.4055 33.477 26.9797 28.3928 26.9797C21.27 26.9797 14.884 24.3883 10.0209 20.0773C9.65244 19.7383 9.97174 19.2781 10.4384 19.5445C15.67 22.5477 22.1296 24.3398 28.8103 24.3398C33.3051 24.3398 38.2665 23.4195 42.8349 21.5062C43.5226 21.2398 44.0875 21.9664 43.4244 22.4508Z" fill="#FF9900"/>
<path fill-rule="evenodd" clip-rule="evenodd" d="M45.1191 20.5375C44.6034 19.8836 41.6805 20.2227 40.3788 20.3922C39.9858 20.4407 39.9121 20.1016 40.2805 19.8594C42.6139 18.2368 46.4209 18.7211 46.863 19.254C47.3051 19.7868 46.7402 23.5649 44.5542 25.3571C44.2104 25.6235 43.8911 25.4782 44.0384 25.1149C44.5297 23.904 45.6349 21.2157 45.1191 20.5375Z" fill="#FF9900"/>
<path fill-rule="evenodd" clip-rule="evenodd" d="M40.4526 8.47657V6.90235C40.4526 6.66017 40.6246 6.51485 40.8456 6.51485H47.9684C48.1895 6.51485 48.386 6.68439 48.386 6.90235V8.23439C48.386 8.45235 48.1895 8.74298 47.8456 9.22736L44.1614 14.4102C45.5368 14.3859 46.986 14.5797 48.214 15.2578C48.4842 15.4031 48.5579 15.6453 48.5825 15.8633V17.5344C48.5825 17.7766 48.3368 18.043 48.0667 17.8977C45.8807 16.7594 42.9579 16.6383 40.5509 17.9219C40.3053 18.043 40.0351 17.8008 40.0351 17.5586V15.9602C40.0351 15.718 40.0351 15.282 40.3053 14.8945L44.5789 8.86407H40.8702C40.6491 8.86407 40.4526 8.69454 40.4526 8.47657ZM14.4912 18.2367H12.3298C12.1333 18.2125 11.9614 18.0672 11.9368 17.8734V6.92657C11.9368 6.70861 12.1333 6.53907 12.3544 6.53907H14.3684C14.5895 6.53907 14.7368 6.7086 14.7614 6.90235V8.33126H14.8105C15.3263 6.95079 16.3333 6.29689 17.6596 6.29689C19.0105 6.29689 19.8702 6.95079 20.4597 8.33126C20.9754 6.95079 22.1789 6.29689 23.4561 6.29689C24.3649 6.29689 25.3474 6.66017 25.9614 7.50782C26.6491 8.42814 26.5018 9.76017 26.5018 10.9469V17.8734C26.5018 18.0914 26.3053 18.2609 26.0842 18.2609H23.9474C23.7263 18.2367 23.5544 18.0672 23.5544 17.8734V12.0609C23.5544 11.6008 23.6035 10.4383 23.5053 10.0024C23.3333 9.27579 22.8667 9.05782 22.2281 9.05782C21.7123 9.05782 21.1474 9.39689 20.9263 9.95392C20.7053 10.5109 20.7298 11.4313 20.7298 12.0609V17.8734C20.7298 18.0914 20.5333 18.2609 20.3123 18.2609H18.1509C17.9298 18.2367 17.7579 18.0672 17.7579 17.8734V12.0609C17.7579 10.85 17.9544 9.0336 16.4316 9.0336C14.8842 9.0336 14.9333 10.7774 14.9333 12.0609V17.8734C14.9088 18.0672 14.7368 18.2367 14.4912 18.2367ZM54.5263 6.29689C57.7439 6.29689 59.4877 9.00939 59.4877 12.4727C59.4877 15.8149 57.5719 18.4789 54.5263 18.4789C51.3825 18.4789 49.6632 15.7664 49.6632 12.3758C49.6386 8.96095 51.3825 6.29689 54.5263 6.29689ZM54.5263 8.54923C52.9298 8.54923 52.8316 10.7047 52.8316 12.0367C52.8316 13.3688 52.807 16.2266 54.5018 16.2266C56.1719 16.2266 56.2702 13.9258 56.2702 12.5211C56.2702 11.6008 56.2211 10.4867 55.9509 9.61486C55.7053 8.83986 55.214 8.54923 54.5263 8.54923ZM63.6386 18.2367H61.4772C61.2561 18.2125 61.0842 18.043 61.0842 17.8492V6.87813C61.1088 6.68438 61.2807 6.51485 61.5018 6.51485H63.5158C63.7123 6.51485 63.8597 6.66017 63.9088 6.8297V8.50079H63.9579C64.5719 6.99923 65.407 6.29689 66.9053 6.29689C67.8632 6.29689 68.8211 6.63595 69.4351 7.58048C70 8.45235 70 9.9297 70 10.9953V17.8977C69.9754 18.0914 69.8035 18.2367 69.5825 18.2367H67.4211C67.2246 18.2125 67.0526 18.0672 67.0281 17.8977V11.9399C67.0281 10.7289 67.1754 8.98517 65.6772 8.98517C65.1614 8.98517 64.6702 9.32423 64.4246 9.85704C64.1298 10.5352 64.0807 11.1891 64.0807 11.9399V17.8492C64.0561 18.0672 63.8596 18.2367 63.6386 18.2367ZM34.7789 13.0055C34.7789 13.8289 34.8035 14.5313 34.386 15.282C34.0421 15.8875 33.5018 16.2508 32.8877 16.2508C32.0526 16.2508 31.5614 15.6211 31.5614 14.7008C31.5614 12.8844 33.207 12.5453 34.7789 12.5453V13.0055ZM36.9649 18.2125C36.8175 18.3336 36.6211 18.3578 36.4491 18.2609C35.7368 17.6797 35.5895 17.3891 35.1965 16.832C34.0175 18.0188 33.1579 18.382 31.6351 18.382C29.8175 18.382 28.393 17.268 28.393 15.0641C28.393 13.3203 29.3509 12.1578 30.7018 11.5766C31.8807 11.068 33.5263 10.9711 34.7789 10.8258V10.5594C34.7789 10.0508 34.8281 9.44533 34.5088 9.00939C34.2386 8.62189 33.7474 8.45235 33.3053 8.45235C32.4702 8.45235 31.7333 8.86408 31.5614 9.73595C31.5123 9.9297 31.3895 10.1234 31.193 10.1234L29.1053 9.90548C28.9333 9.85704 28.7368 9.73595 28.786 9.46954C29.2772 6.95079 31.5614 6.20001 33.6246 6.20001C34.6807 6.20001 36.0561 6.46642 36.8912 7.26564C37.9474 8.23439 37.8491 9.5422 37.8491 10.9469V14.2649C37.8491 15.2578 38.2667 15.6938 38.6596 16.2508C38.807 16.4445 38.8316 16.6867 38.6596 16.8078C38.193 17.1711 37.407 17.8492 36.9649 18.2125ZM6.41053 13.0055C6.41053 13.8289 6.43509 14.5313 6.01754 15.282C5.67368 15.8875 5.13333 16.2508 4.5193 16.2508C3.68421 16.2508 3.19298 15.6211 3.19298 14.7008C3.19298 12.8844 4.8386 12.5453 6.41053 12.5453V13.0055ZM8.57193 18.2125C8.42456 18.3336 8.22807 18.3578 8.05614 18.2609C7.34386 17.6797 7.19649 17.3891 6.80351 16.832C5.62456 18.0188 4.76491 18.382 3.2421 18.382C1.42456 18.382 0 17.268 0 15.0641C0 13.3203 0.957893 12.1578 2.30877 11.5766C3.48772 11.068 5.13333 10.9711 6.38596 10.8258V10.5594C6.38596 10.0508 6.43509 9.44533 6.11579 9.00939C5.84561 8.62189 5.35439 8.45235 4.91228 8.45235C4.07719 8.45235 3.34035 8.86408 3.16842 9.73595C3.1193 9.9297 2.99649 10.1234 2.8 10.1234L0.712279 9.90548C0.540349 9.85704 0.343861 9.73595 0.392984 9.46954C0.884212 6.95079 3.16842 6.20001 5.23158 6.20001C6.28772 6.20001 7.66316 6.46642 8.49825 7.26564C9.55439 8.23439 9.45614 9.5422 9.45614 10.9469V14.2649C9.45614 15.2578 9.87368 15.6938 10.2667 16.2508C10.414 16.4445 10.4386 16.6867 10.2667 16.8078C9.8 17.1711 9.01403 17.8492 8.57193 18.2125Z" fill="black"/>
</svg>
