<svg width="25" height="25" viewBox="0 0 25 25" fill="none" xmlns="http://www.w3.org/2000/svg">
<path d="M4.54466 22.1202V20.834C4.54466 20.3409 4.24453 20.0193 3.73001 20.0193C3.47276 20.0193 3.19407 20.1051 3.00112 20.3838C2.85106 20.148 2.63668 20.0193 2.31511 20.0193C2.10073 20.0193 1.88635 20.0836 1.71485 20.3195V20.0622H1.26465V22.1202H1.71485V20.984C1.71485 20.6196 1.90779 20.4481 2.20792 20.4481C2.50805 20.4481 2.65812 20.641 2.65812 20.984V22.1202H3.10831V20.984C3.10831 20.6196 3.32269 20.4481 3.60139 20.4481C3.90152 20.4481 4.05158 20.641 4.05158 20.984V22.1202H4.54466ZM11.2119 20.0622H10.483V19.4405H10.0328V20.0622H9.62545V20.4695H10.0328V21.4128C10.0328 21.8844 10.2257 22.1631 10.7402 22.1631C10.9332 22.1631 11.1476 22.0988 11.2976 22.0131L11.169 21.6272C11.0404 21.7129 10.8903 21.7344 10.7831 21.7344C10.5687 21.7344 10.483 21.6057 10.483 21.3914V20.4695H11.2119V20.0622ZM15.0278 20.0193C14.7706 20.0193 14.5991 20.148 14.4919 20.3195V20.0622H14.0417V22.1202H14.4919V20.9626C14.4919 20.6196 14.6419 20.4266 14.9206 20.4266C15.0064 20.4266 15.1136 20.4481 15.1993 20.4695L15.328 20.0408C15.2422 20.0193 15.1136 20.0193 15.0278 20.0193ZM9.26101 20.2337C9.04663 20.0836 8.7465 20.0193 8.42493 20.0193C7.91042 20.0193 7.56741 20.2766 7.56741 20.6839C7.56741 21.0269 7.82467 21.2199 8.27486 21.2842L8.48924 21.3056C8.72506 21.3485 8.85369 21.4128 8.85369 21.52C8.85369 21.67 8.68218 21.7772 8.38205 21.7772C8.08192 21.7772 7.8461 21.67 7.69604 21.5629L7.48166 21.9059C7.71748 22.0774 8.03905 22.1631 8.36061 22.1631C8.96088 22.1631 9.30389 21.8844 9.30389 21.4985C9.30389 21.1341 9.02519 20.9412 8.59643 20.8768L8.38205 20.8554C8.18911 20.834 8.03905 20.7911 8.03905 20.6625C8.03905 20.5124 8.18911 20.4266 8.42493 20.4266C8.68218 20.4266 8.93944 20.5338 9.06807 20.5981L9.26101 20.2337ZM21.2234 20.0193C20.9661 20.0193 20.7946 20.148 20.6874 20.3195V20.0622H20.2372V22.1202H20.6874V20.9626C20.6874 20.6196 20.8375 20.4266 21.1162 20.4266C21.202 20.4266 21.3091 20.4481 21.3949 20.4695L21.5235 20.0408C21.4378 20.0193 21.3091 20.0193 21.2234 20.0193ZM15.478 21.0912C15.478 21.7129 15.9068 22.1631 16.5714 22.1631C16.8715 22.1631 17.0859 22.0988 17.3002 21.9273L17.0859 21.5629C16.9144 21.6915 16.7429 21.7558 16.5499 21.7558C16.1855 21.7558 15.9282 21.4985 15.9282 21.0912C15.9282 20.7053 16.1855 20.4481 16.5499 20.4266C16.7429 20.4266 16.9144 20.491 17.0859 20.6196L17.3002 20.2551C17.0859 20.0836 16.8715 20.0193 16.5714 20.0193C15.9068 20.0193 15.478 20.4695 15.478 21.0912ZM19.637 21.0912V20.0622H19.1868V20.3195C19.0367 20.1265 18.8223 20.0193 18.5436 20.0193C17.9648 20.0193 17.5146 20.4695 17.5146 21.0912C17.5146 21.7129 17.9648 22.1631 18.5436 22.1631C18.8438 22.1631 19.0582 22.0559 19.1868 21.863V22.1202H19.637V21.0912ZM17.9863 21.0912C17.9863 20.7268 18.2221 20.4266 18.608 20.4266C18.9724 20.4266 19.2297 20.7053 19.2297 21.0912C19.2297 21.4557 18.9724 21.7558 18.608 21.7558C18.2221 21.7344 17.9863 21.4557 17.9863 21.0912ZM12.6053 20.0193C12.0051 20.0193 11.5763 20.4481 11.5763 21.0912C11.5763 21.7344 12.0051 22.1631 12.6268 22.1631C12.9269 22.1631 13.227 22.0774 13.4629 21.8844L13.2485 21.5629C13.077 21.6915 12.8626 21.7772 12.6482 21.7772C12.3695 21.7772 12.0908 21.6486 12.0265 21.2842H13.5486V21.1127C13.57 20.4481 13.1842 20.0193 12.6053 20.0193ZM12.6053 20.4052C12.884 20.4052 13.077 20.5767 13.1198 20.8983H12.0479C12.0908 20.6196 12.2838 20.4052 12.6053 20.4052ZM23.7745 21.0912V19.2476H23.3243V20.3195C23.1742 20.1265 22.9599 20.0193 22.6812 20.0193C22.1024 20.0193 21.6522 20.4695 21.6522 21.0912C21.6522 21.7129 22.1024 22.1631 22.6812 22.1631C22.9813 22.1631 23.1957 22.0559 23.3243 21.863V22.1202H23.7745V21.0912ZM22.1238 21.0912C22.1238 20.7268 22.3596 20.4266 22.7455 20.4266C23.1099 20.4266 23.3672 20.7053 23.3672 21.0912C23.3672 21.4557 23.1099 21.7558 22.7455 21.7558C22.3596 21.7344 22.1238 21.4557 22.1238 21.0912ZM7.07434 21.0912V20.0622H6.62414V20.3195C6.47407 20.1265 6.25969 20.0193 5.981 20.0193C5.40218 20.0193 4.95198 20.4695 4.95198 21.0912C4.95198 21.7129 5.40218 22.1631 5.981 22.1631C6.28113 22.1631 6.49551 22.0559 6.62414 21.863V22.1202H7.07434V21.0912ZM5.40218 21.0912C5.40218 20.7268 5.63799 20.4266 6.02388 20.4266C6.38832 20.4266 6.64558 20.7053 6.64558 21.0912C6.64558 21.4557 6.38832 21.7558 6.02388 21.7558C5.63799 21.7344 5.40218 21.4557 5.40218 21.0912Z" fill="black"/>
<path d="M15.8643 4.43393H9.11133V16.5678H15.8643V4.43393Z" fill="#FF5F00"/>
<path d="M9.5399 10.5008C9.5399 8.03547 10.6975 5.8488 12.4769 4.4339C11.1692 3.40487 9.51846 2.78317 7.71767 2.78317C3.45151 2.78317 0 6.23469 0 10.5008C0 14.767 3.45151 18.2185 7.71767 18.2185C9.51846 18.2185 11.1692 17.5968 12.4769 16.5678C10.6975 15.1743 9.5399 12.9662 9.5399 10.5008Z" fill="#EB001B"/>
<path d="M24.9754 10.5009C24.9754 14.767 21.5239 18.2185 17.2578 18.2185C15.457 18.2185 13.8063 17.5968 12.4985 16.5678C14.2993 15.1529 15.4355 12.9662 15.4355 10.5009C15.4355 8.0355 14.2779 5.84883 12.4985 4.43393C13.8063 3.4049 15.457 2.7832 17.2578 2.7832C21.5239 2.7832 24.9754 6.25615 24.9754 10.5009Z" fill="#F79E1B"/>
</svg>
