<svg width="78" height="33" viewBox="0 0 78 33" fill="none" xmlns="http://www.w3.org/2000/svg">
<path d="M16.8379 7.98496C15.998 7.40756 14.902 7.11816 13.5499 7.11816H8.31529C7.90079 7.11816 7.67179 7.32546 7.62829 7.73956L5.50179 21.0876C5.47969 21.2187 5.51249 21.3386 5.59989 21.4476C5.68679 21.5569 5.79609 21.6112 5.92699 21.6112H8.41339C8.84949 21.6112 9.08919 21.4044 9.13319 20.9896L9.72199 17.3911C9.74349 17.2167 9.82019 17.0749 9.95109 16.9657C10.0819 16.8567 10.2455 16.7853 10.4418 16.7527C10.6381 16.7203 10.8232 16.704 10.998 16.704C11.1723 16.704 11.3794 16.715 11.6197 16.7367C11.8594 16.7585 12.0122 16.7691 12.0777 16.7691C13.9533 16.7691 15.4255 16.2406 16.4944 15.1825C17.5628 14.1248 18.0976 12.6581 18.0976 10.7821C18.0976 9.49526 17.6774 8.56286 16.8379 7.98456V7.98496ZM14.1389 11.993C14.0295 12.7565 13.7463 13.2579 13.2883 13.4979C12.8302 13.7382 12.1759 13.8576 11.3254 13.8576L10.2457 13.8904L10.802 10.3897C10.8454 10.15 10.9871 10.03 11.2272 10.03H11.849C12.721 10.03 13.3539 10.1557 13.7465 10.4061C14.1389 10.6571 14.2698 11.1863 14.1389 11.993Z" fill="#003087"/>
<path d="M72.0793 7.11798H69.6585C69.418 7.11798 69.2764 7.23798 69.2332 7.47788L67.1065 21.0879L67.0737 21.1533C67.0737 21.2629 67.1174 21.366 67.2048 21.4642C67.2916 21.5621 67.4011 21.6113 67.5319 21.6113H69.6914C70.1052 21.6113 70.3343 21.4045 70.3785 20.9898L72.505 7.60878V7.57628C72.5048 7.27098 72.3626 7.11828 72.0793 7.11828V7.11798Z" fill="#009CDE"/>
<path d="M42.8309 12.3859C42.8309 12.2771 42.7871 12.1733 42.7003 12.0753C42.6128 11.9772 42.5146 11.9279 42.4058 11.9279H39.8867C39.6463 11.9279 39.4501 12.0375 39.2977 12.255L35.8298 17.359L34.3904 12.4515C34.2808 12.1027 34.0411 11.9279 33.6706 11.9279H31.2166C31.1073 11.9279 31.0091 11.9771 30.9224 12.0753C30.8349 12.1733 30.7915 12.2772 30.7915 12.3859C30.7915 12.4299 31.0042 13.073 31.4294 14.3162C31.8546 15.5596 32.3127 16.9011 32.8035 18.3407C33.2943 19.7801 33.5503 20.5437 33.5723 20.6304C31.7837 23.0734 30.8897 24.3822 30.8897 24.5564C30.8897 24.8402 31.0314 24.9818 31.315 24.9818H33.8341C34.074 24.9818 34.2702 24.873 34.4231 24.6547L42.7658 12.6147C42.8091 12.5714 42.8309 12.4954 42.8309 12.3858V12.3859Z" fill="#003087"/>
<path d="M66.2886 11.928H63.8021C63.4965 11.928 63.3117 12.2879 63.2462 13.0077C62.6785 12.1357 61.6431 11.6989 60.1379 11.6989C58.5675 11.6989 57.2313 12.2879 56.1301 13.4657C55.0285 14.6436 54.478 16.0288 54.478 17.6208C54.478 18.9079 54.8541 19.9329 55.6065 20.696C56.3589 21.4599 57.3676 21.8411 58.6332 21.8411C59.2655 21.8411 59.9089 21.71 60.5632 21.4485C61.2176 21.1868 61.7297 20.838 62.1011 20.4016C62.1011 20.4235 62.0789 20.5214 62.0357 20.6958C61.9917 20.8706 61.9702 21.0018 61.9702 21.0884C61.9702 21.4378 62.1116 21.6118 62.3956 21.6118H64.6532C65.067 21.6118 65.3073 21.405 65.3725 20.9902L66.714 12.4513C66.7355 12.3204 66.7029 12.2006 66.6159 12.0914C66.5283 11.9827 66.4195 11.928 66.2886 11.928ZM62.0192 18.3732C61.463 18.9185 60.7923 19.1911 60.0072 19.1911C59.3744 19.1911 58.8623 19.0169 58.4694 18.6677C58.0766 18.3194 57.8803 17.8395 57.8803 17.2281C57.8803 16.4217 58.1531 15.7397 58.6985 15.1835C59.2431 14.6273 59.9199 14.3492 60.7269 14.3492C61.3371 14.3492 61.8443 14.5292 62.2481 14.8889C62.6513 15.2488 62.8536 15.7452 62.8536 16.3777C62.8535 17.1628 62.5753 17.8282 62.0192 18.3732Z" fill="#009CDE"/>
<path d="M29.1232 11.928H26.6368C26.331 11.928 26.146 12.2879 26.0805 13.0077C25.4916 12.1357 24.4555 11.6989 22.9724 11.6989C21.402 11.6989 20.0659 12.2879 18.9646 13.4657C17.863 14.6436 17.3125 16.0288 17.3125 17.6208C17.3125 18.9079 17.6888 19.9329 18.4413 20.696C19.1938 21.4599 20.2023 21.8411 21.4675 21.8411C22.0779 21.8411 22.7108 21.71 23.365 21.4485C24.0193 21.1868 24.5428 20.838 24.9354 20.4016C24.8479 20.6632 24.8045 20.8923 24.8045 21.0884C24.8045 21.4378 24.9462 21.6118 25.2298 21.6118H27.4872C27.9013 21.6118 28.1415 21.405 28.207 20.9902L29.5483 12.4513C29.5698 12.3204 29.5371 12.2006 29.4502 12.0914C29.3629 11.9827 29.254 11.928 29.1232 11.928ZM24.8537 18.3894C24.2974 18.9245 23.6155 19.1911 22.809 19.1911C22.1761 19.1911 21.669 19.0169 21.2876 18.6677C20.9057 18.3194 20.715 17.8395 20.715 17.2281C20.715 16.4217 20.9875 15.7397 21.533 15.1835C22.0779 14.6273 22.7541 14.3492 23.5614 14.3492C24.1718 14.3492 24.6789 14.5292 25.0828 14.889C25.486 15.2489 25.688 15.7453 25.688 16.3778C25.688 17.1847 25.4099 17.8556 24.8537 18.3894Z" fill="#003087"/>
<path d="M54.0035 7.98496C53.1637 7.40756 52.0679 7.11816 50.7156 7.11816H45.5136C45.0772 7.11816 44.8371 7.32546 44.7939 7.73956L42.6673 21.0876C42.6452 21.2188 42.6779 21.3387 42.7654 21.4477C42.8519 21.5569 42.9616 21.6112 43.0925 21.6112H45.7751C46.0368 21.6112 46.2112 21.4696 46.2986 21.186L46.8876 17.3911C46.9092 17.2167 46.9856 17.0749 47.1166 16.9657C47.2475 16.8567 47.4109 16.7854 47.6074 16.7527C47.8036 16.7203 47.9886 16.704 48.1636 16.704C48.3379 16.704 48.545 16.715 48.785 16.7367C49.0249 16.7585 49.1781 16.7691 49.243 16.7691C51.119 16.7691 52.5909 16.2406 53.6598 15.1825C54.7286 14.1248 55.2629 12.6581 55.2629 10.7821C55.2631 9.49536 54.843 8.56296 54.0035 7.98466V7.98496ZM50.6501 13.367C50.1702 13.6941 49.4504 13.8576 48.4909 13.8576L47.4439 13.8904L48.0001 10.3897C48.0433 10.15 48.185 10.03 48.4253 10.03H49.014C49.4938 10.03 49.8754 10.0518 50.1594 10.0953C50.4425 10.1393 50.7156 10.2752 50.9773 10.5042C51.2391 10.7333 51.3699 11.066 51.3699 11.5022C51.3699 12.4182 51.1297 13.0397 50.6501 13.367Z" fill="#009CDE"/>
</svg>
