<svg width="25" height="25" viewBox="0 0 25 25" fill="none" xmlns="http://www.w3.org/2000/svg">
<path d="M1.28205 4.48718H23.718C24.426 4.48718 25 5.06119 25 5.76923V19.2308C25 19.9389 24.426 20.5128 23.718 20.5128H1.28205C0.574006 20.5128 0 19.9389 0 19.2308V5.76923C0 5.06119 0.574006 4.48718 1.28205 4.48718Z" fill="#0E4595"/>
<path d="M9.39729 15.6644L10.4666 9.39005H12.1768L11.1068 15.6644H9.39729ZM17.2854 9.52531C16.9467 9.39819 16.4157 9.26178 15.7527 9.26178C14.0628 9.26178 12.8724 10.1127 12.8623 11.3324C12.8527 12.234 13.7121 12.7369 14.3608 13.0371C15.0265 13.3446 15.2502 13.5407 15.2471 13.8154C15.2429 14.2359 14.7155 14.4281 14.224 14.4281C13.5394 14.4281 13.1758 14.333 12.6141 14.0987L12.3937 13.999L12.1537 15.4036C12.5532 15.5787 13.2918 15.7305 14.0588 15.7383C15.8565 15.7383 17.0235 14.8971 17.0368 13.5947C17.0432 12.8809 16.5876 12.3377 15.6009 11.8899C15.0032 11.5997 14.6371 11.406 14.6409 11.1121C14.6409 10.8513 14.9508 10.5724 15.6203 10.5724C16.1796 10.5637 16.5848 10.6857 16.9004 10.8128L17.0536 10.8852L17.2854 9.52531ZM21.6864 9.38995H20.3649C19.9555 9.38995 19.6491 9.50172 19.4693 9.91027L16.9294 15.6603H18.7253C18.7253 15.6603 19.0189 14.8871 19.0853 14.7174C19.2816 14.7174 21.0262 14.7201 21.2756 14.7201C21.3268 14.9397 21.4836 15.6603 21.4836 15.6603H23.0706L21.6864 9.38976V9.38995ZM19.5897 13.4416C19.7311 13.0801 20.2711 11.6876 20.2711 11.6876C20.2609 11.7043 20.4114 11.3243 20.4978 11.0888L20.6133 11.6298C20.6133 11.6298 20.9409 13.1275 21.0093 13.4416H19.5897ZM7.94543 9.38995L6.27108 13.6688L6.09265 12.7993C5.78095 11.7969 4.80979 10.7109 3.72412 10.1673L5.25508 15.6544L7.06457 15.6524L9.75701 9.38989H7.94543" fill="white"/>
<path d="M4.70924 9.38975H1.95151L1.92969 9.52029C4.07514 10.0397 5.49475 11.2947 6.08417 12.8027L5.4845 9.91933C5.38097 9.52205 5.08074 9.4035 4.7093 9.38962" fill="#F2AE14"/>
</svg>
