<svg width="15" height="15" viewBox="0 0 15 15" fill="none" xmlns="http://www.w3.org/2000/svg">
<path d="M11.25 0H3.75C2.71594 0 1.875 0.840937 1.875 1.875V13.125C1.875 14.1591 2.71594 15 3.75 15H11.25C12.2841 15 13.125 14.1591 13.125 13.125V1.875C13.125 0.840937 12.2841 0 11.25 0ZM10.7812 12.1875H7.03125C6.7725 12.1875 6.5625 11.9775 6.5625 11.7188C6.5625 11.46 6.7725 11.25 7.03125 11.25H10.7812C11.04 11.25 11.25 11.46 11.25 11.7188C11.25 11.9775 11.04 12.1875 10.7812 12.1875ZM10.7812 9.375H7.03125C6.7725 9.375 6.5625 9.165 6.5625 8.90625C6.5625 8.6475 6.7725 8.4375 7.03125 8.4375H10.7812C11.04 8.4375 11.25 8.6475 11.25 8.90625C11.25 9.165 11.04 9.375 10.7812 9.375ZM10.7812 6.5625H7.03125C6.7725 6.5625 6.5625 6.3525 6.5625 6.09375C6.5625 5.835 6.7725 5.625 7.03125 5.625H10.7812C11.04 5.625 11.25 5.835 11.25 6.09375C11.25 6.3525 11.04 6.5625 10.7812 6.5625ZM10.7812 3.75H7.03125C6.7725 3.75 6.5625 3.54 6.5625 3.28125C6.5625 3.0225 6.7725 2.8125 7.03125 2.8125H10.7812C11.04 2.8125 11.25 3.0225 11.25 3.28125C11.25 3.54 11.04 3.75 10.7812 3.75ZM5.15625 3.75H4.21875C3.96 3.75 3.75 3.54 3.75 3.28125C3.75 3.0225 3.96 2.8125 4.21875 2.8125H5.15625C5.415 2.8125 5.625 3.0225 5.625 3.28125C5.625 3.54 5.415 3.75 5.15625 3.75ZM5.15625 6.5625H4.21875C3.96 6.5625 3.75 6.3525 3.75 6.09375C3.75 5.835 3.96 5.625 4.21875 5.625H5.15625C5.415 5.625 5.625 5.835 5.625 6.09375C5.625 6.3525 5.415 6.5625 5.15625 6.5625ZM5.15625 9.375H4.21875C3.96 9.375 3.75 9.165 3.75 8.90625C3.75 8.6475 3.96 8.4375 4.21875 8.4375H5.15625C5.415 8.4375 5.625 8.6475 5.625 8.90625C5.625 9.165 5.415 9.375 5.15625 9.375ZM5.15625 12.1875H4.21875C3.96 12.1875 3.75 11.9775 3.75 11.7188C3.75 11.46 3.96 11.25 4.21875 11.25H5.15625C5.415 11.25 5.625 11.46 5.625 11.7188C5.625 11.9775 5.415 12.1875 5.15625 12.1875Z" fill="#272727"/>
</svg>
