<svg width="15" height="15" viewBox="0 0 15 15" fill="none" xmlns="http://www.w3.org/2000/svg">
<path d="M15 3.37875C15 2.54813 14.3269 1.875 13.4963 1.875H7.13438L4.23281 0.134062C4.08469 0.045 3.91781 0 3.75 0C3.61594 0 3.48188 0.0290625 3.35719 0.08625C3.07594 0.216562 2.87625 0.477187 2.82562 0.782812L2.64375 1.875H1.875C0.839062 1.875 0 2.71406 0 3.75V14.0625C0 14.58 0.42 15 0.9375 15H14.0625C14.58 15 15 14.58 15 14.0625V11.25H10.7812C10.005 11.25 9.375 10.62 9.375 9.84375C9.375 9.0675 10.005 8.4375 10.7812 8.4375H15V3.37875ZM14.0625 4.67812V4.6875H1.875C1.35844 4.6875 0.9375 4.26656 0.9375 3.75C0.9375 3.36094 1.17656 3.02719 1.515 2.88563C1.62563 2.83875 1.7475 2.8125 1.875 2.8125H2.48719L2.33063 3.75H10.2591L8.69719 2.8125H13.4963C13.8084 2.8125 14.0625 3.06656 14.0625 3.37875V4.67812Z" fill="#272727"/>
<path d="M11.7188 10.3125H10.7812C10.5225 10.3125 10.3125 10.1025 10.3125 9.84375C10.3125 9.585 10.5225 9.375 10.7812 9.375H11.7188C11.9775 9.375 12.1875 9.585 12.1875 9.84375C12.1875 10.1025 11.9775 10.3125 11.7188 10.3125Z" fill="#272727"/>
</svg>
