<svg width="15" height="15" viewBox="0 0 15 15" fill="none" xmlns="http://www.w3.org/2000/svg">
<path d="M10.6976 8.8617C11.1959 8.04 11.4872 7.0773 11.4872 6.0462C11.4872 3.0375 9.05271 0.6012 6.04341 0.6C3.03681 0.6009 0.599609 3.0375 0.599609 6.0456C0.599609 9.051 3.03711 11.4873 6.04521 11.4873C7.07721 11.4873 8.03871 11.1957 8.86041 10.6974L12.5633 14.4L14.3996 12.5628L10.6976 8.8617ZM6.04461 9.414C4.18401 9.4095 2.67981 7.9059 2.67651 6.0492C2.68011 4.1886 4.18461 2.6847 6.04461 2.6805C7.90431 2.6853 9.40911 4.1889 9.41301 6.0492C9.40911 7.9038 7.90371 9.4095 6.04461 9.414Z" fill="#272727"/>
</svg>
