<svg width="15" height="15" viewBox="0 0 15 15" fill="none" xmlns="http://www.w3.org/2000/svg">
    <path d="M3 6.00004C2.99959 5.06506 3.29042 4.15316 3.83209 3.39107C4.37375 2.62897 5.13935 2.05452 6.0225 1.74754C5.9883 1.53327 6.00099 1.31413 6.0597 1.10525C6.11841 0.89636 6.22174 0.702698 6.36256 0.537621C6.50337 0.372543 6.67833 0.239982 6.87535 0.149082C7.07237 0.0581822 7.28677 0.0111084 7.50375 0.0111084C7.72073 0.0111084 7.93513 0.0581822 8.13215 0.149082C8.32917 0.239982 8.50412 0.372543 8.64494 0.537621C8.78576 0.702698 8.88909 0.89636 8.9478 1.10525C9.00651 1.31413 9.0192 1.53327 8.985 1.74754C9.86675 2.05578 10.6307 2.63077 11.171 3.39276C11.7112 4.15475 12.001 5.06597 12 6.00004V10.5L14.25 12V12.75H0.75V12L3 10.5V6.00004ZM9 13.5C9 13.8979 8.84196 14.2794 8.56066 14.5607C8.27936 14.842 7.89782 15 7.5 15C7.10218 15 6.72064 14.842 6.43934 14.5607C6.15804 14.2794 6 13.8979 6 13.5H9Z" fill="#0077C6"/>
</svg>