<svg width="15" height="15" viewBox="0 0 15 15" fill="none" xmlns="http://www.w3.org/2000/svg">
    <g clip-path="url(#clip0_66_3128)">
    <path d="M2.40067 8.20312H10.5468C10.9351 8.20312 11.2499 7.88831 11.2499 7.5C11.2499 7.11169 10.9351 6.79688 10.5468 6.79688H2.40067L3.30976 5.8878C3.58435 5.6132 3.58435 5.16804 3.30976 4.89344C3.03522 4.61885 2.59 4.61885 2.31541 4.89344L0.206137 7.00276C0.189684 7.01921 0.174121 7.03646 0.159402 7.05446C0.152981 7.06229 0.147403 7.07058 0.141356 7.0786C0.133621 7.08891 0.125653 7.09899 0.118481 7.10972C0.111918 7.11952 0.106247 7.12969 0.100247 7.13972C0.094481 7.14938 0.0884341 7.1588 0.0831373 7.16874C0.077606 7.17905 0.0729654 7.18965 0.0679967 7.20015C0.0631217 7.21041 0.0580124 7.22054 0.053653 7.23104C0.0494343 7.2413 0.0459656 7.25175 0.0422625 7.26216C0.0381844 7.27341 0.0338719 7.28452 0.0304032 7.296C0.0272626 7.30641 0.0249657 7.31696 0.0223407 7.3275C0.0193876 7.33918 0.0161064 7.3508 0.0137626 7.36271C0.011372 7.37485 0.00991889 7.38713 0.00818453 7.39936C0.00668454 7.40982 0.00466892 7.42013 0.00363768 7.43072C0.00138769 7.45341 0.00021582 7.47624 0.000168945 7.49902C0.000168945 7.49935 0.00012207 7.49972 0.00012207 7.50005C0.00012207 7.50038 0.000168945 7.50075 0.000168945 7.50108C0.00021582 7.52391 0.00138769 7.54669 0.00363768 7.56942C0.00466892 7.57988 0.00663766 7.59005 0.00809078 7.60041C0.00987202 7.61278 0.0113251 7.62516 0.0137626 7.63744C0.0161064 7.64925 0.0193407 7.66069 0.0222938 7.67227C0.0249657 7.68291 0.0273094 7.69364 0.0304969 7.70419C0.0339188 7.71549 0.0381844 7.72641 0.0421218 7.73747C0.0459187 7.74806 0.0493874 7.7587 0.0536999 7.76911C0.0579655 7.77942 0.0629811 7.78931 0.0677623 7.79939C0.0728248 7.81013 0.077606 7.82095 0.083231 7.8315C0.0883872 7.84111 0.0942466 7.85025 0.0998247 7.85958C0.105965 7.86994 0.111825 7.88039 0.118575 7.89047C0.125418 7.90073 0.133059 7.91034 0.140418 7.92023C0.146793 7.92872 0.152699 7.93748 0.159496 7.94573C0.173512 7.9628 0.188371 7.97916 0.203887 7.99486C0.204637 7.99561 0.205246 7.99645 0.205996 7.9972L2.31536 10.1066C2.4527 10.2439 2.63261 10.3126 2.81256 10.3126C2.99247 10.3125 3.17246 10.2439 3.30971 10.1067C3.58431 9.83206 3.58431 9.3869 3.30976 9.1123L2.40067 8.20312Z" fill="#0077C6"/>
    <path d="M14.2969 1.17188H5.39074C5.00243 1.17188 4.68762 1.48669 4.68762 1.875V4.68748C4.68762 5.07579 5.00243 5.3906 5.39074 5.3906C5.77905 5.3906 6.09386 5.07579 6.09386 4.68748V2.57812H13.5938V12.4219H6.09386V10.3124C6.09386 9.92413 5.77905 9.60932 5.39074 9.60932C5.00243 9.60932 4.68762 9.92413 4.68762 10.3124V13.125C4.68762 13.5133 5.00243 13.8281 5.39074 13.8281H14.2969C14.6852 13.8281 15 13.5133 15 13.125V1.875C15 1.48669 14.6852 1.17188 14.2969 1.17188Z" fill="#0077C6"/>
    </g>
    <defs>
    <clipPath id="clip0_66_3128">
    <rect width="15" height="15" fill="white"/>
    </clipPath>
    </defs>
</svg>