<svg width="0" height="0" class="hidden">
    <symbol id="icon" viewBox="0 0 30 30" fill="none" xmlns="http://www.w3.org/2000/svg">
        <g clip-path="url(#clip0_49_353)">
        <path d="M29.9189 24.0938L28.9289 21.8494C28.8089 21.5737 28.5595 21.3713 28.2633 21.3113L20.4127 19.6875L16.1208 17.4338C15.4158 16.9781 14.1708 16.875 13.792 16.875H8.36766C7.45641 16.875 6.16828 17.5481 5.69016 17.8744C5.13328 18.2513 3.79266 19.32 3.32203 19.6987L1.17891 20.2125C0.755159 20.3156 0.458909 20.6944 0.460784 21.1275L0.473909 22.5H0.937034C1.45453 22.5 1.87453 22.92 1.87453 23.4375C1.87453 23.955 1.45453 24.375 0.937034 24.375H0.374534L0.0126586 26.4769C-0.0735914 26.9794 0.258284 27.4575 0.755159 27.555L3.74391 28.125H3.74953C3.74953 26.0531 5.42766 24.375 7.49954 24.375C9.57141 24.375 11.2495 26.0531 11.2495 28.125H18.7495C18.7495 26.0531 20.4277 24.375 22.4995 24.375C24.5714 24.375 26.2495 26.0531 26.2495 28.125H29.062C29.5795 28.125 29.9995 27.705 29.9995 27.1875V24.4725C29.9995 24.3412 29.9733 24.2119 29.9189 24.0938Z" fill="#0077C6"/>
        <path d="M7.5 30C8.53553 30 9.375 29.1605 9.375 28.125C9.375 27.0895 8.53553 26.25 7.5 26.25C6.46447 26.25 5.625 27.0895 5.625 28.125C5.625 29.1605 6.46447 30 7.5 30Z" fill="#0077C6"/>
        <path d="M22.5 30C23.5355 30 24.375 29.1605 24.375 28.125C24.375 27.0895 23.5355 26.25 22.5 26.25C21.4645 26.25 20.625 27.0895 20.625 28.125C20.625 29.1605 21.4645 30 22.5 30Z" fill="#0077C6"/>
        <path d="M28.545 12.2869L22.0125 9.02063C22.3219 8.25937 22.5 7.4325 22.5 6.5625C22.5 2.94375 19.5563 0 15.9375 0C12.3188 0 9.375 2.94375 9.375 6.5625C9.375 10.1812 12.3188 13.125 15.9375 13.125C18.0113 13.125 19.8413 12.1388 21.045 10.6331L27.7069 13.9631C27.8419 14.0306 27.9844 14.0625 28.125 14.0625C28.4681 14.0625 28.7981 13.8713 28.9631 13.545C29.1938 13.0819 29.0081 12.5194 28.545 12.2869ZM15.9375 10.3125C13.8694 10.3125 12.1875 8.63062 12.1875 6.5625C12.1875 6.045 12.6075 5.625 13.125 5.625C13.6425 5.625 14.0625 6.045 14.0625 6.5625C14.0625 7.59562 14.9025 8.4375 15.9375 8.4375C16.455 8.4375 16.875 8.8575 16.875 9.375C16.875 9.8925 16.455 10.3125 15.9375 10.3125Z" fill="#0077C6"/>
        </g>
        <defs>
        <clipPath id="clip0_49_353">
        <rect width="30" height="30" fill="white"/>
        </clipPath>
        </defs>
    </symbol>
</svg>
