<svg width="15" height="15" viewBox="0 0 15 15" fill="none" xmlns="http://www.w3.org/2000/svg">
<path d="M7.5 0C3.3645 0 0 3.3645 0 7.5C0 11.6355 3.3645 15 7.5 15C11.6355 15 15 11.6355 15 7.5C15 3.3645 11.6355 0 7.5 0ZM7.5 13.6364C4.11636 13.6364 1.36364 10.8836 1.36364 7.5C1.36364 4.11641 4.11636 1.36364 7.5 1.36364C10.8836 1.36364 13.6364 4.11641 13.6364 7.5C13.6364 10.8836 10.8836 13.6364 7.5 13.6364Z" fill="#6AC355"/>
<path d="M10.3122 4.84836L6.45516 8.70531L4.68743 6.93754C4.4212 6.67132 3.98948 6.67127 3.7232 6.9375C3.45693 7.20377 3.45693 7.63545 3.7232 7.90172L5.97303 10.1516C6.10089 10.2795 6.2743 10.3514 6.45512 10.3514C6.45516 10.3514 6.45512 10.3514 6.45516 10.3514C6.63598 10.3514 6.80939 10.2795 6.93726 10.1517L11.2764 5.81263C11.5427 5.54636 11.5427 5.11468 11.2764 4.84841C11.0101 4.58214 10.5784 4.58209 10.3122 4.84836Z" fill="#6AC355"/>
</svg>
