<svg width="20" height="20" viewBox="0 0 20 20" fill="none" xmlns="http://www.w3.org/2000/svg">
<path d="M10 0C4.486 0 0 4.486 0 10C0 15.514 4.486 20 10 20C15.514 20 20 15.514 20 10C20 4.486 15.514 0 10 0ZM10 18.1818C5.48848 18.1818 1.81818 14.5115 1.81818 10C1.81818 5.48855 5.48848 1.81818 10 1.81818C14.5115 1.81818 18.1818 5.48855 18.1818 10C18.1818 14.5115 14.5115 18.1818 10 18.1818Z" fill="#6AC355"/>
<path d="M13.7499 6.46442L8.60719 11.607L6.25022 9.25C5.89525 8.89503 5.31961 8.89496 4.96458 9.24993C4.60955 9.60496 4.60955 10.1805 4.96458 10.5356L7.96434 13.5354C8.13483 13.7059 8.36604 13.8017 8.60713 13.8017C8.60719 13.8017 8.60713 13.8017 8.60719 13.8017C8.84828 13.8017 9.07949 13.7059 9.24998 13.5355L15.0355 7.75012C15.3905 7.39509 15.3905 6.81951 15.0355 6.46448C14.6805 6.10945 14.1049 6.10939 13.7499 6.46442Z" fill="#6AC355"/>
</svg>
