<svg width="0" height="0" class="hidden">
    <symbol id="color" viewBox="0 0 30 39" fill="none" xmlns="http://www.w3.org/2000/svg">
        <path d="M12.9465 25.8407C12.8665 26.8596 12.9465 28.2487 12.9705 28.6308C13.0506 29.9283 13.7992 30.0199 13.7992 30.1831C13.7992 30.2667 13.7992 30.3662 13.4109 30.4219C12.1499 30.605 11.5454 29.797 11.5454 28.794V25.2437L9.86809 25.2318C8.81525 25.2397 7.79045 25.4347 7.65834 26.5253C6.68157 31.8149 6.90975 29.2477 6.02505 35.2419C5.969 35.4886 6.04507 35.7075 6.25323 35.8946C6.33329 36.7702 6.02505 37.0489 5.49663 36.9971L5.38855 36.9812L5.10032 38.8956C5.09231 38.9593 5.02826 39.0071 4.96021 38.9991L3.69521 38.8519C3.62716 38.8439 3.57912 38.7842 3.58712 38.7165L3.73124 36.7503L3.24685 36.5513L2.39818 37.6538C2.35415 37.7454 2.23806 37.7852 2.14198 37.7414L1.2773 37.3593C1.18122 37.3155 1.14119 37.2081 1.18522 37.1165L1.69763 35.8588L1.2813 35.6717C0.780904 28.6865 5.90896 25.6218 3.86334 25.1362C2.74646 25.0686 2.10195 24.6467 1.93382 23.8705C1.80972 23.3014 1.82573 23.2775 2.37817 23.2775L4.95621 23.2815L5.00024 22.0914H3.08272C2.95062 22.0914 2.84253 21.9879 2.84253 21.8645V20.3998C2.84253 20.2725 2.95062 20.173 3.08272 20.173C3.9434 20.173 4.80408 20.173 5.66476 20.173C5.71681 19.5879 5.72881 19.7113 5.78486 19.1262C5.93298 18.3779 6.2172 18.3023 7.09389 18.3023L14.3276 18.3222L14.0754 17.9839L13.527 17.9083C10.985 15.3132 8.78723 17.6814 6.4654 14.4575L1.57753 7.66732L1.19723 7.91807L0.20445 6.53695C-0.159838 6.03147 -0.0237308 5.33096 0.504687 4.98071L7.78644 0.196558C8.31486 -0.153696 9.04744 -0.0223511 9.41173 0.483129L10.4045 1.86424L10.0602 2.09111L14.9481 8.88127C17.2659 12.1012 14.1675 13.2196 15.8008 16.4237L15.6967 16.9172C15.6847 16.9252 17.0538 18.764 17.1819 18.9391H17.7183C18.1026 18.9312 18.2387 19.1541 18.2067 19.5362V19.6277H20.1242L21.0369 18.7401H22.8584V19.6357L21.8015 20.1173V20.8854H22.2138V22.0238H21.8015V22.7163L22.8584 23.2059V24.1452H21.0529L20.1282 23.2417H18.2107V23.6516L16.9377 24.6109C16.4853 24.9651 15.9649 25.0606 15.3684 24.8974L14.0674 24.6228C13.4349 24.778 12.9986 25.192 12.9465 25.8407ZM29.0993 22.8636C29.5957 22.8636 30 23.2496 30 23.7273C30 24.2049 29.5957 24.591 29.0993 24.591C28.6029 24.591 28.1986 24.2049 28.1986 23.7273C28.1946 23.2496 28.5989 22.8636 29.0993 22.8636ZM29.0993 20.5272C29.5957 20.5272 30 20.9133 30 21.3909C30 21.8685 29.5957 22.2546 29.0993 22.2546C28.6029 22.2546 28.1986 21.8685 28.1986 21.3909C28.1946 20.9173 28.5989 20.5272 29.0993 20.5272ZM29.0993 18.1948C29.5957 18.1948 30 18.5809 30 19.0585C30 19.5362 29.5957 19.9222 29.0993 19.9222C28.6029 19.9222 28.1986 19.5362 28.1986 19.0585C28.1946 18.5809 28.5989 18.1948 29.0993 18.1948ZM26.8615 21.6974C27.3579 21.6974 27.7622 22.0835 27.7622 22.5611C27.7622 23.0387 27.3579 23.4248 26.8615 23.4248C26.3651 23.4248 25.9608 23.0387 25.9608 22.5611C25.9608 22.0835 26.3651 21.6974 26.8615 21.6974ZM26.8615 19.361C27.3579 19.361 27.7622 19.7471 27.7622 20.2247C27.7622 20.7023 27.3579 21.0884 26.8615 21.0884C26.3651 21.0884 25.9608 20.7023 25.9608 20.2247C25.9608 19.7471 26.3651 19.361 26.8615 19.361ZM24.6278 20.5272C25.1241 20.5272 25.5285 20.9133 25.5285 21.3909C25.5285 21.8685 25.1241 22.2546 24.6278 22.2546C24.1314 22.2546 23.727 21.8685 23.727 21.3909C23.723 20.9173 24.1274 20.5272 24.6278 20.5272Z" fill="#0077C6"/>
    </symbol>
    <symbol id="engine" viewBox="0 0 30 30" fill="none" xmlns="http://www.w3.org/2000/svg">
        <g clip-path="url(#clip0_49_2155)">
        <path d="M29.5075 12.4772H28.8508C28.5792 12.4772 28.3574 12.6984 28.3574 12.9699V21.5275C28.3574 21.799 28.5782 22.0208 28.8508 22.0208H29.5075C29.7787 22.0208 30.0002 21.7993 30.0002 21.5275V12.9696C30.0002 12.6984 29.7791 12.4772 29.5075 12.4772Z" fill="#0077C6"/>
        <path d="M0.492673 12.0606C0.221486 12.0606 0 12.2815 0 12.5533V21.9478C0 22.219 0.221152 22.4408 0.492673 22.4408H1.83193C2.10345 22.4408 2.3246 22.2196 2.3246 21.9478V12.556C2.3246 12.2848 2.10378 12.0633 1.83193 12.0633H0.492673V12.0606Z" fill="#0077C6"/>
        <path d="M19.219 23.9435C20.3178 23.5172 21.4099 23.0779 22.5063 22.6519C22.604 22.6142 22.7178 22.6012 22.8222 22.5986C23.6334 22.5952 24.4446 22.5952 25.2532 22.5952C26.0934 22.5952 26.6335 22.0548 26.6335 21.2056V18.4267C26.6335 18.2275 26.7939 18.0701 26.99 18.0701L27.3403 18.0611C27.6185 18.0611 27.6348 17.9534 27.6435 17.7609L27.6505 16.1474C27.6505 15.987 27.5207 15.8569 27.3596 15.8569H26.984C26.7846 15.8569 26.6241 15.6958 26.6241 15.4967L26.6361 12.1273C26.6458 11.6283 26.444 11.2844 26.0614 11.0092C25.4046 10.5356 23.4693 9.16196 23.1531 8.95982C22.9356 8.81739 22.6984 8.76069 22.4332 8.76402L19.0953 8.76069C18.8107 8.76069 18.5806 8.53019 18.5806 8.246V8.14193C18.5806 7.85473 18.8141 7.6209 19.1016 7.6209H22.127C22.4139 7.6209 22.648 7.38741 22.648 7.09987V6.49646C22.648 6.20926 22.4142 5.97543 22.127 5.97543H12.0824C11.7949 5.97543 11.5614 6.20893 11.5614 6.49646V7.09987C11.5614 7.38707 11.7949 7.6209 12.0824 7.6209H15.3567C15.6442 7.6209 15.878 7.85473 15.878 8.14193V8.26201C15.878 8.5462 15.6476 8.7797 15.3594 8.77636L12.0534 8.76402C11.4213 8.74501 10.904 8.95982 10.4236 9.30706C9.72247 9.81541 9.03433 10.3398 8.34586 10.8641C8.17207 10.9966 7.95426 11.0693 7.73644 11.0659C7.07365 11.0593 6.41019 11.0593 5.74707 11.0659C4.92283 11.0723 4.38947 11.6026 4.3828 12.4302L4.39214 14.7321C4.39214 14.9276 4.23403 15.0887 4.03522 15.0887H3.72601C3.35008 15.0887 3.04688 15.3919 3.04688 15.7678V19.4154C3.04688 19.791 3.35008 20.0938 3.72601 20.0938H4.02588C4.22168 20.0938 4.38246 20.2523 4.38246 20.4507C4.38246 20.9744 4.37913 21.9504 4.38246 22.5152C4.38246 23.0399 4.37312 24.0249 5.33312 24.0249H18.7991C18.9412 24.0255 19.0896 23.9972 19.219 23.9435Z" fill="#0077C6"/>
        </g>
        <defs>
        <clipPath id="clip0_49_2155">
        <rect width="30" height="30" fill="white"/>
        </clipPath>
        </defs>
    </symbol>
    <symbol id="brakes" viewBox="0 0 30 30" fill="none" xmlns="http://www.w3.org/2000/svg">
        <path d="M14.5303 0.0387173C12.1552 0.261618 10.384 0.765917 8.40161 1.77482C5.50451 3.25862 3.04121 5.69252 1.53971 8.57222C0.941514 9.71582 0.190913 11.733 0.314213 11.8386C0.355313 11.8737 6.09101 13.422 6.27851 13.4514C6.30191 13.4514 6.41921 13.1934 6.52481 12.8709C7.78571 9.19382 11.0701 6.64832 14.9584 6.33182C15.9202 6.24962 17.1226 6.34952 17.9494 6.57212C18.0727 6.60722 18.184 6.62492 18.1957 6.61322C18.2191 6.58982 19.8085 0.660618 19.8085 0.590118C19.8085 0.472818 18.1897 0.162017 17.0521 0.062417C16.4305 0.00361729 15.0112 -0.00808239 14.5303 0.0387173Z" fill="#0077C6"/>
        <path d="M20.0794 2.68951C20.0617 2.71291 19.7859 3.73351 19.4578 4.95331C19.1292 6.17911 18.8362 7.27561 18.8008 7.39291L18.7419 7.60411L18.3199 7.46911C17.5048 7.21111 17.0473 7.14061 15.9682 7.11151C15.0766 7.08811 14.8012 7.09981 14.2087 7.19941C11.3935 7.68031 9.00665 9.45151 7.72805 12.0084C7.37615 12.7179 7.09475 13.5333 7.04195 14.0082C7.02425 14.2077 6.98315 14.3835 6.95975 14.4012C6.93035 14.4189 5.82185 14.1372 4.49075 13.7796C3.15935 13.4277 2.03915 13.1346 2.00405 13.1346C1.96295 13.1346 1.89275 13.4103 1.82825 13.7916C1.73435 14.331 1.71695 14.7534 1.72265 16.0671C1.72265 17.5626 1.73435 17.7384 1.88105 18.4716C2.15675 19.9026 2.48525 20.8761 3.09515 22.137C4.91915 25.9023 8.37935 28.6761 12.4494 29.6322C13.6398 29.9136 14.3436 29.9901 15.7045 29.9901C17.4462 29.9901 18.7015 29.7906 20.2789 29.2512C21.1468 28.9581 22.6656 28.2072 23.4165 27.7029C26.7418 25.4742 28.8414 22.2369 29.5569 18.2547C29.7387 17.2341 29.7504 14.8767 29.5863 13.8678C29.2404 11.8092 28.5012 9.91501 27.3753 8.21401C25.8972 5.97361 23.6572 4.10281 21.2349 3.08221C20.5483 2.79541 20.1028 2.64271 20.0794 2.68951ZM16.537 8.88301C16.7599 8.90071 17.182 8.98261 17.4871 9.05881C20.1616 9.75091 22.2022 11.9385 22.7479 14.6889C22.8535 15.2286 22.8535 16.7298 22.7479 17.2695C22.1674 20.2137 19.927 22.4598 17.0122 23.0229C16.3846 23.1462 15.1474 23.1579 14.5315 23.0523C11.6461 22.548 9.41165 20.4426 8.71955 17.5629C8.53175 16.7829 8.52005 16.1085 8.66075 15.0294C8.83655 13.704 9.10055 12.9942 9.78665 11.9679C10.9654 10.2027 12.9595 9.03541 15.0883 8.85361C15.6043 8.81251 15.7276 8.81251 16.537 8.88301Z" fill="#0077C6"/>
        <path d="M14.3544 9.68048C11.9907 10.1791 10.0848 12.0088 9.44551 14.3959C9.31051 14.9119 9.29311 15.0937 9.28711 15.9502C9.28711 16.7653 9.30481 16.9999 9.41611 17.434C9.96751 19.6276 11.4513 21.2989 13.5156 22.0438C14.9232 22.5601 16.6239 22.5424 18.0255 21.997C19.122 21.5746 20.3127 20.6365 20.9754 19.6747C21.99 18.2143 22.371 16.3669 22.0134 14.6896C21.4563 12.0973 19.4622 10.1443 16.8582 9.64598C16.2018 9.52208 15.0462 9.53978 14.3544 9.68048ZM13.8969 11.317C14.7708 11.5633 14.9466 12.7363 14.196 13.2523C14.0202 13.3753 13.9086 13.399 13.5861 13.399C13.2342 13.399 13.1697 13.3813 12.9645 13.2172C12.2667 12.6601 12.4368 11.6278 13.2696 11.3287C13.4979 11.2465 13.6329 11.2465 13.8969 11.317ZM19.1106 11.9854C19.3863 12.1732 19.5738 12.5251 19.5738 12.871C19.5738 13.774 18.4947 14.2843 17.832 13.7038C17.5917 13.4926 17.4039 13.129 17.4039 12.871C17.4039 12.484 17.7852 11.956 18.1428 11.8447C18.4362 11.7508 18.8466 11.8153 19.1106 11.9854ZM16.4481 14.2024C16.8411 14.3491 17.2515 14.7418 17.451 15.1759C17.586 15.4573 17.6094 15.5863 17.6094 16.0087C17.6034 16.4602 17.586 16.5424 17.4099 16.8766C17.0403 17.557 16.4598 17.9089 15.7032 17.9146C15.3162 17.9146 15.2046 17.8852 14.8704 17.7211C13.2225 16.9117 13.4805 14.5366 15.2574 14.0965C15.6093 14.0089 16.0257 14.044 16.4481 14.2024ZM11.9967 15.862C12.4308 16.0438 12.6594 16.378 12.6594 16.8181C12.6654 17.3107 12.4659 17.6332 12.0378 17.8327C11.5863 18.0439 11.0526 17.9089 10.7475 17.5102C10.4661 17.1406 10.4718 16.519 10.7592 16.1788C11.064 15.8152 11.5686 15.6862 11.9967 15.862ZM19.9551 16.7065C20.3187 16.8709 20.6295 17.3164 20.6295 17.68C20.6295 17.8678 20.4828 18.2077 20.3187 18.3955C19.8612 18.9175 19.0872 18.8824 18.6591 18.3193C18.4362 18.0262 18.3951 17.5336 18.5712 17.1991C18.8349 16.6771 19.4331 16.4662 19.9551 16.7065ZM15.6738 19.1698C16.1136 19.3693 16.3893 19.8442 16.3305 20.3017C16.2015 21.2575 14.9055 21.5566 14.3718 20.7532C14.2368 20.548 14.2077 20.4424 14.2077 20.1433C14.2077 19.6858 14.3778 19.4101 14.7882 19.2049C15.1344 19.0291 15.357 19.0231 15.6738 19.1698Z" fill="#0077C6"/>
    </symbol>
    <symbol id="tires" viewBox="0 0 17 30" fill="none" xmlns="http://www.w3.org/2000/svg">
        <path d="M2.90282 0.0435181V29.9439C1.25644 29.6594 0 28.2512 0 26.5442V3.45746C0 1.75049 1.25644 0.328013 2.90282 0.0435181Z" fill="#0077C6"/>
        <path d="M4.85234 27.4538L6.88865 29.7582L6.67202 30H4.08691V0H4.88122L6.88865 2.24751L4.85234 4.55192L6.88865 6.8421L4.85234 9.13229L6.88865 11.4225L4.85234 13.7127L6.88865 16.0028L4.85234 18.293L6.88865 20.5832L4.85234 22.8734L6.88865 25.1636L4.85234 27.4538Z" fill="#0077C6"/>
        <path d="M8.05869 27.4538L10.095 29.7582L9.86393 30H8.24644L8.46307 29.7582L6.42676 27.4538L8.46307 25.1636L6.42676 22.8734L8.46307 20.5832L6.42676 18.293L8.46307 16.0028L6.42676 13.7127L8.46307 11.4225L6.42676 9.13229L8.46307 6.8421L6.42676 4.55192L8.46307 2.24751L6.45564 0H8.08758L10.095 2.24751L8.05869 4.55192L10.095 6.8421L8.05869 9.13229L10.095 11.4225L8.05869 13.7127L10.095 16.0028L8.05869 18.293L10.095 20.5832L8.05869 22.8734L10.095 25.1636L8.05869 27.4538Z" fill="#0077C6"/>
        <path d="M9.66072 0H12.578V30H11.4371L11.6681 29.7582L9.63184 27.4538L11.6681 25.1636L9.63184 22.8734L11.6681 20.5832L9.63184 18.293L11.6681 16.0028L9.63184 13.7127L11.6681 11.4225L9.63184 9.13229L11.6681 6.8421L9.63184 4.55192L11.6681 2.24751L9.66072 0Z" fill="#0077C6"/>
        <path d="M16.6665 3.45733V26.5441C16.6665 28.2511 15.41 29.6735 13.7637 29.9438V0.043396C15.41 0.327891 16.6665 1.75037 16.6665 3.45733Z" fill="#0077C6"/>
    </symbol>
    <symbol id="interior" viewBox="0 0 30 30" fill="none" xmlns="http://www.w3.org/2000/svg">
        <path d="M24.0322 19.7606L22.7665 9.63562C22.6147 8.415 21.5778 7.5 20.3478 7.5H18.7503V5.625H19.6878C20.2053 5.625 20.6253 5.205 20.6253 4.6875V0.9375C20.6253 0.42 20.2053 0 19.6878 0H10.3128C9.79528 0 9.37528 0.42 9.37528 0.9375V4.6875C9.37528 5.205 9.79528 5.625 10.3128 5.625H11.2503V7.5H9.65278C8.42278 7.5 7.3859 8.415 7.23403 9.63562L5.9684 19.7606C5.78653 21.2156 6.9209 22.5 8.38715 22.5H21.6153C23.0797 22.5 24.214 21.2156 24.0322 19.7606ZM13.1253 5.625H16.8753V7.5H13.1253V5.625ZM17.8128 18.75H12.1878C11.6703 18.75 11.2503 18.33 11.2503 17.8125C11.2503 17.295 11.6703 16.875 12.1878 16.875H17.8128C18.3303 16.875 18.7503 17.295 18.7503 17.8125C18.7503 18.33 18.3303 18.75 17.8128 18.75ZM17.8128 15H12.1878C11.6703 15 11.2503 14.58 11.2503 14.0625C11.2503 13.545 11.6703 13.125 12.1878 13.125H17.8128C18.3303 13.125 18.7503 13.545 18.7503 14.0625C18.7503 14.58 18.3303 15 17.8128 15Z" fill="#0077C6"/>
        <path d="M21.5625 30H8.4375C6.88687 30 5.625 28.7381 5.625 27.1875C5.625 25.6369 6.88687 24.375 8.4375 24.375H21.5625C23.1131 24.375 24.375 25.6369 24.375 27.1875C24.375 28.7381 23.1131 30 21.5625 30Z" fill="#0077C6"/>
    </symbol>
    <symbol id="transmission" viewBox="0 0 30 30" fill="none" xmlns="http://www.w3.org/2000/svg">
        <g clip-path="url(#clip0_99_271)">
        <path d="M7.5 22.5C6.465 22.5 5.625 23.34 5.625 24.375H28.125C28.125 23.34 27.285 22.5 26.25 22.5H7.5Z" fill="#0077C6"/>
        <path d="M1.875 26.25C0.84 26.25 0 27.09 0 28.125C0 29.16 0.84 30 1.875 30H28.125C29.16 30 30 29.16 30 28.125C30 27.09 29.16 26.25 28.125 26.25H1.875Z" fill="#0077C6"/>
        <path d="M27.1313 0.36751C24.75 -0.635615 21.9956 0.485635 20.9925 2.86876C20.1131 4.95564 20.865 7.32564 22.6669 8.55751L19.1644 18.75H13.125C12.09 18.75 11.25 19.59 11.25 20.625H26.25C26.25 19.59 25.41 18.75 24.375 18.75H21.1988L24.3956 9.28501C26.535 9.71251 28.755 8.59314 29.6344 6.50814C30.6356 4.12501 29.5144 1.37064 27.1313 0.36751Z" fill="#0077C6"/>
        </g>
        <defs>
        <clipPath id="clip0_99_271">
        <rect width="30" height="30" fill="white"/>
        </clipPath>
        </defs>
    </symbol>
    <symbol id="wd" viewBox="0 0 30 13" fill="none" xmlns="http://www.w3.org/2000/svg">
        <path d="M8.54303 8.41286H9.90628V10.79H8.54303V13H6.01647V10.79H0V8.41286L4.23516 0H6.92531L2.70832 8.41286H6.01647V5.33H8.54303V8.41286Z" fill="#0077C6"/>
        <path d="M16.2877 8.24572L19.614 13H16.9057L14.9426 10.1771L12.9614 13H10.2531L13.5794 8.26429L10.3985 3.71429H13.1068L14.9426 6.33286L16.7785 3.71429H19.4686L16.2877 8.24572Z" fill="#0077C6"/>
        <path d="M28.6368 8.41286H30V10.79H28.6368V13H26.1102V10.79H20.0937V8.41286L24.3289 0H27.019L22.802 8.41286H26.1102V5.33H28.6368V8.41286Z" fill="#0077C6"/>
    </symbol>
    <symbol id="undercarriage" viewBox="0 0 23 30" fill="none" xmlns="http://www.w3.org/2000/svg">
        <path fill-rule="evenodd" clip-rule="evenodd" d="M0.938776 0C0.420304 0 0 0.423038 0 0.944882L0 7.79528C0 8.31712 0.420304 8.74016 0.938776 8.74016H4.92857C5.44704 8.74016 5.86735 8.31712 5.86735 7.79528V5.43307H8.10615C8.43449 6.63046 9.37158 7.57364 10.5612 7.90412L10.5612 22.3321C9.37158 22.6626 8.43449 23.6058 8.10615 24.8032H5.86735V22.2047C5.86735 21.6829 5.44704 21.2598 4.92857 21.2598H0.938776C0.420304 21.2598 0 21.6829 0 22.2047L0 29.0551C0 29.577 0.420304 30 0.938776 30H4.92857C5.44704 30 5.86735 29.577 5.86735 29.0551V26.6929H8.10615C8.51698 28.1911 9.88083 29.2913 11.5 29.2913C13.1192 29.2913 14.483 28.1911 14.8939 26.6929H17.1327V29.0551C17.1327 29.577 17.553 30 18.0714 30H22.0612C22.5797 30 23 29.577 23 29.0551V22.2047C23 21.6829 22.5797 21.2598 22.0612 21.2598H18.0714C17.553 21.2598 17.1327 21.6829 17.1327 22.2047V24.8032H14.8939C14.5655 23.6058 13.6284 22.6626 12.4388 22.3321L12.4388 7.90412C13.6284 7.57364 14.5655 6.63046 14.8939 5.43307H17.1327V7.79528C17.1327 8.31712 17.553 8.74016 18.0714 8.74016H22.0612C22.5797 8.74016 23 8.31712 23 7.79528V0.944882C23 0.423038 22.5797 0 22.0612 0L18.0714 0C17.553 0 17.1327 0.423038 17.1327 0.944882V3.54331L14.8939 3.54331C14.483 2.04511 13.1192 0.944882 11.5 0.944882C9.88083 0.944882 8.51698 2.04511 8.10615 3.54331L5.86735 3.54331L5.86735 0.944882C5.86735 0.423038 5.44704 0 4.92857 0L0.938776 0ZM1.17347 1.1811L1.17347 7.55906L4.69388 7.55906L4.69388 1.1811L1.17347 1.1811ZM18.3061 1.1811V7.55906L21.8265 7.55906V1.1811L18.3061 1.1811ZM9.70275 4.48819C9.70275 5.48724 10.5074 6.29713 11.5 6.29713C12.4926 6.29713 13.2972 5.48724 13.2972 4.48819C13.2972 3.48914 12.4926 2.67925 11.5 2.67925C10.5074 2.67925 9.70275 3.48914 9.70275 4.48819ZM9.70275 25.748C9.70275 26.7471 10.5074 27.557 11.5 27.557C12.4926 27.557 13.2972 26.7471 13.2972 25.748C13.2972 24.749 12.4926 23.9391 11.5 23.9391C10.5074 23.9391 9.70275 24.749 9.70275 25.748ZM18.3061 28.8189V22.4409H21.8265V28.8189H18.3061ZM1.17347 28.8189L1.17347 22.4409H4.69388L4.69388 28.8189H1.17347Z" fill="#0077C6"/>
    </symbol>
    <symbol id="steel" viewBox="0 0 24 30" fill="none" xmlns="http://www.w3.org/2000/svg">
        <path d="M22 0H11.4754C10.4707 0 9.63161 0.749146 9.42217 1.73177C7.987 8.46514 3.66928 13.1068 0.91982 15.1598C0.363564 15.5751 0 16.2123 0 16.9065V28C0 29.1046 0.89543 30 2 30H22C23.1046 30 24 29.1046 24 28V2C24 0.895431 23.1046 0 22 0Z" fill="#0077C6"/>
    </symbol>
    <symbol id="battery" viewBox="0 0 30 30" fill="none" xmlns="http://www.w3.org/2000/svg">
        <path d="M29.0625 5.625H26.25V2.8125C26.25 2.2875 25.8188 1.875 25.3125 1.875H21.5625C21.0562 1.875 20.625 2.2875 20.625 2.8125V5.625H9.375V2.8125C9.375 2.2875 8.9625 1.875 8.4375 1.875H4.6875C4.18125 1.875 3.75 2.2875 3.75 2.8125V5.625H0.9375C0.4125 5.625 0 6.0375 0 6.5625V27.1875C0 27.7125 0.4125 28.125 0.9375 28.125H29.0625C29.5875 28.125 30 27.7125 30 27.1875V6.5625C30 6.0375 29.5875 5.625 29.0625 5.625ZM5.625 3.75H7.5V5.625H5.625V3.75ZM8.4375 13.125H7.5V14.0625C7.5 14.5875 7.0875 15 6.5625 15C6.0375 15 5.625 14.5875 5.625 14.0625V13.125H4.6875C4.18125 13.125 3.75 12.7125 3.75 12.1875C3.75 11.6625 4.18125 11.25 4.6875 11.25H5.625V10.3125C5.625 9.7875 6.0375 9.375 6.5625 9.375C7.0875 9.375 7.5 9.7875 7.5 10.3125V11.25H8.4375C8.9625 11.25 9.375 11.6625 9.375 12.1875C9.375 12.7125 8.9625 13.125 8.4375 13.125ZM22.5 3.75H24.375V5.625H22.5V3.75ZM17.7188 20.1L15.8438 23.85C15.675 24.1875 15.3375 24.375 15 24.375C14.85 24.375 14.7188 24.3375 14.5875 24.2812C14.1188 24.0375 13.9313 23.475 14.1562 23.025L15.3562 20.625H13.125C12.8062 20.625 12.5063 20.4563 12.3188 20.175C12.15 19.9125 12.15 19.5562 12.2812 19.275L14.1562 15.525C14.4 15.0562 14.9625 14.8688 15.4125 15.0938C15.8813 15.3375 16.0688 15.9 15.8438 16.35L14.6438 18.75H16.875C17.1938 18.75 17.4937 18.9187 17.6813 19.2C17.85 19.4625 17.85 19.8188 17.7188 20.1ZM25.3125 13.125H21.5625C21.0562 13.125 20.625 12.7125 20.625 12.1875C20.625 11.6625 21.0562 11.25 21.5625 11.25H25.3125C25.8375 11.25 26.25 11.6625 26.25 12.1875C26.25 12.7125 25.8375 13.125 25.3125 13.125Z" fill="#0077C6"/>
    </symbol>
    <symbol id="oil" viewBox="0 0 30 30" fill="none" xmlns="http://www.w3.org/2000/svg">
        <path d="M2.8125 11.25H4.6875H10.785V9.375H9.375C8.8575 9.375 8.4375 8.955 8.4375 8.4375C8.4375 7.92 8.8575 7.5 9.375 7.5H11.7225H12.66H15C15.5175 7.5 15.9375 7.92 15.9375 8.4375C15.9375 8.955 15.5175 9.375 15 9.375H13.5975V11.25H19.5956L28.8787 9.39375C29.1525 9.34125 29.4375 9.41062 29.6569 9.58687C29.8744 9.765 30 10.0312 30 10.3125V11.25C30 11.58 29.8275 11.8837 29.5444 12.0544L20.625 17.4056V19.6875C20.625 21.2381 19.3631 22.5 17.8125 22.5H6.5625C5.01188 22.5 3.75 21.2381 3.75 19.6875V18.75H2.8125C1.26188 18.75 0 17.4881 0 15.9375V14.0625C0 12.5119 1.26188 11.25 2.8125 11.25ZM1.875 15.9375C1.875 16.455 2.29688 16.875 2.8125 16.875H3.75V13.125H2.8125C2.29688 13.125 1.875 13.545 1.875 14.0625V15.9375Z" fill="#0077C6"/>
        <path d="M28.4438 16.3669C28.8094 16.9332 30 18.8738 30 20.1038C30 21.4163 28.9481 22.485 27.6562 22.485C26.3644 22.485 25.3125 21.4163 25.3125 20.1038C25.3125 18.8738 26.5031 16.9332 26.8688 16.3669C27.2138 15.8325 28.0987 15.8325 28.4438 16.3669ZM28.125 20.1038C28.125 19.8525 27.93 19.3444 27.6562 18.7819C27.3825 19.3425 27.1875 19.8507 27.1875 20.1038C27.1875 20.6625 28.125 20.6625 28.125 20.1038Z" fill="#0077C6"/>
    </symbol>
    <symbol id="air-conditioning" viewBox="0 0 30 30" fill="none" xmlns="http://www.w3.org/2000/svg">
        <g clip-path="url(#clip0_49_453)">
        <path d="M25.3125 24.8775H23.1863L24.2494 23.0363C24.5081 22.5882 24.3544 22.0144 23.9062 21.7556C23.4581 21.4969 22.8844 21.6507 22.6256 22.0988L21.5625 23.94L20.4994 22.0988C20.2406 21.6507 19.6669 21.4969 19.2188 21.7556C18.7706 22.0144 18.6169 22.5882 18.8756 23.0363L19.9387 24.8775H17.8125C17.295 24.8775 16.875 25.2975 16.875 25.815C16.875 26.3325 17.295 26.7525 17.8125 26.7525H19.9387L18.8756 28.5938C18.6169 29.0419 18.7706 29.6157 19.2188 29.8744C19.6669 30.1332 20.2406 29.9794 20.4994 29.5313L21.5625 27.69L22.6256 29.5313C22.8844 29.9794 23.4581 30.1332 23.9062 29.8744C24.3544 29.6157 24.5081 29.0419 24.2494 28.5938L23.1863 26.7525H25.3125C25.83 26.7525 26.25 26.3325 26.25 25.815C26.25 25.2975 25.83 24.8775 25.3125 24.8775Z" fill="#0077C6"/>
        <path d="M7.125 5.625H22.875C23.6887 5.625 24.375 5.14875 24.375 4.58625V0H5.625V4.58625C5.625 5.14875 6.31125 5.625 7.125 5.625Z" fill="#0077C6"/>
        <path d="M26.25 0V4.58625C26.25 6.19313 24.735 7.5 22.875 7.5H7.125C5.265 7.5 3.75 6.19313 3.75 4.58625V0C1.89 0 0 1.89 0 3.75V13.125C0 14.985 1.89 16.875 3.75 16.875H26.25C28.11 16.875 30 14.985 30 13.125V3.75C30 1.89 28.11 0 26.25 0ZM23.4375 13.125H6.5625C6.045 13.125 5.625 12.705 5.625 12.1875C5.625 11.67 6.045 11.25 6.5625 11.25H23.4375C23.955 11.25 24.375 11.67 24.375 12.1875C24.375 12.705 23.955 13.125 23.4375 13.125Z" fill="#0077C6"/>
        <path d="M12.1875 20.625C12.705 20.625 13.125 21.045 13.125 21.5625V29.0625C13.125 29.58 12.705 30 12.1875 30C11.67 30 11.25 29.58 11.25 29.0625V21.5625C11.25 21.045 11.67 20.625 12.1875 20.625Z" fill="#0077C6"/>
        <path d="M8.4375 20.625C8.955 20.625 9.375 21.045 9.375 21.5625V27.1875C9.375 27.705 8.955 28.125 8.4375 28.125C7.92 28.125 7.5 27.705 7.5 27.1875V21.5625C7.5 21.045 7.92 20.625 8.4375 20.625Z" fill="#0077C6"/>
        <path d="M4.6875 20.625C5.205 20.625 5.625 21.045 5.625 21.5625V25.3125C5.625 25.83 5.205 26.25 4.6875 26.25C4.17 26.25 3.75 25.83 3.75 25.3125V21.5625C3.75 21.045 4.17 20.625 4.6875 20.625Z" fill="#0077C6"/>
        </g>
        <defs>
        <clipPath id="clip0_49_453">
        <rect width="30" height="30" fill="white"/>
        </clipPath>
        </defs>
    </symbol>
</svg>