<svg width="0" height="0" class="hidden">
    <symbol id="registration" viewBox="0 0 20 20" fill="none" xmlns="http://www.w3.org/2000/svg">
        <path d="M15 0H5C3.62125 0 2.5 1.12125 2.5 2.5V17.5C2.5 18.8788 3.62125 20 5 20H15C16.3788 20 17.5 18.8788 17.5 17.5V2.5C17.5 1.12125 16.3788 0 15 0ZM14.375 16.25H9.375C9.03 16.25 8.75 15.97 8.75 15.625C8.75 15.28 9.03 15 9.375 15H14.375C14.72 15 15 15.28 15 15.625C15 15.97 14.72 16.25 14.375 16.25ZM14.375 12.5H9.375C9.03 12.5 8.75 12.22 8.75 11.875C8.75 11.53 9.03 11.25 9.375 11.25H14.375C14.72 11.25 15 11.53 15 11.875C15 12.22 14.72 12.5 14.375 12.5ZM14.375 8.75H9.375C9.03 8.75 8.75 8.47 8.75 8.125C8.75 7.78 9.03 7.5 9.375 7.5H14.375C14.72 7.5 15 7.78 15 8.125C15 8.47 14.72 8.75 14.375 8.75ZM14.375 5H9.375C9.03 5 8.75 4.72 8.75 4.375C8.75 4.03 9.03 3.75 9.375 3.75H14.375C14.72 3.75 15 4.03 15 4.375C15 4.72 14.72 5 14.375 5ZM6.875 5H5.625C5.28 5 5 4.72 5 4.375C5 4.03 5.28 3.75 5.625 3.75H6.875C7.22 3.75 7.5 4.03 7.5 4.375C7.5 4.72 7.22 5 6.875 5ZM6.875 8.75H5.625C5.28 8.75 5 8.47 5 8.125C5 7.78 5.28 7.5 5.625 7.5H6.875C7.22 7.5 7.5 7.78 7.5 8.125C7.5 8.47 7.22 8.75 6.875 8.75ZM6.875 12.5H5.625C5.28 12.5 5 12.22 5 11.875C5 11.53 5.28 11.25 5.625 11.25H6.875C7.22 11.25 7.5 11.53 7.5 11.875C7.5 12.22 7.22 12.5 6.875 12.5ZM6.875 16.25H5.625C5.28 16.25 5 15.97 5 15.625C5 15.28 5.28 15 5.625 15H6.875C7.22 15 7.5 15.28 7.5 15.625C7.5 15.97 7.22 16.25 6.875 16.25Z" fill="#0077C6"/>
    </symbol>
    <symbol id="oil" viewBox="0 0 20 20" fill="none" xmlns="http://www.w3.org/2000/svg">
        <path d="M1.875 7.5H3.125H7.19V6.25H6.25C5.905 6.25 5.625 5.97 5.625 5.625C5.625 5.28 5.905 5 6.25 5H7.815H8.44H10C10.345 5 10.625 5.28 10.625 5.625C10.625 5.97 10.345 6.25 10 6.25H9.065V7.5H13.0638L19.2525 6.2625C19.435 6.2275 19.625 6.27375 19.7713 6.39125C19.9162 6.51 20 6.6875 20 6.875V7.5C20 7.72 19.885 7.9225 19.6962 8.03625L13.75 11.6038V13.125C13.75 14.1587 12.9088 15 11.875 15H4.375C3.34125 15 2.5 14.1587 2.5 13.125V12.5H1.875C0.841249 12.5 0 11.6588 0 10.625V9.375C0 8.34125 0.841249 7.5 1.875 7.5ZM1.25 10.625C1.25 10.97 1.53125 11.25 1.875 11.25H2.5V8.75H1.875C1.53125 8.75 1.25 9.03 1.25 9.375V10.625Z" fill="#0077C6"/>
        <path d="M18.9625 10.9112C19.2063 11.2887 20 12.5825 20 13.4025C20 14.2775 19.2988 14.99 18.4375 14.99C17.5763 14.99 16.875 14.2775 16.875 13.4025C16.875 12.5825 17.6688 11.2887 17.9125 10.9112C18.1425 10.555 18.7325 10.555 18.9625 10.9112ZM18.75 13.4025C18.75 13.235 18.62 12.8962 18.4375 12.5212C18.255 12.895 18.125 13.2337 18.125 13.4025C18.125 13.775 18.75 13.775 18.75 13.4025Z" fill="#0077C6"/>
    </symbol>
    <symbol id="rotation" viewBox="0 0 20 20" fill="none" xmlns="http://www.w3.org/2000/svg">
        <path d="M20 10C20 9.0125 19.8625 8.075 19.6 7.175L18.1375 6.7875C17.9375 6.2625 17.675 5.7625 17.375 5.2875L19.05 5.7375C18.525 4.6125 17.7875 3.6125 16.9 2.7625L15.4375 3.15C15 2.8 14.525 2.4875 14.025 2.2375L15.7 1.7875C14.7 1.0875 13.575 0.575 12.35 0.275L11.2875 1.35C10.875 1.275 10.4375 1.25 10 1.25C9.8625 1.25 9.725 1.25 9.5875 1.275L10.8375 0.0375C10.5625 0.0125 10.2875 0 10 0C9.0125 0 8.075 0.1375 7.175 0.4L6.7875 1.8625C6.2625 2.0625 5.7625 2.325 5.2875 2.625L5.7375 0.95C4.6125 1.475 3.6125 2.2125 2.7625 3.1L3.15 4.5625C2.8 5 2.4875 5.475 2.2375 5.975L1.7875 4.3C1.1 5.2875 0.575 6.425 0.275 7.6375L1.3625 8.725C1.2875 9.1375 1.25 9.5625 1.25 10C1.25 10.1375 1.25 10.275 1.275 10.4125L0.0375 9.175C0.0125 9.45 0 9.725 0 10C0 10.975 0.1375 11.925 0.4 12.8125L1.8625 13.2C2.0625 13.7375 2.325 14.2375 2.625 14.7125L0.95 14.2625C1.475 15.3875 2.2125 16.3875 3.1 17.2375L4.5625 16.85C5 17.2 5.475 17.5125 5.975 17.7625L4.3 18.2125C5.2875 18.9 6.425 19.425 7.6375 19.725L8.725 18.65C9.1375 18.7125 9.5625 18.75 10 18.75C10.1375 18.75 10.275 18.75 10.4125 18.725L9.175 19.9625C9.45 19.9875 9.725 20 10 20C10.975 20 11.925 19.8625 12.8125 19.6L13.2 18.1375C13.7375 17.9375 14.2375 17.675 14.7125 17.375L14.2625 19.05C15.3875 18.525 16.3875 17.7875 17.2375 16.9L16.8375 15.45C17.1875 15.0125 17.5 14.5375 17.7625 14.025L18.2125 15.7C18.9 14.7125 19.425 13.575 19.725 12.3625L18.65 11.2875C18.7125 10.875 18.75 10.4375 18.75 10C18.75 9.8625 18.75 9.725 18.725 9.5875L19.9625 10.825C19.9875 10.55 20 10.275 20 10ZM10 15C7.2375 15 5 12.7625 5 10C5 7.2375 7.2375 5 10 5C12.7625 5 15 7.2375 15 10C15 12.7625 12.7625 15 10 15Z" fill="#0077C6"/>
        <path d="M10 6.25C7.9375 6.25 6.25 7.9375 6.25 10C6.25 12.0625 7.9375 13.75 10 13.75C12.0625 13.75 13.75 12.0625 13.75 10C13.75 7.9375 12.0625 6.25 10 6.25ZM8.025 10.0125C7.7 9.9125 7.5125 9.55 7.625 9.225C7.725 8.9 8.0875 8.725 8.4125 8.825C8.7375 8.9375 8.9125 9.2875 8.8125 9.6125C8.7 9.9375 8.35 10.125 8.025 10.0125ZM9.4 11.8875C9.2 12.1625 8.8125 12.225 8.525 12.025C8.25 11.825 8.1875 11.425 8.3875 11.15C8.6 10.875 8.9875 10.8125 9.2625 11.0125C9.55 11.2125 9.6125 11.6 9.4 11.8875ZM10 8.75C9.65 8.75 9.375 8.475 9.375 8.125C9.375 7.775 9.65 7.5 10 7.5C10.35 7.5 10.625 7.775 10.625 8.125C10.625 8.475 10.35 8.75 10 8.75ZM11.475 12.025C11.1875 12.225 10.8 12.1625 10.6 11.8875C10.3875 11.6 10.45 11.2125 10.7375 11.0125C11.0125 10.8125 11.4 10.875 11.6125 11.15C11.8125 11.425 11.75 11.825 11.475 12.025ZM11.975 10.0125C11.65 10.125 11.3 9.9375 11.1875 9.6125C11.0875 9.2875 11.2625 8.9375 11.5875 8.825C11.9125 8.725 12.275 8.9 12.375 9.225C12.4875 9.55 12.3 9.9125 11.975 10.0125Z" fill="#0077C6"/>
    </symbol>
    <symbol id="safety" viewBox="0 0 20 20" fill="none" xmlns="http://www.w3.org/2000/svg">
        <path d="M12.4959 2.53875V0.625C12.4959 0.28 12.2159 0 11.8709 0C11.5259 0 11.2459 0.28 11.2459 0.625V2.50375H3.74961V0.625C3.74961 0.28 3.46961 0 3.12461 0C2.77961 0 2.49961 0.28 2.49961 0.625V2.53875C1.21836 2.70875 0.207109 3.72125 0.0371094 5.00375H14.9621C14.7921 3.71875 13.7784 2.70625 12.4959 2.53875Z" fill="#0077C6"/>
        <path d="M15 10.0625V6.25378H0V14.6288C0 16.2138 1.29 17.5038 2.875 17.5038H10.345C10.135 16.9138 10 16.2875 10 15.625C10 12.7325 12.1912 10.3775 15 10.0625ZM3.74875 14.9988C3.05875 14.9988 2.5 14.44 2.5 13.75C2.5 13.06 3.05875 12.5013 3.74875 12.5013C4.43875 12.5013 4.99625 13.06 4.99625 13.75C4.99625 14.44 4.4375 14.9988 3.74875 14.9988ZM3.74875 11.25C3.05875 11.25 2.5 10.6913 2.5 10.0013C2.5 9.31128 3.05875 8.75253 3.74875 8.75253C4.43875 8.75253 4.99625 9.31253 4.99625 10.0013C4.99625 10.69 4.4375 11.25 3.74875 11.25ZM7.49875 11.25C6.80875 11.25 6.25 10.6913 6.25 10.0013C6.25 9.31128 6.80875 8.75253 7.49875 8.75253C8.18875 8.75253 8.74625 9.31253 8.74625 10.0013C8.74625 10.69 8.1875 11.25 7.49875 11.25Z" fill="#0077C6"/>
        <path d="M15.625 11.25C13.2088 11.25 11.25 13.2088 11.25 15.625C11.25 18.0412 13.2088 20 15.625 20C18.0412 20 20 18.0412 20 15.625C20 13.2088 18.0412 11.25 15.625 11.25ZM18.645 14.7213L16.145 18.4713C16.0288 18.645 15.8337 18.75 15.625 18.75C15.4163 18.75 15.2212 18.645 15.105 18.4713L12.605 14.7213C12.4137 14.435 12.4912 14.0462 12.7787 13.855C13.0625 13.665 13.4525 13.74 13.645 14.0287L15.625 16.9987L17.605 14.0287C17.7975 13.7412 18.1863 13.6662 18.4713 13.855C18.7588 14.0462 18.8363 14.435 18.645 14.7213Z" fill="#0077C6"/>
    </symbol>
    <symbol id="warning" viewBox="0 0 15 15" fill="none" xmlns="http://www.w3.org/2000/svg">
        <g clip-path="url(#clip0_59_445)">
        <path d="M14.7001 10.9292L9.44501 1.82685C8.58665 0.323179 6.41605 0.323179 5.56078 1.82685L0.302564 10.9292C-0.555794 12.4328 0.512523 14.3008 2.24468 14.3008H12.7395C14.4717 14.3008 15.5585 12.4143 14.7001 10.9292ZM7.49981 12.2815C7.04284 12.2815 6.66306 11.9018 6.66306 11.4448C6.66306 10.9878 7.04284 10.608 7.49981 10.608C7.95678 10.608 8.33655 10.9878 8.31803 11.4664C8.33964 11.9018 7.93825 12.2815 7.49981 12.2815ZM8.26245 6.87202C8.2254 7.52042 8.18526 8.16573 8.14821 8.81413C8.12968 9.02409 8.12968 9.21553 8.12968 9.4224C8.11116 9.76512 7.84253 10.0307 7.49981 10.0307C7.15708 10.0307 6.89155 9.78365 6.86993 9.44092C6.81436 8.43127 6.75569 7.44014 6.70011 6.43049C6.68159 6.16496 6.66306 5.89633 6.64145 5.6308C6.64145 5.19236 6.88846 4.8311 7.28985 4.71686C7.69124 4.62115 8.08954 4.81258 8.26245 5.19236C8.32111 5.32512 8.33964 5.45789 8.33964 5.61227C8.32111 6.03528 8.28098 6.45519 8.26245 6.87202Z" fill="#FC0000"/>
        </g>
        <defs>
        <clipPath id="clip0_59_445">
        <rect width="15" height="15" fill="white"/>
        </clipPath>
        </defs>
    </symbol>
    <symbol id="add" viewBox="0 0 15 15" fill="none" xmlns="http://www.w3.org/2000/svg">
        <path d="M7.5 0C3.36462 0 0 3.36433 0 7.5C0 11.6357 3.36462 15 7.5 15C11.6354 15 15 11.6357 15 7.5C15 3.36433 11.6354 0 7.5 0ZM11.1058 8.07692H8.07692V11.25C8.07692 11.5685 7.81846 11.8269 7.5 11.8269C7.18154 11.8269 6.92308 11.5685 6.92308 11.25V8.07692H3.89423C3.57577 8.07692 3.31731 7.81846 3.31731 7.5C3.31731 7.18154 3.57577 6.92308 3.89423 6.92308H6.92308V4.03846C6.92308 3.72 7.18154 3.46154 7.5 3.46154C7.81846 3.46154 8.07692 3.72 8.07692 4.03846V6.92308H11.1058C11.4242 6.92308 11.6827 7.18154 11.6827 7.5C11.6827 7.81846 11.4242 8.07692 11.1058 8.07692Z" fill="#0077C6"/>
    </symbol>
</svg>