<svg width="0" height="0" class="hidden">
    <symbol id="cancel-in-circle" viewBox="0 0 77 77" fill="none" xmlns="http://www.w3.org/2000/svg">
        <path d="M52.4224 29.9095C53.7185 28.7014 53.7901 26.6713 52.5818 25.3751C51.3739 24.0788 49.3437 24.0074 48.0475 25.2155L38.6596 33.9654L29.9097 24.5774C28.7015 23.2812 26.6714 23.2098 25.3752 24.4179C24.079 25.626 24.0075 27.6561 25.2156 28.9523L33.9655 38.3402L24.5775 47.0903C23.2813 48.2983 23.2099 50.3285 24.418 51.6247C25.6261 52.9208 27.6562 52.9924 28.9525 51.7841L38.3404 43.0343L47.0904 52.4223C48.2984 53.7184 50.3286 53.79 51.6248 52.5817C52.9209 51.3738 52.9925 49.3435 51.7842 48.0474L43.0345 38.6595L52.4224 29.9095Z" fill="#FC0000"/>
        <path fill-rule="evenodd" clip-rule="evenodd" d="M3.2085 38.5C3.2085 19.009 19.0091 3.20837 38.5002 3.20837C57.9911 3.20837 73.7918 19.009 73.7918 38.5C73.7918 57.991 57.9911 73.7917 38.5002 73.7917C19.0091 73.7917 3.2085 57.991 3.2085 38.5ZM38.5002 67.375C22.5529 67.375 9.62516 54.4474 9.62516 38.5C9.62516 22.5528 22.5529 9.62504 38.5002 9.62504C54.4475 9.62504 67.3752 22.5528 67.3752 38.5C67.3752 54.4474 54.4475 67.375 38.5002 67.375Z" fill="#FC0000"/>
    </symbol>
</svg>