<svg width="15" height="15" viewBox="0 0 15 15" fill="none" xmlns="http://www.w3.org/2000/svg">
<path d="M7.50172 0.287842C11.4852 0.287842 14.7144 3.51706 14.7144 7.5005C14.7144 11.4839 11.4852 14.7132 7.50172 14.7132C3.51828 14.7132 0.289062 11.4839 0.289062 7.5005C0.289062 3.51706 3.51828 0.287842 7.50172 0.287842ZM7.50172 1.36957C4.1157 1.36957 1.37079 4.11448 1.37079 7.5005C1.37079 10.8865 4.1157 13.6314 7.50172 13.6314C10.8877 13.6314 13.6326 10.8865 13.6326 7.5005C13.6326 4.11448 10.8877 1.36957 7.50172 1.36957ZM4.95009 9.5077C5.56245 10.2849 6.49347 10.7468 7.50171 10.7468C8.5086 10.7468 9.43851 10.2861 10.051 9.51071C10.2361 9.27629 10.5762 9.23635 10.8106 9.42149C11.045 9.60664 11.085 9.94675 10.8998 10.1812C10.0844 11.2136 8.84316 11.8286 7.50171 11.8286C6.15846 11.8286 4.91575 11.212 4.10041 10.1772C3.91554 9.94253 3.95588 9.60246 4.19052 9.41759C4.42515 9.23272 4.76522 9.27307 4.95009 9.5077ZM5.33858 5.15721C5.83615 5.15721 6.23951 5.56057 6.23951 6.05814C6.23951 6.55571 5.83615 6.95907 5.33858 6.95907C4.84101 6.95907 4.43765 6.55571 4.43765 6.05814C4.43765 5.56057 4.84101 5.15721 5.33858 5.15721ZM9.6655 5.15721C10.1631 5.15721 10.5664 5.56057 10.5664 6.05814C10.5664 6.55571 10.1631 6.95907 9.6655 6.95907C9.16793 6.95907 8.76457 6.55571 8.76457 6.05814C8.76457 5.56057 9.16793 5.15721 9.6655 5.15721Z" fill="#B0B0B0"/>
</svg>
