<svg width="15" height="15" viewBox="0 0 15 15" fill="none" xmlns="http://www.w3.org/2000/svg">
<path d="M13.9407 4.08032C13.8948 2.94781 13.4106 1.899 12.5768 1.12923C12.1829 0.766495 11.7348 0.484189 11.244 0.290513C10.7533 0.0984791 10.2346 0 9.70121 0C9.64376 0 9.58468 0.00164132 9.52723 0.00328264C8.39472 0.0492395 7.34756 0.533428 6.57614 1.36886L1.80155 6.52095C1.64891 6.68674 1.65711 6.94443 1.82125 7.0987L2.15279 7.41055C2.31857 7.56647 2.57954 7.55827 2.73546 7.39085L7.51334 2.23547C8.05825 1.6446 8.85757 1.30485 9.70449 1.30485C10.4661 1.30485 11.18 1.57566 11.7118 2.06806C12.2945 2.60641 12.6342 3.33844 12.6654 4.13284C12.6966 4.92559 12.4209 5.6806 11.8858 6.25998L5.39605 13.188C5.07107 13.5392 4.59673 13.7411 4.09285 13.7411C3.63984 13.7411 3.21474 13.5803 2.89797 13.2865C2.55165 12.9664 2.35141 12.5315 2.33007 12.0588C2.31038 11.5877 2.47451 11.138 2.79128 10.7949C2.79128 10.7949 8.83133 4.34949 8.84119 4.34128C9.36968 3.79308 10.1985 4.59076 9.67006 5.13897C8.77226 6.06959 6.46621 8.55947 5.33698 9.78225C5.18432 9.94804 5.19253 10.2057 5.35666 10.36L5.68821 10.6718C5.854 10.8278 6.11495 10.8196 6.27087 10.6522L10.6187 5.96455C11.3064 5.21939 11.2605 4.05241 10.5137 3.36306C10.1739 3.04957 9.72913 2.87559 9.26464 2.87559C9.01352 2.87559 8.77058 2.92483 8.5408 3.02331C8.30447 3.12343 8.09438 3.27115 7.92038 3.46154L1.859 9.92505C0.721564 11.1577 0.800347 13.0862 2.03298 14.2253C2.57461 14.7259 3.305 15 4.08955 15C4.96109 15 5.77682 14.657 6.3283 14.0595L12.8181 7.13151C13.5862 6.29773 13.985 5.21447 13.9407 4.08032Z" fill="#B0B0B0"/>
</svg>
