<svg width="0" height="0" class="hidden">
    <symbol id="owners" viewBox="0 0 30 30" fill="none" xmlns="http://www.w3.org/2000/svg">
        <g clip-path="url(#clip0_49_371)">
        <path d="M21.5625 7.5C18.9731 7.5 16.875 9.59812 16.875 12.1875C16.875 14.7769 18.9731 16.875 21.5625 16.875C24.1519 16.875 26.25 14.7769 26.25 12.1875C26.25 9.59812 24.1519 7.5 21.5625 7.5Z" fill="#AFB224"/>
        <path d="M21.5621 16.875C20.3846 16.875 19.2652 17.0925 18.2471 17.4825C19.7302 19.3894 20.6246 21.7762 20.6246 24.375C20.6246 25.0612 20.4258 25.6969 20.1033 26.25H28.1246C29.1596 26.25 29.9996 25.41 29.9996 24.375C29.9996 20.2387 26.2139 16.875 21.5621 16.875Z" fill="#AFB224"/>
        <path d="M16.53 18.39C14.8088 16.3369 12.2587 15 9.375 15C4.20563 15 0 19.2056 0 24.375C0 24.8925 0.21 25.3612 0.549375 25.7006C0.88875 26.04 1.3575 26.25 1.875 26.25H15H16.875C17.91 26.25 18.75 25.41 18.75 24.375C18.75 22.0894 17.895 20.0194 16.53 18.39Z" fill="#AFB224"/>
        <path d="M9.375 15C6.27375 15 3.75 12.4763 3.75 9.375C3.75 6.27375 6.27375 3.75 9.375 3.75C12.4763 3.75 15 6.27375 15 9.375C15 12.4763 12.4763 15 9.375 15Z" fill="#AFB224"/>
        </g>
        <defs>
        <clipPath id="clip0_49_371">
        <rect width="30" height="30" fill="white"/>
        </clipPath>
        </defs>
    </symbol>
    <symbol id="service-records" viewBox="0 0 30 30" fill="none" xmlns="http://www.w3.org/2000/svg">
        <g clip-path="url(#clip0_49_379)">
        <path d="M26.3213 4.6875C26.3213 4.17 26.7431 3.75 27.2644 3.75H30C29.5631 1.61062 27.66 0 25.3781 0C23.8406 0 22.4869 0.7425 21.6263 1.875H8.37562C7.515 0.7425 6.16125 0 4.62375 0C2.34 0 0.43875 1.61062 0 3.75H2.73563C3.25688 3.75 3.67875 4.17 3.67875 4.6875C3.67875 5.205 3.25688 5.625 2.73563 5.625H0C0.436875 7.76438 2.34 9.375 4.62187 9.375C6.15937 9.375 7.51312 8.6325 8.37375 7.5H21.6244C22.485 8.6325 23.8388 9.375 25.3763 9.375C27.66 9.375 29.5631 7.76438 30 5.625H27.2644C26.745 5.625 26.3213 5.205 26.3213 4.6875Z" fill="#5057FB"/>
        <path d="M29.9189 24.0938L28.9289 21.8494C28.8089 21.5737 28.5595 21.3713 28.2633 21.3113L20.4127 19.6875L16.1208 17.4338C15.4158 16.9781 14.1708 16.875 13.792 16.875H8.36766C7.45641 16.875 6.16828 17.5481 5.69016 17.8744C5.13328 18.2513 3.79266 19.32 3.32203 19.6987L1.17891 20.2125C0.755159 20.3156 0.458909 20.6944 0.460784 21.1275L0.473909 22.5H0.937034C1.45453 22.5 1.87453 22.92 1.87453 23.4375C1.87453 23.955 1.45453 24.375 0.937034 24.375H0.374534L0.0126586 26.4769C-0.0735914 26.9794 0.258284 27.4575 0.755159 27.555L3.74391 28.125H3.74953C3.74953 26.0531 5.42766 24.375 7.49954 24.375C9.57141 24.375 11.2495 26.0531 11.2495 28.125H18.7495C18.7495 26.0531 20.4277 24.375 22.4995 24.375C24.5714 24.375 26.2495 26.0531 26.2495 28.125H29.062C29.5795 28.125 29.9995 27.705 29.9995 27.1875V24.4725C29.9995 24.3412 29.9733 24.2119 29.9189 24.0938Z" fill="#5057FB"/>
        <path d="M7.5 30C8.53553 30 9.375 29.1605 9.375 28.125C9.375 27.0895 8.53553 26.25 7.5 26.25C6.46447 26.25 5.625 27.0895 5.625 28.125C5.625 29.1605 6.46447 30 7.5 30Z" fill="#5057FB"/>
        <path d="M22.5 30C23.5355 30 24.375 29.1605 24.375 28.125C24.375 27.0895 23.5355 26.25 22.5 26.25C21.4645 26.25 20.625 27.0895 20.625 28.125C20.625 29.1605 21.4645 30 22.5 30Z" fill="#5057FB"/>
        </g>
        <defs>
        <clipPath id="clip0_49_379">
        <rect width="30" height="30" fill="white"/>
        </clipPath>
        </defs>
    </symbol>
    <symbol id="personal-venhicle" viewBox="0 0 30 30" fill="none" xmlns="http://www.w3.org/2000/svg">
        <g clip-path="url(#clip0_49_389)">
        <path d="M29.9812 10.2056C29.9812 10.1306 29.9625 10.0556 29.925 9.96187C29.925 9.92437 29.8875 9.88687 29.8688 9.84937C29.8313 9.79312 29.7937 9.71812 29.7563 9.66187C29.7188 9.62437 29.6625 9.60562 29.625 9.56812C29.5875 9.53062 29.55 9.49312 29.5125 9.47437L15.45 1.96875C15.4125 1.95 15.375 1.95 15.3562 1.93125C15.3 1.9125 15.2438 1.89375 15.1688 1.89375C15.1125 1.875 15.0562 1.875 15 1.875C14.9438 1.875 14.8875 1.875 14.8312 1.89375C14.7562 1.89375 14.7 1.9125 14.6438 1.93125C14.625 1.95 14.5875 1.95 14.55 1.96875L0.4875 9.47437C0.45 9.49312 0.43125 9.53062 0.39375 9.54937C0.3375 9.58687 0.28125 9.62437 0.24375 9.68062C0.20625 9.71812 0.16875 9.77437 0.15 9.83062C0.1125 9.86812 0.075 9.92437 0.05625 9.98062C0.0375 10.0369 0.0375 10.1119 0.01875 10.1681C0.01875 10.2244 0 10.2619 0 10.2994V15.9281C0 16.4531 0.4125 16.8656 0.9375 16.8656H3.75V27.1875C3.75 27.7125 4.1625 28.125 4.6875 28.125H7.5V17.805C7.5 17.28 7.9125 16.8675 8.4375 16.8675H21.5625C21.825 16.8675 22.05 16.98 22.2188 17.13C22.3125 17.2237 22.3687 17.3175 22.425 17.43C22.4813 17.5425 22.5 17.6737 22.5 17.805V28.125H25.3125C25.8188 28.125 26.25 27.7125 26.25 27.1875V16.8675H29.0625C29.5875 16.8675 30 16.455 30 15.93V10.3931C30 10.3744 30 10.3744 30 10.3744V10.2994C30 10.2619 29.9812 10.2431 29.9812 10.2056ZM28.125 14.9906H26.25V12.1762C26.25 12.1575 26.2312 12.1387 26.2312 12.12C26.2312 12.0262 26.2125 11.9325 26.175 11.8387C26.175 11.8012 26.1562 11.7825 26.1375 11.745C26.1 11.67 26.0437 11.6137 25.9875 11.5387C25.9688 11.52 25.9313 11.4825 25.8938 11.4637C25.8375 11.4262 25.8188 11.3887 25.7625 11.3512L15.45 5.7225C15.4125 5.70375 15.3937 5.70375 15.3562 5.70375C15.3 5.66625 15.2438 5.6475 15.1688 5.6475C15.1125 5.62687 15.0562 5.62687 15 5.62687C14.9438 5.62687 14.8875 5.62687 14.8312 5.64562C14.7562 5.64562 14.7 5.66437 14.6438 5.70187C14.6062 5.70187 14.5875 5.70187 14.55 5.72062L4.2375 11.3494C4.2 11.3681 4.18125 11.4056 4.14375 11.4244C4.0875 11.4619 4.03125 11.4994 3.99375 11.5556C3.95625 11.5931 3.91875 11.6494 3.9 11.7056C3.8625 11.7619 3.825 11.7994 3.80625 11.8556C3.7875 11.9306 3.7875 11.9869 3.76875 12.0431C3.76875 12.0994 3.75 12.1369 3.75 12.1744V14.9887H1.875V10.8619L15 3.8625L28.125 10.8619V14.9906ZM9.375 22.4962V24.3731H20.625V22.4962H9.375ZM9.375 18.7425V20.6194H20.625V18.7425H9.375Z" fill="#0077C6"/>
        <path d="M20.625 26.2482H9.375V28.125H20.625V26.2482Z" fill="#0077C6"/>
        </g>
        <defs>
        <clipPath id="clip0_49_389">
        <rect width="30" height="30" fill="white"/>
        </clipPath>
        </defs>
    </symbol>
    <symbol id="odometr" viewBox="0 0 30 30" fill="none" xmlns="http://www.w3.org/2000/svg">
        <path d="M15 0C6.7125 0 0 6.7125 0 15C0 23.2875 6.7125 30 15 30C23.2875 30 30 23.2875 30 15C30 6.7125 23.2875 0 15 0ZM18.8812 6.4125L19.8187 4.78125C20.0625 4.33125 20.6437 4.18125 21.0938 4.44375C21.5438 4.70625 21.6938 5.26875 21.4313 5.71875L20.4938 7.35C20.325 7.65 20.0063 7.81875 19.6875 7.81875C19.5187 7.81875 19.3687 7.78125 19.2188 7.6875C18.7687 7.425 18.6187 6.8625 18.8812 6.4125ZM14.0625 3.75C14.0625 3.225 14.475 2.8125 15 2.8125C15.525 2.8125 15.9375 3.225 15.9375 3.75V5.625C15.9375 6.15 15.525 6.5625 15 6.5625C14.475 6.5625 14.0625 6.15 14.0625 5.625V3.75ZM15 11.7188C15.8625 11.7188 16.65 12.0562 17.25 12.6187L24.2625 8.56875C24.7125 8.30625 25.2938 8.45625 25.5562 8.90625C25.8188 9.35625 25.65 9.9375 25.2 10.1812L18.1875 14.25C18.2437 14.4937 18.2812 14.7375 18.2812 15C18.2812 16.8 16.8 18.2812 15 18.2812C13.2 18.2812 11.7188 16.8 11.7188 15C11.7188 13.2 13.2 11.7188 15 11.7188ZM2.8125 15C2.8125 14.475 3.225 14.0625 3.75 14.0625H5.625C6.15 14.0625 6.5625 14.475 6.5625 15C6.5625 15.525 6.15 15.9375 5.625 15.9375H3.75C3.225 15.9375 2.8125 15.525 2.8125 15ZM7.35 20.4938L5.71875 21.4313C5.5875 21.525 5.41875 21.5625 5.25 21.5625C4.93125 21.5625 4.6125 21.3937 4.44375 21.0938C4.18125 20.6437 4.33125 20.0812 4.78125 19.8187L6.4125 18.8812C6.8625 18.6187 7.425 18.7687 7.6875 19.2188C7.95 19.6688 7.8 20.2313 7.35 20.4938ZM7.6875 10.7812C7.51875 11.0813 7.2 11.25 6.88125 11.25C6.7125 11.25 6.5625 11.2125 6.4125 11.1187L4.78125 10.1812C4.33125 9.91875 4.18125 9.35625 4.44375 8.90625C4.70625 8.45625 5.26875 8.30625 5.71875 8.56875L7.35 9.50625C7.8 9.76875 7.95 10.3313 7.6875 10.7812ZM10.7812 7.6875C10.6313 7.78125 10.4812 7.81875 10.3125 7.81875C9.99375 7.81875 9.675 7.65 9.50625 7.35L8.56875 5.71875C8.30625 5.26875 8.45625 4.70625 8.90625 4.44375C9.35625 4.18125 9.91875 4.33125 10.1812 4.78125L11.1187 6.4125C11.3812 6.8625 11.2312 7.425 10.7812 7.6875ZM17.8125 26.25H12.1875C11.6625 26.25 11.25 25.8375 11.25 25.3125C11.25 24.7875 11.6625 24.375 12.1875 24.375H17.8125C18.3375 24.375 18.75 24.7875 18.75 25.3125C18.75 25.8375 18.3375 26.25 17.8125 26.25ZM25.5562 21.0938C25.3875 21.3937 25.0688 21.5625 24.75 21.5625C24.5812 21.5625 24.4125 21.525 24.2812 21.4313L22.65 20.4938C22.2 20.2313 22.05 19.6688 22.3125 19.2188C22.5562 18.7687 23.1375 18.6187 23.5875 18.8812L25.2188 19.8187C25.6687 20.0812 25.8188 20.6437 25.5562 21.0938ZM26.25 15.9375H24.375C23.85 15.9375 23.4375 15.525 23.4375 15C23.4375 14.475 23.85 14.0625 24.375 14.0625H26.25C26.775 14.0625 27.1875 14.475 27.1875 15C27.1875 15.525 26.775 15.9375 26.25 15.9375ZM15 16.4062C15.7688 16.4062 16.4062 15.7688 16.4062 15C16.4062 14.2312 15.7688 13.5938 15 13.5938C14.2312 13.5938 13.5938 14.2312 13.5938 15C13.5938 15.7688 14.2312 16.4062 15 16.4062Z" fill="#AFB224"/>
    </symbol>
    <symbol id="check" viewBox="0 0 13 13" fill="none" xmlns="http://www.w3.org/2000/svg">
        <path d="M6.5 0C2.9159 0 0 2.9159 0 6.5C0 10.0841 2.9159 13 6.5 13C10.0841 13 13 10.0841 13 6.5C13 2.9159 10.0841 0 6.5 0ZM6.5 11.8182C3.56752 11.8182 1.18182 9.43245 1.18182 6.5C1.18182 3.56755 3.56752 1.18182 6.5 1.18182C9.43248 1.18182 11.8182 3.56755 11.8182 6.5C11.8182 9.43245 9.43245 11.8182 6.5 11.8182Z" fill="#6AC355"/>
        <path d="M8.93723 4.20187L5.59449 7.54455L4.06245 6.01249C3.83172 5.78176 3.45756 5.78172 3.22679 6.01245C2.99602 6.24322 2.99602 6.61734 3.22679 6.84811L5.17664 8.79803C5.28745 8.90884 5.43774 8.97113 5.59445 8.97113C5.59449 8.97113 5.59445 8.97113 5.59449 8.97113C5.7512 8.97113 5.90149 8.90884 6.0123 8.79807L9.7729 5.03757C10.0037 4.8068 10.0037 4.43267 9.7729 4.20191C9.54213 3.97114 9.168 3.9711 8.93723 4.20187Z" fill="#6AC355"/>
    </symbol>
    <symbol id="warning" viewBox="0 0 13 13" fill="none" xmlns="http://www.w3.org/2000/svg">
        <path d="M8.85 5.04964C9.06883 4.84567 9.08091 4.50292 8.87692 4.28408C8.67298 4.06524 8.33021 4.05318 8.11138 4.25714L6.52641 5.73439L5.04915 4.1494C4.84518 3.93057 4.50243 3.91851 4.28359 4.12247C4.06475 4.32644 4.05269 4.66919 4.25665 4.88803L5.7339 6.473L4.14892 7.95029C3.93008 8.15423 3.91802 8.497 4.12198 8.71583C4.32595 8.93466 4.6687 8.94674 4.88754 8.74275L6.47251 7.26552L7.9498 8.85049C8.15374 9.06932 8.49651 9.0814 8.71534 8.87741C8.93417 8.67347 8.94625 8.3307 8.74226 8.11187L7.26503 6.5269L8.85 5.04964Z" fill="#FC0000"/>
        <path fill-rule="evenodd" clip-rule="evenodd" d="M0.541992 6.49996C0.541992 3.20926 3.20963 0.541626 6.50033 0.541626C9.791 0.541626 12.4587 3.20926 12.4587 6.49996C12.4587 9.79064 9.791 12.4583 6.50033 12.4583C3.20963 12.4583 0.541992 9.79064 0.541992 6.49996ZM6.50033 11.375C3.80794 11.375 1.62533 9.19237 1.62533 6.49996C1.62533 3.80757 3.80794 1.62496 6.50033 1.62496C9.19273 1.62496 11.3753 3.80757 11.3753 6.49996C11.3753 9.19237 9.19273 11.375 6.50033 11.375Z" fill="#FC0000"/>
    </symbol>
    <symbol id="ownership" viewBox="0 0 30 30" fill="none" xmlns="http://www.w3.org/2000/svg">
        <path d="M21.5625 7.5C18.9731 7.5 16.875 9.59812 16.875 12.1875C16.875 14.7769 18.9731 16.875 21.5625 16.875C24.1519 16.875 26.25 14.7769 26.25 12.1875C26.25 9.59812 24.1519 7.5 21.5625 7.5Z" fill="#0077C6"/>
        <path d="M21.5621 16.875C20.3846 16.875 19.2652 17.0925 18.2471 17.4825C19.7302 19.3894 20.6246 21.7762 20.6246 24.375C20.6246 25.0612 20.4258 25.6969 20.1033 26.25H28.1246C29.1596 26.25 29.9996 25.41 29.9996 24.375C29.9996 20.2387 26.2139 16.875 21.5621 16.875Z" fill="#0077C6"/>
        <path d="M16.53 18.39C14.8088 16.3369 12.2587 15 9.375 15C4.20563 15 0 19.2056 0 24.375C0 24.8925 0.21 25.3612 0.549375 25.7006C0.88875 26.04 1.3575 26.25 1.875 26.25H15H16.875C17.91 26.25 18.75 25.41 18.75 24.375C18.75 22.0894 17.895 20.0194 16.53 18.39Z" fill="#0077C6"/>
        <path d="M9.375 15C6.27375 15 3.75 12.4762 3.75 9.375C3.75 6.27375 6.27375 3.75 9.375 3.75C12.4762 3.75 15 6.27375 15 9.375C15 12.4762 12.4762 15 9.375 15Z" fill="#0077C6"/>
    </symbol>
    <symbol id="additional" viewBox="0 0 30 30" fill="none" xmlns="http://www.w3.org/2000/svg">
        <g clip-path="url(#clip0_49_425)">
        <path d="M18.75 0C14.6062 0 11.25 3.35625 11.25 7.5C11.25 11.6438 14.6062 15 18.75 15C22.8938 15 26.25 11.6438 26.25 7.5C26.25 3.35625 22.8938 0 18.75 0ZM22.35 5.6625L19.0688 10.8188C19.0125 10.9125 18.9187 11.0062 18.8062 11.0812C18.8062 11.1 18.7875 11.1 18.7688 11.1C18.6188 11.1938 18.4688 11.25 18.3 11.25C18.2813 11.25 18.2812 11.25 18.2812 11.25C18.1125 11.25 17.9625 11.1937 17.8125 11.1187C17.8125 11.1 17.7937 11.1188 17.775 11.1C17.6625 11.025 17.5875 10.95 17.5125 10.8375L15.2438 7.55625C14.9625 7.14375 15.075 6.5625 15.4875 6.2625C15.9188 5.9625 16.5 6.075 16.8 6.50625L18.2437 8.60625L20.775 4.65C21.0562 4.21875 21.6375 4.0875 22.0688 4.36875C22.5 4.65 22.6313 5.23125 22.35 5.6625Z" fill="#0077C6"/>
        <path d="M7.5 30C8.53553 30 9.375 29.1605 9.375 28.125C9.375 27.0895 8.53553 26.25 7.5 26.25C6.46447 26.25 5.625 27.0895 5.625 28.125C5.625 29.1605 6.46447 30 7.5 30Z" fill="#0077C6"/>
        <path d="M22.5 30C23.5355 30 24.375 29.1605 24.375 28.125C24.375 27.0895 23.5355 26.25 22.5 26.25C21.4645 26.25 20.625 27.0895 20.625 28.125C20.625 29.1605 21.4645 30 22.5 30Z" fill="#0077C6"/>
        <path d="M29.9189 24.0938L28.9289 21.8494C28.8089 21.5737 28.5595 21.3713 28.2633 21.3113L20.4127 19.6875L16.1208 17.4338C15.4158 16.9781 14.1708 16.875 13.792 16.875H8.36766C7.45641 16.875 6.16828 17.5481 5.69016 17.8744C5.13328 18.2513 3.79266 19.32 3.32203 19.6987L1.17891 20.2125C0.755159 20.3156 0.458909 20.6944 0.460784 21.1275L0.473909 22.5H0.937034C1.45453 22.5 1.87453 22.92 1.87453 23.4375C1.87453 23.955 1.45453 24.375 0.937034 24.375H0.374534L0.0126586 26.4769C-0.0735914 26.9794 0.258284 27.4575 0.755159 27.555L3.74391 28.125H3.74953C3.74953 26.0531 5.42766 24.375 7.49953 24.375C9.57141 24.375 11.2495 26.0531 11.2495 28.125H18.7495C18.7495 26.0531 20.4277 24.375 22.4995 24.375C24.5714 24.375 26.2495 26.0531 26.2495 28.125H29.062C29.5795 28.125 29.9995 27.705 29.9995 27.1875V24.4725C29.9995 24.3412 29.9733 24.2119 29.9189 24.0938Z" fill="#0077C6"/>
        </g>
        <defs>
        <clipPath id="clip0_49_425">
        <rect width="30" height="30" fill="white"/>
        </clipPath>
        </defs>
    </symbol>
    <symbol id="owner" viewBox="0 0 30 30" fill="none" xmlns="http://www.w3.org/2000/svg">
        <g clip-path="url(#clip0_49_1349)">
        <path d="M21.5625 7.5C18.9731 7.5 16.875 9.59812 16.875 12.1875C16.875 14.7769 18.9731 16.875 21.5625 16.875C24.1519 16.875 26.25 14.7769 26.25 12.1875C26.25 9.59812 24.1519 7.5 21.5625 7.5Z" fill="#0077C6"/>
        <path d="M21.563 16.875C20.3855 16.875 19.2662 17.0925 18.248 17.4825C19.7312 19.3894 20.6255 21.7762 20.6255 24.375C20.6255 25.0612 20.4268 25.6969 20.1043 26.25H28.1256C29.1606 26.25 30.0006 25.41 30.0006 24.375C30.0006 20.2387 26.2149 16.875 21.563 16.875Z" fill="#0077C6"/>
        <path d="M16.53 18.39C14.8088 16.3369 12.2587 15 9.375 15C4.20563 15 0 19.2056 0 24.375C0 24.8925 0.21 25.3612 0.549375 25.7006C0.88875 26.04 1.3575 26.25 1.875 26.25H15H16.875C17.91 26.25 18.75 25.41 18.75 24.375C18.75 22.0894 17.895 20.0194 16.53 18.39Z" fill="#0077C6"/>
        <path d="M9.375 15C6.27375 15 3.75 12.4762 3.75 9.375C3.75 6.27375 6.27375 3.75 9.375 3.75C12.4762 3.75 15 6.27375 15 9.375C15 12.4762 12.4762 15 9.375 15Z" fill="#0077C6"/>
        </g>
        <defs>
        <clipPath id="clip0_49_1349">
        <rect width="30" height="30" fill="white"/>
        </clipPath>
        </defs>
    </symbol>
    <symbol id="fuel" viewBox="0 0 30 30" fill="none" xmlns="http://www.w3.org/2000/svg">
        <path d="M15 5.625H9.375V11.25H15V5.625Z" fill="#0077C6"/>
        <path d="M27.8512 9.64313L24.0938 5.88562C23.7281 5.52 23.1337 5.52 22.7681 5.88562C22.4025 6.25125 22.4025 6.84562 22.7681 7.21125L26.25 10.6931V21.555C26.25 22.0725 25.8281 22.4925 25.3125 22.4925C24.7969 22.4925 24.375 22.0725 24.375 21.555V14.055C24.375 12.5044 23.1131 11.2425 21.5625 11.2425H20.625V3.75C20.625 1.6875 18.9375 0 16.875 0H7.5C5.4375 0 3.75 1.6875 3.75 3.75V28.125H2.8125C2.2875 28.125 1.875 28.5375 1.875 29.0625C1.875 29.5875 2.2875 30 2.8125 30H21.5625C22.0875 30 22.5 29.5875 22.5 29.0625C22.5 28.5375 22.0875 28.125 21.5625 28.125H20.625V13.1175H21.5625C22.0781 13.1175 22.5 13.5375 22.5 14.055V21.555C22.5 23.1056 23.7619 24.3675 25.3125 24.3675C26.8631 24.3675 28.125 23.1056 28.125 21.555V10.305C28.125 10.0556 28.0256 9.8175 27.8512 9.64313ZM7.5 4.6875C7.5 4.1625 7.9125 3.75 8.4375 3.75H15.9375C16.4625 3.75 16.875 4.1625 16.875 4.6875V12.1875C16.875 12.7125 16.4625 13.125 15.9375 13.125H8.4375C7.9125 13.125 7.5 12.7125 7.5 12.1875V4.6875Z" fill="#0077C6"/>
    </symbol>
    <symbol id="detailed" viewBox="0 0 30 30" fill="none" xmlns="http://www.w3.org/2000/svg">
        <g clip-path="url(#clip0_49_353)">
        <path d="M29.9189 24.0938L28.9289 21.8494C28.8089 21.5737 28.5595 21.3713 28.2633 21.3113L20.4127 19.6875L16.1208 17.4338C15.4158 16.9781 14.1708 16.875 13.792 16.875H8.36766C7.45641 16.875 6.16828 17.5481 5.69016 17.8744C5.13328 18.2513 3.79266 19.32 3.32203 19.6987L1.17891 20.2125C0.755159 20.3156 0.458909 20.6944 0.460784 21.1275L0.473909 22.5H0.937034C1.45453 22.5 1.87453 22.92 1.87453 23.4375C1.87453 23.955 1.45453 24.375 0.937034 24.375H0.374534L0.0126586 26.4769C-0.0735914 26.9794 0.258284 27.4575 0.755159 27.555L3.74391 28.125H3.74953C3.74953 26.0531 5.42766 24.375 7.49954 24.375C9.57141 24.375 11.2495 26.0531 11.2495 28.125H18.7495C18.7495 26.0531 20.4277 24.375 22.4995 24.375C24.5714 24.375 26.2495 26.0531 26.2495 28.125H29.062C29.5795 28.125 29.9995 27.705 29.9995 27.1875V24.4725C29.9995 24.3412 29.9733 24.2119 29.9189 24.0938Z" fill="#0077C6"/>
        <path d="M7.5 30C8.53553 30 9.375 29.1605 9.375 28.125C9.375 27.0895 8.53553 26.25 7.5 26.25C6.46447 26.25 5.625 27.0895 5.625 28.125C5.625 29.1605 6.46447 30 7.5 30Z" fill="#0077C6"/>
        <path d="M22.5 30C23.5355 30 24.375 29.1605 24.375 28.125C24.375 27.0895 23.5355 26.25 22.5 26.25C21.4645 26.25 20.625 27.0895 20.625 28.125C20.625 29.1605 21.4645 30 22.5 30Z" fill="#0077C6"/>
        <path d="M28.545 12.2869L22.0125 9.02063C22.3219 8.25937 22.5 7.4325 22.5 6.5625C22.5 2.94375 19.5563 0 15.9375 0C12.3188 0 9.375 2.94375 9.375 6.5625C9.375 10.1812 12.3188 13.125 15.9375 13.125C18.0113 13.125 19.8413 12.1388 21.045 10.6331L27.7069 13.9631C27.8419 14.0306 27.9844 14.0625 28.125 14.0625C28.4681 14.0625 28.7981 13.8713 28.9631 13.545C29.1938 13.0819 29.0081 12.5194 28.545 12.2869ZM15.9375 10.3125C13.8694 10.3125 12.1875 8.63062 12.1875 6.5625C12.1875 6.045 12.6075 5.625 13.125 5.625C13.6425 5.625 14.0625 6.045 14.0625 6.5625C14.0625 7.59562 14.9025 8.4375 15.9375 8.4375C16.455 8.4375 16.875 8.8575 16.875 9.375C16.875 9.8925 16.455 10.3125 15.9375 10.3125Z" fill="#0077C6"/>
        </g>
        <defs>
        <clipPath id="clip0_49_353">
        <rect width="30" height="30" fill="white"/>
        </clipPath>
        </defs>
    </symbol>
    <symbol id="arrow-down" viewBox="0 0 16 10" fill="none" xmlns="http://www.w3.org/2000/svg">
        <path d="M1 1L8 8L15 1" stroke="#0077C6" stroke-width="2"/>
    </symbol>
    <symbol id="service" viewBox="0 0 20 20" fill="none" xmlns="http://www.w3.org/2000/svg">
        <g clip-path="url(#clip0_49_1413)">
        <path d="M16.6617 14.3736L12.5096 10.2215L15.8797 6.8514C16.974 7.10548 18.1697 6.81397 19.024 5.95975C19.9589 5.02567 20.2154 3.68235 19.8227 2.50754L18.236 4.09339C17.6747 4.65637 16.7481 4.63884 16.1637 4.05443C15.5817 3.47155 15.5635 2.54497 16.1239 1.98296L17.7098 0.397118C16.5375 0.00194378 15.1949 0.26006 14.2584 1.19582C13.4057 2.04767 13.1152 3.24321 13.37 4.33926L9.99984 7.70854L6.63126 4.33996C6.88534 3.24488 6.5923 2.0492 5.74045 1.19568C4.80636 0.260755 3.46388 0.00347438 2.28907 0.396144L3.87492 1.98282C4.43707 2.54414 4.42037 3.47155 3.83512 4.05513C3.25224 4.63801 2.32734 4.6554 1.76366 4.09492L0.177672 2.50838C-0.215832 3.68152 0.0414483 5.02581 0.97804 5.96059C1.82906 6.81411 3.0246 7.10381 4.12149 6.85057L7.48993 10.2182L3.33865 14.3695C2.58309 14.3171 1.81097 14.5679 1.2356 15.1466C0.174472 16.206 0.174472 17.9246 1.2356 18.9858C2.29339 20.0444 4.01281 20.0444 5.07227 18.9858C5.64931 18.4087 5.89921 17.6358 5.85107 16.8802L9.99984 12.7298L14.152 16.8819C14.1005 17.6374 14.3521 18.4104 14.9291 18.9866C15.9877 20.0469 17.708 20.0469 18.7674 18.9866C19.8269 17.9271 19.8269 16.2085 18.7674 15.1483C18.1903 14.5714 17.4173 14.3206 16.6617 14.3736ZM3.52191 18.4453L2.14116 18.0767L1.7734 16.696L2.78221 15.6855L4.16295 16.0549L4.53238 17.4348L3.52191 18.4453ZM17.8573 18.0792L16.4774 18.447L15.4669 17.4365L15.8355 16.0566L17.2162 15.6872L18.2275 16.6976L17.8573 18.0792Z" fill="#0077C6"/>
        </g>
        <defs>
        <clipPath id="clip0_49_1413">
        <rect width="20" height="20" fill="white"/>
        </clipPath>
        </defs>
    </symbol>
    <symbol id="danger" viewBox="0 0 20 20" fill="none" xmlns="http://www.w3.org/2000/svg">
        <g clip-path="url(#clip0_49_1623)">
        <path d="M19.6002 14.5722L12.5933 2.4358C11.4489 0.430905 8.55474 0.430905 7.41438 2.4358L0.403419 14.5722C-0.741059 16.5771 0.683363 19.0678 2.9929 19.0678H16.986C19.2955 19.0678 20.7447 16.5524 19.6002 14.5722ZM9.99974 16.3754C9.39045 16.3754 8.88408 15.869 8.88408 15.2597C8.88408 14.6504 9.39045 14.1441 9.99974 14.1441C10.609 14.1441 11.1154 14.6504 11.0907 15.2885C11.1195 15.869 10.5843 16.3754 9.99974 16.3754ZM11.0166 9.1627C10.9672 10.0272 10.9137 10.8876 10.8643 11.7522C10.8396 12.0321 10.8396 12.2874 10.8396 12.5632C10.8149 13.0202 10.4567 13.3742 9.99974 13.3742C9.54278 13.3742 9.18873 13.0449 9.15991 12.5879C9.08581 11.2417 9.00759 9.92019 8.93348 8.57399C8.90878 8.21994 8.88408 7.86178 8.85527 7.50773C8.85527 6.92314 9.18461 6.44147 9.7198 6.28915C10.255 6.16153 10.7861 6.41677 11.0166 6.92314C11.0948 7.10017 11.1195 7.27719 11.1195 7.48303C11.0948 8.04704 11.0413 8.60692 11.0166 9.1627Z" fill="#FC0000"/>
        </g>
        <defs>
        <clipPath id="clip0_49_1623">
        <rect width="20" height="20" fill="white"/>
        </clipPath>
        </defs>
    </symbol>
</svg>
