<svg width="0" height="0" class="hidden">
    <symbol id="odometr" viewBox="0 0 50 50" fill="none" xmlns="http://www.w3.org/2000/svg">
        <path d="M25 0C11.1875 0 0 11.1875 0 25C0 38.8125 11.1875 50 25 50C38.8125 50 50 38.8125 50 25C50 11.1875 38.8125 0 25 0ZM31.4688 10.6875L33.0312 7.96875C33.4375 7.21875 34.4062 6.96875 35.1562 7.40625C35.9062 7.84375 36.1562 8.78125 35.7188 9.53125L34.1562 12.25C33.875 12.75 33.3438 13.0312 32.8125 13.0312C32.5312 13.0312 32.2812 12.9688 32.0312 12.8125C31.2812 12.375 31.0312 11.4375 31.4688 10.6875ZM23.4375 6.25C23.4375 5.375 24.125 4.6875 25 4.6875C25.875 4.6875 26.5625 5.375 26.5625 6.25V9.375C26.5625 10.25 25.875 10.9375 25 10.9375C24.125 10.9375 23.4375 10.25 23.4375 9.375V6.25ZM25 19.5312C26.4375 19.5312 27.75 20.0938 28.75 21.0312L40.4375 14.2813C41.1875 13.8438 42.1562 14.0938 42.5938 14.8438C43.0312 15.5938 42.75 16.5625 42 16.9688L30.3125 23.75C30.4062 24.1562 30.4688 24.5625 30.4688 25C30.4688 28 28 30.4688 25 30.4688C22 30.4688 19.5312 28 19.5312 25C19.5312 22 22 19.5312 25 19.5312ZM4.6875 25C4.6875 24.125 5.375 23.4375 6.25 23.4375H9.375C10.25 23.4375 10.9375 24.125 10.9375 25C10.9375 25.875 10.25 26.5625 9.375 26.5625H6.25C5.375 26.5625 4.6875 25.875 4.6875 25ZM12.25 34.1562L9.53125 35.7188C9.3125 35.875 9.03125 35.9375 8.75 35.9375C8.21875 35.9375 7.6875 35.6562 7.40625 35.1562C6.96875 34.4062 7.21875 33.4688 7.96875 33.0312L10.6875 31.4688C11.4375 31.0312 12.375 31.2812 12.8125 32.0312C13.25 32.7812 13 33.7188 12.25 34.1562ZM12.8125 17.9688C12.5312 18.4688 12 18.75 11.4688 18.75C11.1875 18.75 10.9375 18.6875 10.6875 18.5312L7.96875 16.9688C7.21875 16.5312 6.96875 15.5938 7.40625 14.8438C7.84375 14.0938 8.78125 13.8438 9.53125 14.2813L12.25 15.8438C13 16.2812 13.25 17.2188 12.8125 17.9688ZM17.9688 12.8125C17.7188 12.9688 17.4688 13.0312 17.1875 13.0312C16.6562 13.0312 16.125 12.75 15.8438 12.25L14.2813 9.53125C13.8438 8.78125 14.0938 7.84375 14.8438 7.40625C15.5938 6.96875 16.5312 7.21875 16.9688 7.96875L18.5312 10.6875C18.9688 11.4375 18.7188 12.375 17.9688 12.8125ZM29.6875 43.75H20.3125C19.4375 43.75 18.75 43.0625 18.75 42.1875C18.75 41.3125 19.4375 40.625 20.3125 40.625H29.6875C30.5625 40.625 31.25 41.3125 31.25 42.1875C31.25 43.0625 30.5625 43.75 29.6875 43.75ZM42.5938 35.1562C42.3125 35.6562 41.7812 35.9375 41.25 35.9375C40.9688 35.9375 40.6875 35.875 40.4688 35.7188L37.75 34.1562C37 33.7188 36.75 32.7812 37.1875 32.0312C37.5938 31.2812 38.5625 31.0312 39.3125 31.4688L42.0312 33.0312C42.7812 33.4688 43.0312 34.4062 42.5938 35.1562ZM43.75 26.5625H40.625C39.75 26.5625 39.0625 25.875 39.0625 25C39.0625 24.125 39.75 23.4375 40.625 23.4375H43.75C44.625 23.4375 45.3125 24.125 45.3125 25C45.3125 25.875 44.625 26.5625 43.75 26.5625ZM25 27.3438C26.2812 27.3438 27.3438 26.2812 27.3438 25C27.3438 23.7188 26.2812 22.6562 25 22.6562C23.7188 22.6562 22.6562 23.7188 22.6562 25C22.6562 26.2812 23.7188 27.3438 25 27.3438Z" fill="#AFB224"/>
    </symbol>
    <symbol id="distance" viewBox="0 0 22 8" fill="none" xmlns="http://www.w3.org/2000/svg">
        <path d="M1 0V7H6M21 0V7H16M11 7V3.66667M11 7H6M11 7H16M6 7V3.66667M16 7V3.66667" stroke="#0077C6" stroke-width="2"/>
    </symbol>
    <symbol id="speed" viewBox="0 0 20 20" fill="none" xmlns="http://www.w3.org/2000/svg">
        <path d="M10 2.49121C4.475 2.49121 0 6.96621 0 12.4912C0 13.8162 0.2625 15.0975 0.725 16.2587C0.9 16.6962 1.1125 17.1087 1.35 17.5087H18.65C18.8875 17.1087 19.1 16.6962 19.275 16.2587C19.7375 15.0962 20 13.815 20 12.4912C20 6.96621 15.525 2.49121 10 2.49121ZM2.1 16.2587C1.55 15.1212 1.25 13.8287 1.25 12.4912C1.25 7.66621 5.175 3.74121 10 3.74121C14.825 3.74121 18.75 7.66621 18.75 12.4912C18.75 13.8287 18.45 15.1225 17.9 16.2587H2.1Z" fill="#0077C6"/>
        <path d="M10 6.86621C10.345 6.86621 10.625 6.58621 10.625 6.24121V4.99121C10.625 4.64621 10.345 4.36621 10 4.36621C9.655 4.36621 9.375 4.64621 9.375 4.99121V6.24121C9.375 6.58621 9.655 6.86621 10 6.86621Z" fill="#0077C6"/>
        <path d="M5.19156 6.76741C4.94781 6.52366 4.55156 6.52366 4.30781 6.76741C4.06406 7.01116 4.06406 7.40741 4.30781 7.65116L5.19156 8.53491C5.43531 8.77866 5.83156 8.77866 6.07531 8.53491C6.31906 8.29116 6.31906 7.89491 6.07531 7.65116L5.19156 6.76741Z" fill="#0077C6"/>
        <path d="M17.5 11.8662H16.25C15.905 11.8662 15.625 12.1462 15.625 12.4912C15.625 12.8362 15.905 13.1162 16.25 13.1162H17.5C17.845 13.1162 18.125 12.8362 18.125 12.4912C18.125 12.1462 17.845 11.8662 17.5 11.8662Z" fill="#0077C6"/>
        <path d="M3.75 11.8662H2.5C2.155 11.8662 1.875 12.1462 1.875 12.4912C1.875 12.8362 2.155 13.1162 2.5 13.1162H3.75C4.095 13.1162 4.375 12.8362 4.375 12.4912C4.375 12.1462 4.095 11.8662 3.75 11.8662Z" fill="#0077C6"/>
        <path d="M15.7886 7.58241C16.0323 7.33866 16.0323 6.94241 15.7886 6.69866C15.5448 6.45366 15.1486 6.45491 14.9048 6.69866L11.0248 10.5787C10.7123 10.4037 10.3623 10.3037 9.9873 10.3037C8.7873 10.3037 7.7998 11.2912 7.7998 12.4912C7.7998 13.7037 8.7873 14.6962 9.9873 14.6962C11.1998 14.6962 12.1748 13.7024 12.1748 12.4912C12.1748 12.1174 12.0873 11.7699 11.9011 11.4699L15.7886 7.58241ZM9.9873 13.4287C9.4748 13.4287 9.0498 13.0162 9.0498 12.4912C9.0498 11.9787 9.4748 11.5537 9.9873 11.5537C10.5123 11.5537 10.9248 11.9787 10.9248 12.4912C10.9248 13.0162 10.5123 13.4287 9.9873 13.4287Z" fill="#0077C6"/>
    </symbol>
    <symbol id="slope" viewBox="0 0 20 20" fill="none" xmlns="http://www.w3.org/2000/svg">
        <path fill-rule="evenodd" clip-rule="evenodd" d="M16.3639 0H20.0003V3.63636H18.7879L18.7879 16.7879V18.7879H16.7879H3.63636V20H0V16.3636H3.03037L16.3639 3.03005V0ZM5.43455 16.7879L16.7879 5.43447L16.7879 14.0455H14.2422H13.7422V14.5455V16.7879H5.43455ZM14.7422 16.7879H16.7879V15.0455H14.7422V16.7879Z" fill="#0077C6"/>
    </symbol>
</svg>