<svg width="0" height="0" class="hidden">
    <symbol id="mastercard" viewBox="0 0 25 25" fill="none" xmlns="http://www.w3.org/2000/svg">
        <path d="M4.54466 22.1202V20.834C4.54466 20.3409 4.24453 20.0193 3.73001 20.0193C3.47276 20.0193 3.19407 20.1051 3.00112 20.3838C2.85106 20.148 2.63668 20.0193 2.31511 20.0193C2.10073 20.0193 1.88635 20.0836 1.71485 20.3195V20.0622H1.26465V22.1202H1.71485V20.984C1.71485 20.6196 1.90779 20.4481 2.20792 20.4481C2.50805 20.4481 2.65812 20.641 2.65812 20.984V22.1202H3.10831V20.984C3.10831 20.6196 3.32269 20.4481 3.60139 20.4481C3.90152 20.4481 4.05158 20.641 4.05158 20.984V22.1202H4.54466ZM11.2119 20.0622H10.483V19.4405H10.0328V20.0622H9.62546V20.4695H10.0328V21.4128C10.0328 21.8844 10.2257 22.1631 10.7402 22.1631C10.9332 22.1631 11.1476 22.0988 11.2976 22.0131L11.169 21.6272C11.0404 21.7129 10.8903 21.7344 10.7831 21.7344C10.5687 21.7344 10.483 21.6057 10.483 21.3914V20.4695H11.2119V20.0622ZM15.0278 20.0193C14.7706 20.0193 14.5991 20.148 14.4919 20.3195V20.0622H14.0417V22.1202H14.4919V20.9626C14.4919 20.6196 14.6419 20.4266 14.9206 20.4266C15.0064 20.4266 15.1136 20.4481 15.1993 20.4695L15.328 20.0408C15.2422 20.0193 15.1136 20.0193 15.0278 20.0193ZM9.26101 20.2337C9.04663 20.0836 8.7465 20.0193 8.42493 20.0193C7.91042 20.0193 7.56741 20.2766 7.56741 20.6839C7.56741 21.0269 7.82467 21.2199 8.27486 21.2842L8.48924 21.3056C8.72506 21.3485 8.85369 21.4128 8.85369 21.52C8.85369 21.6701 8.68218 21.7772 8.38205 21.7772C8.08192 21.7772 7.8461 21.6701 7.69604 21.5629L7.48166 21.9059C7.71748 22.0774 8.03905 22.1631 8.36061 22.1631C8.96088 22.1631 9.30389 21.8844 9.30389 21.4985C9.30389 21.1341 9.02519 20.9412 8.59643 20.8768L8.38205 20.8554C8.18911 20.834 8.03905 20.7911 8.03905 20.6625C8.03905 20.5124 8.18911 20.4266 8.42493 20.4266C8.68218 20.4266 8.93944 20.5338 9.06807 20.5982L9.26101 20.2337ZM21.2234 20.0193C20.9661 20.0193 20.7946 20.148 20.6874 20.3195V20.0622H20.2372V22.1202H20.6874V20.9626C20.6874 20.6196 20.8375 20.4266 21.1162 20.4266C21.202 20.4266 21.3091 20.4481 21.3949 20.4695L21.5235 20.0408C21.4378 20.0193 21.3091 20.0193 21.2234 20.0193ZM15.478 21.0912C15.478 21.7129 15.9068 22.1631 16.5714 22.1631C16.8715 22.1631 17.0859 22.0988 17.3002 21.9273L17.0859 21.5629C16.9144 21.6915 16.7429 21.7558 16.5499 21.7558C16.1855 21.7558 15.9282 21.4985 15.9282 21.0912C15.9282 20.7053 16.1855 20.4481 16.5499 20.4266C16.7429 20.4266 16.9144 20.491 17.0859 20.6196L17.3002 20.2551C17.0859 20.0836 16.8715 20.0193 16.5714 20.0193C15.9068 20.0193 15.478 20.4695 15.478 21.0912ZM19.637 21.0912V20.0622H19.1868V20.3195C19.0367 20.1265 18.8223 20.0193 18.5436 20.0193C17.9648 20.0193 17.5146 20.4695 17.5146 21.0912C17.5146 21.7129 17.9648 22.1631 18.5436 22.1631C18.8438 22.1631 19.0582 22.0559 19.1868 21.863V22.1202H19.637V21.0912ZM17.9863 21.0912C17.9863 20.7268 18.2221 20.4266 18.608 20.4266C18.9724 20.4266 19.2297 20.7053 19.2297 21.0912C19.2297 21.4557 18.9724 21.7558 18.608 21.7558C18.2221 21.7344 17.9863 21.4557 17.9863 21.0912ZM12.6053 20.0193C12.0051 20.0193 11.5763 20.4481 11.5763 21.0912C11.5763 21.7344 12.0051 22.1631 12.6268 22.1631C12.9269 22.1631 13.227 22.0774 13.4629 21.8844L13.2485 21.5629C13.077 21.6915 12.8626 21.7772 12.6482 21.7772C12.3695 21.7772 12.0908 21.6486 12.0265 21.2842H13.5486V21.1127C13.57 20.4481 13.1842 20.0193 12.6053 20.0193ZM12.6053 20.4052C12.884 20.4052 13.077 20.5767 13.1198 20.8983H12.0479C12.0908 20.6196 12.2838 20.4052 12.6053 20.4052ZM23.7745 21.0912V19.2476H23.3243V20.3195C23.1743 20.1265 22.9599 20.0193 22.6812 20.0193C22.1024 20.0193 21.6522 20.4695 21.6522 21.0912C21.6522 21.7129 22.1024 22.1631 22.6812 22.1631C22.9813 22.1631 23.1957 22.0559 23.3243 21.863V22.1202H23.7745V21.0912ZM22.1238 21.0912C22.1238 20.7268 22.3596 20.4266 22.7455 20.4266C23.1099 20.4266 23.3672 20.7053 23.3672 21.0912C23.3672 21.4557 23.1099 21.7558 22.7455 21.7558C22.3596 21.7344 22.1238 21.4557 22.1238 21.0912ZM7.07434 21.0912V20.0622H6.62414V20.3195C6.47407 20.1265 6.25969 20.0193 5.981 20.0193C5.40218 20.0193 4.95198 20.4695 4.95198 21.0912C4.95198 21.7129 5.40218 22.1631 5.981 22.1631C6.28113 22.1631 6.49551 22.0559 6.62414 21.863V22.1202H7.07434V21.0912ZM5.40218 21.0912C5.40218 20.7268 5.63799 20.4266 6.02388 20.4266C6.38832 20.4266 6.64558 20.7053 6.64558 21.0912C6.64558 21.4557 6.38832 21.7558 6.02388 21.7558C5.63799 21.7344 5.40218 21.4557 5.40218 21.0912Z" fill="black"/>
        <path d="M15.8643 4.43396H9.11133V16.5678H15.8643V4.43396Z" fill="#FF5F00"/>
        <path d="M9.53989 10.5009C9.53989 8.03551 10.6975 5.84883 12.4769 4.43393C11.1692 3.4049 9.51846 2.7832 7.71767 2.7832C3.45151 2.7832 0 6.23472 0 10.5009C0 14.767 3.45151 18.2185 7.71767 18.2185C9.51846 18.2185 11.1692 17.5968 12.4769 16.5678C10.6975 15.1743 9.53989 12.9662 9.53989 10.5009Z" fill="#EB001B"/>
        <path d="M24.9752 10.5009C24.9752 14.767 21.5237 18.2185 17.2575 18.2185C15.4567 18.2185 13.806 17.5968 12.4983 16.5678C14.2991 15.1529 15.4353 12.9662 15.4353 10.5009C15.4353 8.03551 14.2776 5.84883 12.4983 4.43393C13.806 3.4049 15.4567 2.7832 17.2575 2.7832C21.5237 2.7832 24.9752 6.25615 24.9752 10.5009Z" fill="#F79E1B"/>
    </symbol>
    <symbol id="visa" viewBox="0 0 25 25" fill="none" xmlns="http://www.w3.org/2000/svg">
        <path d="M1.28205 4.48718H23.718C24.426 4.48718 25 5.06119 25 5.76923V19.2308C25 19.9389 24.426 20.5128 23.718 20.5128H1.28205C0.574006 20.5128 0 19.9389 0 19.2308V5.76923C0 5.06119 0.574006 4.48718 1.28205 4.48718Z" fill="#0E4595"/>
        <path d="M9.39778 15.6645L10.467 9.39011H12.1773L11.1073 15.6645H9.39778ZM17.2859 9.52537C16.9471 9.39825 16.4161 9.26184 15.7532 9.26184C14.0633 9.26184 12.8729 10.1128 12.8628 11.3325C12.8532 12.2341 13.7126 12.737 14.3612 13.0371C15.027 13.3447 15.2507 13.5408 15.2476 13.8154C15.2434 14.236 14.716 14.4281 14.2245 14.4281C13.5399 14.4281 13.1763 14.333 12.6146 14.0988L12.3942 13.9991L12.1542 15.4037C12.5536 15.5788 13.2923 15.7305 14.0593 15.7384C15.857 15.7384 17.024 14.8972 17.0373 13.5947C17.0437 12.881 16.5881 12.3378 15.6014 11.89C15.0036 11.5998 14.6376 11.406 14.6414 11.1122C14.6414 10.8514 14.9513 10.5725 15.6208 10.5725C16.1801 10.5638 16.5853 10.6858 16.9009 10.8128L17.0541 10.8853L17.2859 9.52537ZM21.6869 9.39001H20.3653C19.956 9.39001 19.6496 9.50178 19.4698 9.91034L16.9299 15.6604H18.7258C18.7258 15.6604 19.0194 14.8872 19.0858 14.7175C19.2821 14.7175 21.0267 14.7202 21.2761 14.7202C21.3273 14.9398 21.4841 15.6604 21.4841 15.6604H23.0711L21.6869 9.38982V9.39001ZM19.5902 13.4416C19.7316 13.0801 20.2716 11.6877 20.2716 11.6877C20.2614 11.7044 20.4119 11.3244 20.4983 11.0888L20.6138 11.6298C20.6138 11.6298 20.9414 13.1276 21.0098 13.4416H19.5902ZM7.94592 9.39001L6.27156 13.6689L6.09314 12.7993C5.78144 11.797 4.81028 10.711 3.72461 10.1673L5.25557 15.6545L7.06506 15.6525L9.75749 9.38995H7.94592" fill="white"/>
        <path d="M4.70875 9.38965H1.95103L1.9292 9.5202C4.07465 10.0396 5.49426 11.2947 6.08369 12.8026L5.48401 9.91924C5.38048 9.52196 5.08026 9.4034 4.70882 9.38953" fill="#F2AE14"/>
    </symbol>
    <symbol id="americanexpress" viewBox="0 0 25 25" fill="none" xmlns="http://www.w3.org/2000/svg">
        <path d="M25 19.6427C25 20.4589 24.3384 21.1206 23.5222 21.1206H1.47778C0.661621 21.1206 0 20.4589 0 19.6427V5.35735C0 4.54119 0.661621 3.87952 1.47778 3.87952H23.5222C24.3384 3.87952 25 4.54119 25 5.35735V19.6427Z" fill="#306FC5"/>
        <path opacity="0.15" d="M1.05063 19.6427V5.35735C1.05063 4.54119 1.71235 3.87952 2.52852 3.87952H1.47773C0.661621 3.87952 0 4.54114 0 5.35735V19.6427C0 20.459 0.661621 21.1206 1.47778 21.1206H2.52856C1.7124 21.1206 1.05063 20.4589 1.05063 19.6427Z" fill="#202121"/>
        <path d="M3.64209 10.7786H4.38906L4.01567 9.82788L3.64209 10.7786Z" fill="white"/>
        <path d="M7.61475 13.9701V14.4115H8.87105V14.887H7.61475V15.3964H9.00679L9.65186 14.6832L9.04077 13.9701H7.61475Z" fill="white"/>
        <path d="M17.4268 9.82788L17.0193 10.7786H17.8003L17.4268 9.82788Z" fill="white"/>
        <path d="M11.2476 15.6677V13.7324L10.3647 14.6832L11.2476 15.6677Z" fill="white"/>
        <path d="M12.9113 14.2758C12.8773 14.0721 12.7414 13.9701 12.5376 13.9701H11.8247V14.5812H12.5717C12.7754 14.5813 12.9113 14.4795 12.9113 14.2758Z" fill="white"/>
        <path d="M15.2875 14.5135C15.3555 14.4794 15.3895 14.3775 15.3895 14.2758C15.4235 14.1401 15.3555 14.0721 15.2875 14.0381C15.2198 14.0042 15.1178 14.0042 15.0161 14.0042H14.3369V14.5475H15.0161C15.1178 14.5475 15.2198 14.5475 15.2875 14.5135Z" fill="white"/>
        <path d="M20.1767 8.94519V9.35261L19.9731 8.94519H18.3775V9.35261L18.1737 8.94519H16.0008C15.6273 8.94519 15.3216 9.01316 15.0501 9.14895V8.94519H13.5224V8.97917V9.14895C13.3526 9.01321 13.1489 8.94519 12.8773 8.94519H7.41099L7.03735 9.79402L6.66396 8.94519H5.44175H4.93242V9.35261L4.76265 8.94519H4.72866H3.26875L2.5896 10.5409L1.80879 12.2724L1.79443 12.3065H1.80879H3.54038H3.56206L3.57437 12.2724L3.77817 11.7633H4.21953L4.42324 12.3065H6.39229V12.2724V11.899L6.56216 12.3064H7.54668L7.71636 11.899V12.2724V12.3065H8.49727H12.4018H12.4358V11.4237H12.5039C12.5717 11.4237 12.5717 11.4237 12.5717 11.5256V12.2725H15.0163V12.0688C15.22 12.1708 15.5253 12.2725 15.9328 12.2725H16.9515L17.1552 11.7294H17.6304L17.8341 12.2725H19.8033V11.933V11.7633L20.109 12.2725H20.1767H20.2108H21.7047V8.94519H20.1768H20.1767V8.94519ZM8.66714 11.7973H8.32754H8.12388V11.5937V9.92986L8.08989 10.0077V10.0068L7.30005 11.7973H7.27505H7.09346H6.79966L5.98486 9.92986V11.7973H4.83057L4.59292 11.288H3.43843L3.20073 11.7973H2.60391L3.6083 9.42058H4.45703L5.40767 11.6953V9.42058H5.61133H6.30718L6.32319 9.45461H6.32436L6.75273 10.3869L7.06035 11.0855L7.07124 11.0503L7.75024 9.42063H8.66709V11.7973H8.66714V11.7973ZM11.0099 9.92986H9.68574V10.3712H10.9759V10.8465H9.68574V11.322H11.0099V11.8311H9.10859V9.42063H11.0099V9.92986ZM13.4315 10.8053C13.4324 10.8061 13.4335 10.8067 13.4346 10.8074C13.4475 10.821 13.4584 10.8346 13.4678 10.8476C13.5329 10.9329 13.5854 11.0597 13.5881 11.2456C13.5883 11.2489 13.5884 11.252 13.5886 11.2552C13.5886 11.2571 13.589 11.2587 13.589 11.2606C13.589 11.2617 13.5889 11.2625 13.5889 11.2636C13.5896 11.2823 13.5901 11.3013 13.5901 11.322V11.7973H13.081V11.5256C13.081 11.3898 13.081 11.1861 12.979 11.0503C12.9469 11.0182 12.9144 10.997 12.8791 10.982C12.8282 10.949 12.7317 10.9485 12.5717 10.9485H11.9604V11.7973H11.3833V9.42063H12.6736C12.979 9.42063 13.1828 9.42063 13.3526 9.52249C13.5189 9.62239 13.6194 9.78806 13.6232 10.0504C13.6154 10.4117 13.3834 10.61 13.2167 10.6768C13.2167 10.6768 13.33 10.6996 13.4315 10.8053ZM14.5749 11.7973H13.9976V9.42058H14.5749V11.7973ZM21.1956 11.7973H20.4485L19.3621 9.99773V11.4916L19.3585 11.4881V11.7988H18.7849V11.7973H18.2077L18.004 11.2881H16.8155L16.6118 11.8312H15.9667C15.6953 11.8312 15.3556 11.7634 15.152 11.5596C14.9482 11.3559 14.8465 11.0843 14.8465 10.643C14.8465 10.3035 14.9143 9.96375 15.152 9.69221C15.3216 9.48835 15.6273 9.42063 16.0007 9.42063H16.544V9.92986H16.0007C15.797 9.92986 15.6953 9.9637 15.5592 10.0657C15.4576 10.1676 15.3896 10.3712 15.3896 10.6089C15.3896 10.8805 15.4236 11.0503 15.5592 11.1861C15.6613 11.2881 15.797 11.322 15.9667 11.322H16.2044L16.9852 9.45471H17.3249H17.8341L18.7849 11.7295V11.6135V10.8466V10.7788V9.45476H19.6336L20.618 11.1183V9.45476H21.1955V11.7974H21.1956V11.7973Z" fill="white"/>
        <path d="M12.9473 10.4104C12.9572 10.3998 12.9662 10.3878 12.9738 10.374C13.0046 10.3254 13.0399 10.2377 13.0209 10.118C13.0201 10.107 13.0181 10.0969 13.0157 10.087C13.0151 10.0843 13.0152 10.0819 13.0145 10.0792L13.0141 10.0792C12.9972 10.0211 12.9541 9.98533 12.9111 9.96365C12.843 9.92981 12.7412 9.92981 12.6394 9.92981H11.9602V10.4731H12.6394C12.7412 10.4731 12.8431 10.4731 12.9111 10.4391C12.9213 10.4339 12.9304 10.4269 12.9391 10.4189L12.9392 10.4194C12.9393 10.4193 12.9427 10.4157 12.9473 10.4104Z" fill="white"/>
        <path d="M23.1985 15.1926C23.1985 14.955 23.1307 14.7172 23.0289 14.5475V13.0197H23.0273V12.9177C23.0273 12.9177 21.6042 12.9177 21.3924 12.9177C21.1807 12.9177 20.9237 13.1214 20.9237 13.1214V12.9177H19.362C19.1242 12.9177 18.8188 12.9857 18.6829 13.1214V12.9177H15.8989V13.0197V13.1213C15.6953 12.9517 15.3215 12.9177 15.1519 12.9177H13.3185V13.0197V13.1213C13.1487 12.9516 12.7411 12.9176 12.5373 12.9176H10.5005L10.025 13.4269L9.58364 12.9176H9.4415H9.2102H6.52808V13.0196V13.2878V16.3469H9.51587L10.0068 15.8559L10.4323 16.3469H10.4664H12.188H12.266H12.3H12.3338V16.0074V15.5661H12.5037C12.7411 15.5661 13.0468 15.5661 13.2845 15.4641V16.3128V16.3809H14.8124V16.3128V15.4981H14.8801C14.9821 15.4981 14.9821 15.4981 14.9821 15.5999V16.3128V16.3809H19.5994C19.9052 16.3809 20.2106 16.3128 20.3803 16.177V16.3128V16.3809H21.8404C22.1458 16.3809 22.4516 16.3469 22.6553 16.2111C22.9679 16.0235 23.1649 15.6915 23.1942 15.2956C23.1956 15.2839 23.1973 15.2721 23.1983 15.2604L23.1963 15.2585C23.1976 15.2365 23.1985 15.2148 23.1985 15.1926ZM12.5037 14.9889H11.8245V15.0906V15.2944V15.4981V15.8716H10.7085L10.059 15.1246L10.0568 15.1271L10.025 15.0906L9.27812 15.8716H7.10522V13.495H9.31211L9.91504 14.1554L10.0418 14.2937L10.059 14.2759L10.7721 13.495H12.5715C12.9207 13.495 13.3118 13.5812 13.46 13.9365C13.4778 14.0069 13.4881 14.0851 13.4881 14.174C13.4881 14.853 13.0128 14.9889 12.5037 14.9889ZM15.8989 14.9549C15.9667 15.0565 16.0007 15.1926 16.0007 15.3964V15.8716H15.4236V15.5661C15.4236 15.4301 15.4236 15.1926 15.3216 15.0906C15.2539 14.9889 15.1179 14.9889 14.9143 14.9889H14.3032V15.8716H13.7261V13.461H15.0162C15.2876 13.461 15.5252 13.461 15.6953 13.5628C15.8649 13.6647 16.0007 13.8345 16.0007 14.1061C16.0007 14.4795 15.7631 14.6832 15.5933 14.7512C15.7631 14.8189 15.8649 14.887 15.8989 14.9549ZM18.2416 13.9701H16.9173V14.4115H18.2076V14.8869H16.9173V15.3623H18.2416V15.8716H16.3403V13.461H18.2416V13.9701ZM19.6675 15.8716H18.581V15.3624H19.6675C19.7692 15.3624 19.8373 15.3624 19.9053 15.2944C19.9393 15.2604 19.973 15.1926 19.973 15.1246C19.973 15.0566 19.9393 14.989 19.9053 14.955C19.8712 14.921 19.8032 14.887 19.7014 14.887C19.1582 14.8531 18.5131 14.887 18.5131 14.1402C18.5131 13.8006 18.7168 13.4271 19.328 13.4271H20.4483V14.0042H19.3959C19.2941 14.0042 19.2261 14.0042 19.1581 14.0382C19.0904 14.0722 19.0904 14.1402 19.0904 14.208C19.0904 14.3099 19.1581 14.3439 19.226 14.3776C19.2941 14.4116 19.3619 14.4116 19.4297 14.4116H19.7354C20.041 14.4116 20.2446 14.4795 20.3804 14.6154C20.4823 14.7173 20.5502 14.887 20.5502 15.1246C20.5502 15.6338 20.2447 15.8716 19.6675 15.8716ZM22.5874 15.6338C22.4518 15.7698 22.214 15.8716 21.8743 15.8716H20.7881V15.3624H21.8743C21.9762 15.3624 22.0442 15.3624 22.1121 15.2944C22.1459 15.2604 22.18 15.1926 22.18 15.1246C22.18 15.0566 22.1459 14.989 22.1121 14.955C22.0781 14.921 22.0103 14.887 21.9083 14.887C21.3653 14.8531 20.72 14.887 20.72 14.1402C20.72 13.8175 20.9046 13.526 21.36 13.4394C21.4144 13.4319 21.4719 13.4271 21.5349 13.4271H22.6554V14.0042H21.9083H21.6368H21.6028C21.5009 14.0042 21.4331 14.0042 21.3653 14.0382C21.3311 14.0722 21.2971 14.1402 21.2971 14.208C21.2971 14.3099 21.3311 14.3439 21.4331 14.3776C21.5009 14.4116 21.5688 14.4116 21.6368 14.4116H21.6706H21.9423C22.0907 14.4116 22.2029 14.4299 22.3056 14.466C22.3996 14.5 22.7109 14.6393 22.7806 15.0028C22.7866 15.0409 22.7911 15.0806 22.7911 15.1246C22.7911 15.3284 22.7231 15.4981 22.5874 15.6338Z" fill="white"/>
    </svg>
</svg>