<svg width="279" height="140" viewBox="0 0 279 140" fill="none" xmlns="http://www.w3.org/2000/svg">
<g clip-path="url(#clip0_49_1669)">
<path d="M0 54.2813C1.0878 49.1686 1.84926 44.0015 3.37218 38.9976C7.72339 24.9106 17.296 16.045 31.6006 12.5641C34.9728 11.7482 38.5625 11.5307 42.0979 11.4763C60.2642 11.2043 78.4848 11.0412 96.6511 10.9324C98.3372 10.9324 99.1531 10.2797 100.078 8.97434C101.709 6.68995 103.45 4.51435 105.462 2.55631C107.964 0.163145 111.173 -0.326366 115.253 0.163145C113.784 3.80728 112.37 7.12507 110.901 10.6604C111.554 10.7148 112.261 10.8236 112.914 10.8236C121.235 10.8236 129.557 10.9324 137.879 10.7692C142.502 10.6604 147.234 9.1919 151.748 9.79019C167.793 11.9114 183.838 10.3341 199.883 10.6604C215.276 10.9868 230.614 10.6604 246.006 11.0412C250.521 11.1499 255.198 12.0746 259.495 13.4343C266.946 15.8275 270.427 22.2455 272.331 29.153C274.452 36.9308 276.247 44.9806 277.009 52.9759C278.477 68.8578 278.531 84.7941 275.159 100.513C274.126 105.462 272.657 110.303 270.808 115.035C267.49 123.683 260.8 128.197 251.663 128.578C240.078 129.013 228.493 129.013 216.908 129.068C197.545 129.176 178.182 129.068 158.873 129.231C153.706 129.285 148.376 130.862 143.372 130.101C133.473 128.524 123.574 129.666 113.675 129.176C112.805 129.122 111.88 129.176 110.793 129.176C112.261 132.766 113.675 136.084 115.144 139.728C109.324 140.707 104.918 138.749 102.525 134.507C99.8058 129.72 96.216 129.013 91.2665 129.122C75.711 129.394 60.1554 129.394 44.5998 128.959C38.4538 128.796 32.0357 128.034 26.216 126.022C14.3046 121.942 7.01632 112.859 3.2634 101.002C1.84926 96.2704 1.0878 91.2121 0 86.317C0 75.6022 0 64.9417 0 54.2813ZM164.53 70.0544C164.53 65.812 164.149 61.5151 164.639 57.3271C165.183 52.2144 163.333 48.5159 159.58 45.3613C157.786 43.8384 155.882 43.0769 153.543 42.8049C149.409 42.3698 145.221 41.9347 141.305 40.7381C134.507 38.6713 127.98 35.5167 121.127 33.7762C105.68 29.8057 90.0155 26.4335 74.5144 22.735C72.5563 22.2455 71.7949 23.3333 71.3054 24.7475C68.8578 32.0901 65.8664 39.324 64.1803 46.8842C61.1344 60.4273 61.1888 74.2968 63.31 87.8943C64.7242 96.8687 68.2051 105.571 70.8702 114.382C71.4685 116.395 72.6651 117.863 75.2758 117.265C95.7265 112.805 116.286 108.78 135.921 101.111C140.653 99.2618 145.82 97.9021 150.824 97.7389C156.208 97.5757 159.744 95.4545 162.844 91.4841C163.986 90.0699 164.693 88.8189 164.639 86.9153C164.476 81.2587 164.53 75.6566 164.53 70.0544ZM235.291 105.462C241.492 108.127 247.366 110.684 253.24 113.186C255.361 114.056 256.993 113.403 258.081 111.5C261.834 104.864 265.695 98.1196 266.511 90.505C267.599 80.6604 268.089 70.7071 268.034 60.8081C267.98 49.2774 264.227 38.6713 258.298 28.7723C257.319 27.1406 256.014 25.944 254.11 26.7055C247.855 29.2074 241.709 31.9269 235.346 34.5921C247.42 58.3605 247.475 81.7482 235.291 105.462ZM110.031 16.1538C111.772 18.7102 112.914 20.7226 114.382 22.5175C115.144 23.4421 116.395 24.5299 117.483 24.6387C132.005 26.0528 146.581 27.3582 161.103 28.6635C161.756 28.7179 162.409 28.446 163.442 28.2828C161.375 24.8562 159.417 21.8104 157.622 18.7102C156.752 17.1328 155.664 16.6977 153.924 16.6977C141.577 16.5889 129.176 16.3714 116.83 16.2082C114.817 16.1538 112.751 16.1538 110.031 16.1538ZM163.551 111.772C161.375 111.663 159.961 111.391 158.547 111.5C145.929 112.587 133.364 114.002 120.746 114.709C114.382 115.035 113.131 119.984 109.759 124.118C125.369 123.792 140.163 123.52 155.012 123.139C155.719 123.139 156.643 122.65 157.024 122.106C159.145 118.842 161.158 115.579 163.551 111.772ZM169.588 17.1872C171.111 20.5594 172.525 23.4965 173.776 26.4879C174.483 28.2284 175.571 28.8267 177.529 28.7723C187.7 28.3372 197.925 28.0652 208.096 27.6845C213.916 27.467 214.134 27.0862 213.263 21.3209C212.937 19.1453 212.121 18.1119 209.728 18.0575C197.164 17.7855 184.654 17.296 172.145 16.9697C171.437 16.9153 170.785 17.0785 169.588 17.1872ZM169.534 122.976C171.383 122.976 172.688 123.03 174.048 122.976C185.253 122.704 196.457 122.432 207.607 122.051C212.72 121.888 212.828 123.302 213.481 116.612C213.807 112.968 213.753 112.696 210.054 112.533C198.85 112.043 187.7 111.663 176.496 111.391C175.68 111.391 174.538 112.207 174.157 112.914C172.58 115.96 171.274 119.169 169.534 122.976ZM6.25486 42.1523C9.40948 42.805 11.0412 41.4996 12.7817 39.8679C15.7187 37.0396 18.7646 34.1025 22.1368 31.8725C28.1197 27.8477 34.4289 24.3123 40.6294 20.5594C41.7716 19.8523 42.805 18.8733 44.0559 17.8943C37.6379 14.7397 24.3667 16.1538 18.819 20.9401C12.4553 26.4879 6.63559 32.634 6.25486 42.1523ZM43.5664 122.758C43.6208 122.486 43.6752 122.214 43.784 121.942C43.1313 121.399 42.4786 120.855 41.7716 120.365C37.1484 117.428 32.4709 114.491 27.7933 111.554C21.9736 107.964 15.6643 105.027 11.7483 98.9899C11.5851 98.7179 11.2587 98.3372 10.9324 98.2828C9.73582 97.9565 8.43046 97.3582 7.34266 97.6845C6.79876 97.8477 6.41803 99.697 6.47242 100.73C6.5812 102.199 6.90754 103.831 7.669 105.082C9.51826 108.182 11.3675 111.336 13.7063 114.056C18.7646 119.984 24.8019 124.064 33.1235 123.411C35.7343 123.193 38.345 123.302 40.9557 123.193C41.8803 123.248 42.6962 122.922 43.5664 122.758ZM246.224 16.9153C247.148 17.3504 247.91 17.7311 248.726 18.0575C253.403 20.0699 257.483 22.8438 260.42 26.9774C262.541 29.9689 264.172 33.3411 266.131 36.4413C266.946 37.8011 267.98 38.9976 268.959 40.303C269.176 40.1942 269.394 40.0311 269.612 39.9223C269.503 38.9433 269.557 37.9098 269.231 37.0396C267.49 32.0901 265.967 27.0862 263.846 22.2999C260.963 15.9363 251.772 13.1624 246.224 16.9153ZM269.666 100.132C269.34 99.9689 269.013 99.8601 268.632 99.697C265.695 104.375 262.867 109.215 259.713 113.784C256.449 118.462 251.336 120.8 245.952 123.248C253.838 126.838 262.051 123.357 264.608 115.851C265.75 112.424 267.11 109.106 268.252 105.68C268.85 103.885 269.231 101.981 269.666 100.132ZM237.086 22.5175C237.032 22.1367 237.032 21.8104 236.977 21.4297C233.225 20.9401 229.526 20.3962 225.773 20.0699C223.38 19.8523 223.054 21.8104 223.054 23.6053C223.054 25.5633 224.685 25.3457 225.828 25.1282C229.58 24.3667 233.333 23.3877 237.086 22.5175ZM236.869 118.679C236.977 118.298 237.032 117.863 237.141 117.483C233.279 116.667 229.417 115.688 225.501 115.035C224.74 114.926 223.108 116.014 223.108 116.503C223.108 117.972 223.108 120.093 225.501 119.876C229.308 119.658 233.116 119.114 236.869 118.679Z" fill="#333333"/>
</g>
<defs>
<clipPath id="clip0_49_1669">
<rect width="278.042" height="140" fill="white"/>
</clipPath>
</defs>
</svg>
