<svg width="0" height="0" class="hidden">
    <symbol id="preferencesArrow" viewBox="0 0 10 6" fill="none" xmlns="http://www.w3.org/2000/svg">
        <path d="M1 5.5L5 1.5L9 5.5" stroke="#272727"/>
    </symbol>
    <!-- Advantages block -->
    <symbol id="saveMoney" viewBox="0 0 40 40" fill="none" xmlns="http://www.w3.org/2000/svg">
        <path d="M40 9.01C40 6.795 38.205 5 35.99 5H19.025L11.2875 0.3575C10.8925 0.12 10.4475 0 10 0C9.6425 0 9.285 0.0775 8.9525 0.23C8.2025 0.5775 7.67 1.2725 7.535 2.0875L7.05 5H5C2.2375 5 0 7.2375 0 10V37.5C0 38.88 1.12 40 2.5 40H37.5C38.88 40 40 38.88 40 37.5V30H28.75C26.68 30 25 28.32 25 26.25C25 24.18 26.68 22.5 28.75 22.5H40V9.01ZM37.5 12.475V12.5H5C3.6225 12.5 2.5 11.3775 2.5 10C2.5 8.9625 3.1375 8.0725 4.04 7.695C4.335 7.57 4.66 7.5 5 7.5H6.6325L6.215 10H27.3575L23.1925 7.5H35.99C36.8225 7.5 37.5 8.1775 37.5 9.01V12.475Z" fill="#ED5C36"/>
        <path d="M31.25 27.5H28.75C28.06 27.5 27.5 26.94 27.5 26.25C27.5 25.56 28.06 25 28.75 25H31.25C31.94 25 32.5 25.56 32.5 26.25C32.5 26.94 31.94 27.5 31.25 27.5Z" fill="#ED5C36"/>
    </symbol>
    <symbol id="saveWheels" viewBox="0 0 40 40" fill="none" xmlns="http://www.w3.org/2000/svg">
        <g clip-path="url(#clip0_6_57)">
        <path d="M25 0C19.475 0 15 4.475 15 10C15 15.525 19.475 20 25 20C30.525 20 35 15.525 35 10C35 4.475 30.525 0 25 0ZM29.8 7.55L25.425 14.425C25.35 14.55 25.225 14.675 25.075 14.775C25.075 14.8 25.05 14.8 25.025 14.8C24.825 14.925 24.625 15 24.4 15C24.375 15 24.375 15 24.375 15C24.15 15 23.95 14.925 23.75 14.825C23.75 14.8 23.725 14.825 23.7 14.8C23.55 14.7 23.45 14.6 23.35 14.45L20.325 10.075C19.95 9.525 20.1 8.75 20.65 8.35C21.225 7.95 22 8.1 22.4 8.675L24.325 11.475L27.7 6.2C28.075 5.625 28.85 5.45 29.425 5.825C30 6.2 30.175 6.975 29.8 7.55Z" fill="#AFB224"/>
        <path d="M10 40C11.3807 40 12.5 38.8807 12.5 37.5C12.5 36.1193 11.3807 35 10 35C8.61929 35 7.5 36.1193 7.5 37.5C7.5 38.8807 8.61929 40 10 40Z" fill="#AFB224"/>
        <path d="M30 40C31.3807 40 32.5 38.8807 32.5 37.5C32.5 36.1193 31.3807 35 30 35C28.6193 35 27.5 36.1193 27.5 37.5C27.5 38.8807 28.6193 40 30 40Z" fill="#AFB224"/>
        <path d="M39.8926 32.125L38.5726 29.1325C38.4126 28.765 38.0801 28.495 37.6851 28.415L27.2176 26.25L21.4951 23.245C20.5551 22.6375 18.8951 22.5 18.3901 22.5H11.1576C9.94257 22.5 8.22507 23.3975 7.58757 23.8325C6.84507 24.335 5.05757 25.76 4.43007 26.265L1.57257 26.95C1.00757 27.0875 0.61257 27.5925 0.61507 28.17L0.63257 30H1.25007C1.94007 30 2.50007 30.56 2.50007 31.25C2.50007 31.94 1.94007 32.5 1.25007 32.5H0.50007L0.0175699 35.3025C-0.0974301 35.9725 0.34507 36.61 1.00757 36.74L4.99257 37.5H5.00007C5.00007 34.7375 7.23757 32.5 10.0001 32.5C12.7626 32.5 15.0001 34.7375 15.0001 37.5H25.0001C25.0001 34.7375 27.2376 32.5 30.0001 32.5C32.7626 32.5 35.0001 34.7375 35.0001 37.5H38.7501C39.4401 37.5 40.0001 36.94 40.0001 36.25V32.63C40.0001 32.455 39.9651 32.2825 39.8926 32.125Z" fill="#AFB224"/>
        </g>
        <defs>
        <clipPath id="clip0_6_57">
        <rect width="40" height="40" fill="white"/>
        </clipPath>
        </defs>
    </symbol>
    <symbol id="goodBargain" viewBox="0 0 40 40" fill="none" xmlns="http://www.w3.org/2000/svg">
        <path d="M30 0H10C7.2425 0 5 2.2425 5 5V35C5 37.7575 7.2425 40 10 40H30C32.7575 40 35 37.7575 35 35V5C35 2.2425 32.7575 0 30 0ZM28.75 32.5H18.75C18.06 32.5 17.5 31.94 17.5 31.25C17.5 30.56 18.06 30 18.75 30H28.75C29.44 30 30 30.56 30 31.25C30 31.94 29.44 32.5 28.75 32.5ZM28.75 25H18.75C18.06 25 17.5 24.44 17.5 23.75C17.5 23.06 18.06 22.5 18.75 22.5H28.75C29.44 22.5 30 23.06 30 23.75C30 24.44 29.44 25 28.75 25ZM28.75 17.5H18.75C18.06 17.5 17.5 16.94 17.5 16.25C17.5 15.56 18.06 15 18.75 15H28.75C29.44 15 30 15.56 30 16.25C30 16.94 29.44 17.5 28.75 17.5ZM28.75 10H18.75C18.06 10 17.5 9.44 17.5 8.75C17.5 8.06 18.06 7.5 18.75 7.5H28.75C29.44 7.5 30 8.06 30 8.75C30 9.44 29.44 10 28.75 10ZM13.75 10H11.25C10.56 10 10 9.44 10 8.75C10 8.06 10.56 7.5 11.25 7.5H13.75C14.44 7.5 15 8.06 15 8.75C15 9.44 14.44 10 13.75 10ZM13.75 17.5H11.25C10.56 17.5 10 16.94 10 16.25C10 15.56 10.56 15 11.25 15H13.75C14.44 15 15 15.56 15 16.25C15 16.94 14.44 17.5 13.75 17.5ZM13.75 25H11.25C10.56 25 10 24.44 10 23.75C10 23.06 10.56 22.5 11.25 22.5H13.75C14.44 22.5 15 23.06 15 23.75C15 24.44 14.44 25 13.75 25ZM13.75 32.5H11.25C10.56 32.5 10 31.94 10 31.25C10 30.56 10.56 30 11.25 30H13.75C14.44 30 15 30.56 15 31.25C15 31.94 14.44 32.5 13.75 32.5Z" fill="#0077C6"/>
    </symbol>
    <!-- Edn Advantages block -->
</svg>