<svg width="15" height="15" viewBox="0 0 15 15" fill="none" xmlns="http://www.w3.org/2000/svg">
    <path d="M7.5 5.625C7.31458 5.625 7.13332 5.57002 6.97915 5.467C6.82498 5.36399 6.70482 5.21757 6.63386 5.04627C6.56291 4.87496 6.54434 4.68646 6.58051 4.5046C6.61669 4.32275 6.70598 4.1557 6.83709 4.02459C6.9682 3.89348 7.13525 3.80419 7.3171 3.76801C7.49896 3.73184 7.68746 3.75041 7.85877 3.82136C8.03007 3.89232 8.17649 4.01248 8.2795 4.16665C8.38252 4.32082 8.4375 4.50208 8.4375 4.6875C8.4375 4.93614 8.33873 5.1746 8.16291 5.35041C7.9871 5.52623 7.74864 5.625 7.5 5.625Z" fill="#0077C6"/>
    <path d="M7.5 13.5938C6.29477 13.5938 5.11661 13.2364 4.1145 12.5668C3.11238 11.8972 2.33133 10.9455 1.87011 9.83198C1.40889 8.71849 1.28821 7.49324 1.52334 6.31117C1.75847 5.1291 2.33884 4.0433 3.19107 3.19107C4.0433 2.33884 5.1291 1.75847 6.31117 1.52334C7.49324 1.28821 8.71849 1.40889 9.83198 1.87011C10.9455 2.33133 11.8972 3.11238 12.5668 4.1145C13.2364 5.11661 13.5938 6.29477 13.5938 7.5C13.5938 9.11617 12.9517 10.6661 11.8089 11.8089C10.6661 12.9517 9.11617 13.5938 7.5 13.5938ZM7.5 2.34375C6.48019 2.34375 5.48328 2.64616 4.63534 3.21274C3.7874 3.77931 3.12651 4.58461 2.73625 5.52679C2.34598 6.46897 2.24387 7.50572 2.44283 8.50594C2.64178 9.50615 3.13287 10.4249 3.85398 11.146C4.5751 11.8671 5.49385 12.3582 6.49407 12.5572C7.49428 12.7561 8.53103 12.654 9.47321 12.2638C10.4154 11.8735 11.2207 11.2126 11.7873 10.3647C12.3538 9.51672 12.6563 8.51981 12.6563 7.5C12.6563 6.13248 12.113 4.82097 11.146 3.85398C10.179 2.887 8.86753 2.34375 7.5 2.34375Z" fill="#0077C6"/>
    <path d="M7.5 11.25C7.25136 11.25 7.0129 11.1512 6.83709 10.9754C6.66127 10.7996 6.5625 10.5611 6.5625 10.3125V7.5C6.5625 7.25136 6.66127 7.0129 6.83709 6.83709C7.0129 6.66127 7.25136 6.5625 7.5 6.5625C7.74864 6.5625 7.9871 6.66127 8.16291 6.83709C8.33873 7.0129 8.4375 7.25136 8.4375 7.5V10.3125C8.4375 10.5611 8.33873 10.7996 8.16291 10.9754C7.9871 11.1512 7.74864 11.25 7.5 11.25Z" fill="#0077C6"/>
</svg>