<svg width="23" height="23" viewBox="0 0 23 23" fill="none" xmlns="http://www.w3.org/2000/svg">
<g clip-path="url(#clip0_49_595)">
<path d="M0 16.9967C0 13.5977 0 10.2112 0 6.81222C0.0116103 6.79963 0.0232206 6.78704 0.0232206 6.77445C0.150934 5.94358 0.835941 5.26378 1.78799 5.30155C2.50782 5.32673 3.22766 5.30155 3.9475 5.30155C4.02877 5.30155 4.09843 5.30155 4.19132 5.30155C4.19132 5.16307 4.19132 5.06236 4.19132 4.97424C4.19132 3.62722 4.19132 2.2802 4.19132 0.933185C4.19132 0.253381 4.43513 -0.0109863 5.06209 -0.0109863C9.34629 -0.0109863 13.6305 -0.0109863 17.9031 -0.0109863C18.5416 -0.0109863 18.7855 0.240793 18.7855 0.933185C18.7855 2.29279 18.7855 3.63981 18.7855 4.99941C18.7855 5.08754 18.7855 5.18825 18.7855 5.28896C19.6098 5.28896 20.4109 5.28896 21.2004 5.28896C22.3034 5.28896 22.9884 6.01912 22.9884 7.21507C22.9884 10.3371 22.9884 13.4466 22.9884 16.5687C22.9884 17.752 22.3034 18.4948 21.2004 18.4948C20.4806 18.4948 19.7607 18.4948 19.0409 18.4948C18.9596 18.4948 18.8783 18.4948 18.7855 18.4948C18.7855 18.6207 18.7855 18.7214 18.7855 18.8095C18.7855 19.8921 18.7855 20.9748 18.7855 22.0448C18.7855 22.7121 18.5416 22.9764 17.9263 22.9764C13.6305 22.9764 9.33468 22.9764 5.03887 22.9764C4.43513 22.9764 4.19132 22.7121 4.19132 22.0448C4.19132 20.9622 4.19132 19.8795 4.19132 18.8095C4.19132 18.7088 4.19132 18.6207 4.19132 18.4948C4.08682 18.4948 4.00555 18.4948 3.92428 18.4948C3.18122 18.4948 2.43816 18.4948 1.70671 18.4948C1.2423 18.4948 0.824331 18.3437 0.487632 17.9786C0.220596 17.7268 0.104493 17.3618 0 16.9967ZM4.19132 16.9967C4.19132 16.8582 4.19132 16.7701 4.19132 16.6694C4.19132 15.5867 4.19132 14.5167 4.19132 13.434C4.19132 12.7794 4.43513 12.5024 5.05048 12.5024C9.34629 12.5024 13.6421 12.5024 17.9379 12.5024C18.5416 12.5024 18.7971 12.7668 18.7971 13.434C18.7971 14.5167 18.7971 15.6119 18.7971 16.6945C18.7971 16.7827 18.8087 16.8834 18.8087 16.9841C19.6214 16.9841 20.4225 16.9841 21.212 16.9841C21.5487 16.9841 21.6068 16.9211 21.6068 16.5561C21.6068 13.4466 21.6068 10.3371 21.6068 7.22766C21.6068 6.86258 21.5487 6.79963 21.2236 6.79963C14.7451 6.79963 8.26653 6.79963 1.77638 6.79963C1.45129 6.79963 1.39324 6.86258 1.39324 7.20248C1.39324 8.73833 1.39324 10.2868 1.39324 11.8226C1.39324 13.3962 1.39324 14.9699 1.39324 16.5435C1.39324 16.896 1.45129 16.9589 1.78799 16.9589C2.00858 16.9589 2.21757 16.9589 2.43816 16.9589C3.01868 16.9967 3.58758 16.9967 4.19132 16.9967ZM17.4038 14.0383C13.4563 14.0383 9.53205 14.0383 5.60777 14.0383C5.60777 16.5309 5.60777 18.9983 5.60777 21.4658C9.54366 21.4658 13.4679 21.4658 17.4038 21.4658C17.4038 18.9857 17.4038 16.5183 17.4038 14.0383ZM5.59616 5.30155C9.54366 5.30155 13.4679 5.30155 17.3806 5.30155C17.3806 4.03006 17.3806 2.78376 17.3806 1.52487C13.4447 1.52487 9.52044 1.52487 5.59616 1.52487C5.59616 2.78376 5.59616 4.03006 5.59616 5.30155Z" fill="#0077C6"/>
<path d="M18.1002 10.7257C17.5545 10.7257 17.1133 10.2473 17.1133 9.66822C17.1133 9.07654 17.5777 8.58557 18.1118 8.58557C18.6574 8.59816 19.087 9.07654 19.087 9.66822C19.087 10.2599 18.6458 10.7257 18.1002 10.7257Z" fill="#0077C6"/>
<path d="M11.4942 17.0076C10.4493 17.0076 9.40436 17.0076 8.34783 17.0076C7.82536 17.0076 7.48866 16.4663 7.68604 15.9627C7.81375 15.6354 8.06918 15.4969 8.38266 15.4969C9.32309 15.4969 10.2635 15.4969 11.2156 15.4969C12.3418 15.4969 13.4564 15.4969 14.5826 15.4969C15.1282 15.4969 15.4649 15.9879 15.3024 16.5041C15.1979 16.8188 14.9425 17.0076 14.6058 17.0076C13.5841 17.0076 12.5391 17.0076 11.4942 17.0076Z" fill="#0077C6"/>
<path d="M11.5169 18.4931C12.5618 18.4931 13.5951 18.4931 14.6401 18.4931C15.1625 18.4931 15.4992 19.0092 15.3134 19.5002C15.2206 19.752 15.058 19.9156 14.8026 19.966C14.7097 19.9911 14.6052 19.9911 14.5123 19.9911C12.5038 19.9911 10.4836 19.9911 8.47499 19.9911C8.34728 19.9911 8.21957 19.9786 8.10346 19.9408C7.8016 19.8401 7.61583 19.4876 7.65066 19.1603C7.68549 18.8078 7.94092 18.5182 8.26601 18.4931C8.50982 18.4805 8.74203 18.4805 8.98584 18.4805C9.82179 18.4931 10.6693 18.4931 11.5169 18.4931Z" fill="#0077C6"/>
</g>
<defs>
<clipPath id="clip0_49_595">
<rect width="23" height="23" fill="white"/>
</clipPath>
</defs>
</svg>