<svg width="0" height="0" class="hidden">
    <symbol id="check-in-circle" viewBox="0 0 70 70" fill="none" xmlns="http://www.w3.org/2000/svg">
        <path d="M35 0C15.701 0 0 15.701 0 35C0 54.299 15.701 70 35 70C54.299 70 70 54.299 70 35C70 15.701 54.299 0 35 0ZM35 63.6364C19.2097 63.6364 6.36364 50.7901 6.36364 35C6.36364 19.2099 19.2097 6.36364 35 6.36364C50.7903 6.36364 63.6364 19.2099 63.6364 35C63.6364 50.7901 50.7901 63.6364 35 63.6364Z" fill="#0077C6"/>
        <path d="M48.1243 22.6256L30.125 40.6247L21.8755 32.3751C20.6331 31.1327 18.6184 31.1325 17.3758 32.3749C16.1332 33.6175 16.1332 35.632 17.3758 36.8746L27.875 47.3741C28.4717 47.9708 29.2809 48.3062 30.1247 48.3062C30.125 48.3062 30.1247 48.3062 30.125 48.3062C30.9688 48.3062 31.778 47.9708 32.3747 47.3744L52.6241 27.1255C53.8667 25.8829 53.8667 23.8684 52.6241 22.6258C51.3815 21.3832 49.3669 21.383 48.1243 22.6256Z" fill="#0077C6"/>
    </symbol>
</svg>