<svg width="0" height="0" class="hidden">
    <symbol id="eye" viewBox="0 0 20 20" fill="none" xmlns="http://www.w3.org/2000/svg">
        <path d="M9.82831 7.25392C8.3869 7.25392 7.21112 8.48439 7.21112 10C7.21112 11.5117 8.383 12.7461 9.82831 12.7461C11.2697 12.7461 12.4455 11.5156 12.4455 10C12.4455 8.48829 11.2697 7.25392 9.82831 7.25392Z" fill="#0077C6"/>
        <path d="M9.82825 14.3399C7.50793 14.3399 5.61731 12.3945 5.61731 10C5.61731 7.60548 7.50793 5.66017 9.82825 5.66017C12.1486 5.66017 14.0392 7.60548 14.0392 10C14.0392 12.3945 12.1486 14.3399 9.82825 14.3399ZM19.4493 9.57814C16.9572 5.57814 13.5978 3.37502 10.0001 3.37502C6.40247 3.37502 3.04309 5.57814 0.550903 9.57814C0.390747 9.83595 0.390747 10.1641 0.550903 10.4219C3.04309 14.4219 6.40247 16.625 10.0001 16.625C13.5978 16.625 16.9532 14.4219 19.4493 10.4219C19.6095 10.1641 19.6095 9.83595 19.4493 9.57814Z" fill="#0077C6"/>
    </symbol>
    <symbol id="google" viewBox="0 0 20 20" fill="none" xmlns="http://www.w3.org/2000/svg">
        <path d="M4.3885 8.13711C5.16566 5.78219 7.37871 4.09091 10 4.09091C11.4091 4.09091 12.6818 4.59091 13.6818 5.40909L16.5909 2.5C14.8182 0.954545 12.5455 0 10 0C6.05839 0 2.66479 2.24858 1.03333 5.54169L4.3885 8.13711Z" fill="#EA4335"/>
        <path d="M13.3672 15.0105C12.4591 15.5969 11.305 15.9091 9.99997 15.9091C7.38871 15.9091 5.18257 14.2307 4.39745 11.8899L1.03119 14.4458C2.66063 17.7447 6.05414 20 9.99997 20C12.444 20 14.7794 19.1312 16.5285 17.4996L13.3672 15.0105Z" fill="#34A853"/>
        <path d="M16.5285 17.4997C18.3576 15.7934 19.5455 13.2531 19.5455 10C19.5455 9.4091 19.4545 8.77273 19.3182 8.18182H10V12.0455H15.3636C15.099 13.3447 14.3886 14.351 13.3673 15.0105L16.5285 17.4997Z" fill="#4A90E2"/>
        <path d="M4.39749 11.8899C4.19861 11.2969 4.09091 10.6615 4.09091 10C4.09091 9.34857 4.19536 8.72234 4.3885 8.13711L1.03333 5.54169C0.363823 6.88369 0 8.39615 0 10C0 11.5996 0.370651 13.1085 1.03122 14.4458L4.39749 11.8899Z" fill="#FBBC05"/>
    </symbol>
    <symbol id="facebook" viewBox="0 0 20 20" fill="none" xmlns="http://www.w3.org/2000/svg">
        <path d="M10 20C15.5228 20 20 15.5228 20 10C20 4.47715 15.5228 0 10 0C4.47715 0 0 4.47715 0 10C0 15.5228 4.47715 20 10 20Z" fill="white"/>
        <path d="M13.7181 11.9846H11.6418V20H8.49612V11.9846H7V9.16766H8.49612V7.34478C8.49612 6.04123 9.08374 4 11.6698 4L14 4.01027V6.74459H12.3093C12.032 6.74459 11.6421 6.89059 11.6421 7.51242V9.17028H13.9929L13.7181 11.9846Z" fill="#3B5998"/>
    </symbol>
    <symbol id="apple" viewBox="0 0 20 20" fill="none" xmlns="http://www.w3.org/2000/svg">
        <path d="M13.8488 0C13.8954 0 13.9419 0 13.9911 0C14.1053 1.41044 13.5669 2.46432 12.9126 3.22751C12.2706 3.98542 11.3915 4.7205 9.96967 4.60897C9.87482 3.21872 10.4141 2.24301 11.0675 1.48158C11.6734 0.771967 12.7844 0.140517 13.8488 0Z" fill="white"/>
        <path d="M18.1531 14.6805C18.1531 14.6946 18.1531 14.7069 18.1531 14.7201C17.7535 15.9303 17.1835 16.9675 16.4879 17.93C15.853 18.8038 15.0748 19.9798 13.6855 19.9798C12.4849 19.9798 11.6875 19.2078 10.4571 19.1868C9.15555 19.1657 8.4398 19.8323 7.24979 20C7.11366 20 6.97754 20 6.84405 20C5.9702 19.8735 5.26498 19.1815 4.75122 18.5579C3.23626 16.7154 2.06558 14.3354 1.84778 11.2897C1.84778 10.9911 1.84778 10.6934 1.84778 10.3948C1.93999 8.21499 2.99914 6.44272 4.40695 5.58381C5.14993 5.12712 6.17132 4.73807 7.30863 4.91196C7.79605 4.98749 8.29401 5.15435 8.73049 5.31946C9.14414 5.47842 9.66142 5.76033 10.1515 5.7454C10.4834 5.73574 10.8137 5.56273 11.1483 5.44065C12.1284 5.08673 13.0892 4.68098 14.3556 4.87156C15.8776 5.10166 16.9578 5.7779 17.6252 6.82124C16.3377 7.64063 15.3199 8.87542 15.4938 10.9841C15.6483 12.8995 16.7619 14.0201 18.1531 14.6805Z" fill="white"/>
    </symbol>
</svg>