<svg width="0" height="0" class="hidden">
    <symbol id="profile" viewBox="0 0 15 15" fill="none" xmlns="http://www.w3.org/2000/svg">
        <path d="M10.7812 3.75C9.48656 3.75 8.4375 4.79906 8.4375 6.09375C8.4375 7.38844 9.48656 8.4375 10.7812 8.4375C12.0759 8.4375 13.125 7.38844 13.125 6.09375C13.125 4.79906 12.0759 3.75 10.7812 3.75Z" fill="#444444"/>
        <path d="M10.781 8.4375C10.1923 8.4375 9.6326 8.54625 9.12354 8.74125C9.8651 9.69469 10.3123 10.8881 10.3123 12.1875C10.3123 12.5306 10.2129 12.8484 10.0517 13.125H14.0623C14.5798 13.125 14.9998 12.705 14.9998 12.1875C14.9998 10.1194 13.107 8.4375 10.781 8.4375Z" fill="#444444"/>
        <path d="M8.265 9.195C7.40438 8.16844 6.12937 7.5 4.6875 7.5C2.10281 7.5 0 9.60281 0 12.1875C0 12.4462 0.105 12.6806 0.274687 12.8503C0.444375 13.02 0.67875 13.125 0.9375 13.125H7.5H8.4375C8.955 13.125 9.375 12.705 9.375 12.1875C9.375 11.0447 8.9475 10.0097 8.265 9.195Z" fill="#444444"/>
        <path d="M4.6875 7.5C3.13687 7.5 1.875 6.23812 1.875 4.6875C1.875 3.13687 3.13687 1.875 4.6875 1.875C6.23812 1.875 7.5 3.13687 7.5 4.6875C7.5 6.23812 6.23812 7.5 4.6875 7.5Z" fill="#444444"/>
    </symbol>
    <symbol id="my-cars" viewBox="0 0 15 15" fill="none" xmlns="http://www.w3.org/2000/svg">
        <g clip-path="url(#clip0_49_1915)">
        <path d="M14.9906 5.10281C14.9906 5.06531 14.9812 5.02781 14.9625 4.98094C14.9625 4.96219 14.9438 4.94344 14.9344 4.92469C14.9156 4.89656 14.8969 4.85906 14.8781 4.83094C14.8594 4.81219 14.8313 4.80281 14.8125 4.78406C14.7937 4.76531 14.775 4.74656 14.7562 4.73719L7.725 0.984375C7.70625 0.975 7.6875 0.975 7.67812 0.965625C7.65 0.95625 7.62188 0.946875 7.58438 0.946875C7.55625 0.9375 7.52812 0.9375 7.5 0.9375C7.47188 0.9375 7.44375 0.9375 7.41562 0.946875C7.37812 0.946875 7.35 0.95625 7.32188 0.965625C7.3125 0.975 7.29375 0.975 7.275 0.984375L0.24375 4.73719C0.225 4.74656 0.215625 4.76531 0.196875 4.77469C0.16875 4.79344 0.140625 4.81219 0.121875 4.84031C0.103125 4.85906 0.084375 4.88719 0.075 4.91531C0.05625 4.93406 0.0375 4.96219 0.028125 4.99031C0.01875 5.01844 0.01875 5.05594 0.009375 5.08406C0.009375 5.11219 0 5.13094 0 5.14969V7.96406C0 8.22656 0.20625 8.43281 0.46875 8.43281H1.875V13.5938C1.875 13.8562 2.08125 14.0625 2.34375 14.0625H3.75V8.9025C3.75 8.64 3.95625 8.43375 4.21875 8.43375H10.7812C10.9125 8.43375 11.025 8.49 11.1094 8.565C11.1562 8.61187 11.1844 8.65875 11.2125 8.715C11.2406 8.77125 11.25 8.83688 11.25 8.9025V14.0625H12.6562C12.9094 14.0625 13.125 13.8562 13.125 13.5938V8.43375H14.5312C14.7937 8.43375 15 8.2275 15 7.965V5.19656C15 5.18719 15 5.18719 15 5.18719V5.14969C15 5.13094 14.9906 5.12156 14.9906 5.10281ZM14.0625 7.49531H13.125V6.08812C13.125 6.07875 13.1156 6.06938 13.1156 6.06C13.1156 6.01313 13.1062 5.96625 13.0875 5.91937C13.0875 5.90063 13.0781 5.89125 13.0687 5.8725C13.05 5.835 13.0219 5.80687 12.9937 5.76937C12.9844 5.76 12.9656 5.74125 12.9469 5.73187C12.9188 5.71312 12.9094 5.69438 12.8812 5.67562L7.725 2.86125C7.70625 2.85188 7.69687 2.85188 7.67812 2.85188C7.65 2.83312 7.62188 2.82375 7.58438 2.82375C7.55625 2.81344 7.52812 2.81344 7.5 2.81344C7.47188 2.81344 7.44375 2.81344 7.41562 2.82281C7.37812 2.82281 7.35 2.83219 7.32188 2.85094C7.30312 2.85094 7.29375 2.85094 7.275 2.86031L2.11875 5.67469C2.1 5.68406 2.09063 5.70281 2.07188 5.71219C2.04375 5.73094 2.01562 5.74969 1.99688 5.77781C1.97813 5.79656 1.95937 5.82469 1.95 5.85281C1.93125 5.88094 1.9125 5.89969 1.90312 5.92781C1.89375 5.96531 1.89375 5.99344 1.88437 6.02156C1.88437 6.04969 1.875 6.06844 1.875 6.08719V7.49437H0.9375V5.43094L7.5 1.93125L14.0625 5.43094V7.49531ZM4.6875 11.2481V12.1866H10.3125V11.2481H4.6875ZM4.6875 9.37125V10.3097H10.3125V9.37125H4.6875Z" fill="#444444"/>
        <path d="M10.3125 13.1241H4.6875V14.0625H10.3125V13.1241Z" fill="#444444"/>
        </g>
        <defs>
        <clipPath id="clip0_49_1915">
        <rect width="15" height="15" fill="white"/>
        </clipPath>
        </defs>
    </symbol>
    <symbol id="my-reports" viewBox="0 0 15 15" fill="none" xmlns="http://www.w3.org/2000/svg">
        <path d="M11.25 0H3.75C2.71594 0 1.875 0.840937 1.875 1.875V13.125C1.875 14.1591 2.71594 15 3.75 15H11.25C12.2841 15 13.125 14.1591 13.125 13.125V1.875C13.125 0.840937 12.2841 0 11.25 0ZM10.7812 12.1875H7.03125C6.7725 12.1875 6.5625 11.9775 6.5625 11.7188C6.5625 11.46 6.7725 11.25 7.03125 11.25H10.7812C11.04 11.25 11.25 11.46 11.25 11.7188C11.25 11.9775 11.04 12.1875 10.7812 12.1875ZM10.7812 9.375H7.03125C6.7725 9.375 6.5625 9.165 6.5625 8.90625C6.5625 8.6475 6.7725 8.4375 7.03125 8.4375H10.7812C11.04 8.4375 11.25 8.6475 11.25 8.90625C11.25 9.165 11.04 9.375 10.7812 9.375ZM10.7812 6.5625H7.03125C6.7725 6.5625 6.5625 6.3525 6.5625 6.09375C6.5625 5.835 6.7725 5.625 7.03125 5.625H10.7812C11.04 5.625 11.25 5.835 11.25 6.09375C11.25 6.3525 11.04 6.5625 10.7812 6.5625ZM10.7812 3.75H7.03125C6.7725 3.75 6.5625 3.54 6.5625 3.28125C6.5625 3.0225 6.7725 2.8125 7.03125 2.8125H10.7812C11.04 2.8125 11.25 3.0225 11.25 3.28125C11.25 3.54 11.04 3.75 10.7812 3.75ZM5.15625 3.75H4.21875C3.96 3.75 3.75 3.54 3.75 3.28125C3.75 3.0225 3.96 2.8125 4.21875 2.8125H5.15625C5.415 2.8125 5.625 3.0225 5.625 3.28125C5.625 3.54 5.415 3.75 5.15625 3.75ZM5.15625 6.5625H4.21875C3.96 6.5625 3.75 6.3525 3.75 6.09375C3.75 5.835 3.96 5.625 4.21875 5.625H5.15625C5.415 5.625 5.625 5.835 5.625 6.09375C5.625 6.3525 5.415 6.5625 5.15625 6.5625ZM5.15625 9.375H4.21875C3.96 9.375 3.75 9.165 3.75 8.90625C3.75 8.6475 3.96 8.4375 4.21875 8.4375H5.15625C5.415 8.4375 5.625 8.6475 5.625 8.90625C5.625 9.165 5.415 9.375 5.15625 9.375ZM5.15625 12.1875H4.21875C3.96 12.1875 3.75 11.9775 3.75 11.7188C3.75 11.46 3.96 11.25 4.21875 11.25H5.15625C5.415 11.25 5.625 11.46 5.625 11.7188C5.625 11.9775 5.415 12.1875 5.15625 12.1875Z" fill="#444444"/>
    </symbol>
    <symbol id="sign-out" viewBox="0 0 15 15" fill="none" xmlns="http://www.w3.org/2000/svg">
        <g clip-path="url(#clip0_49_1880)">
        <path d="M2.40055 8.20312H10.5467C10.935 8.20312 11.2498 7.88831 11.2498 7.5C11.2498 7.11169 10.935 6.79688 10.5467 6.79688H2.40055L3.30964 5.8878C3.58423 5.6132 3.58423 5.16804 3.30964 4.89344C3.03509 4.61885 2.58988 4.61885 2.31528 4.89344L0.206015 7.00276C0.189562 7.01921 0.173999 7.03646 0.15928 7.05446C0.152859 7.06229 0.14728 7.07058 0.141234 7.0786C0.133499 7.08891 0.125531 7.09899 0.118359 7.10972C0.111796 7.11952 0.106124 7.12969 0.100124 7.13972C0.0943589 7.14938 0.088312 7.1588 0.0830152 7.16874C0.077484 7.17905 0.0728434 7.18965 0.0678746 7.20015C0.0629997 7.21041 0.0578903 7.22054 0.053531 7.23104C0.0493122 7.2413 0.0458435 7.25175 0.0421404 7.26216C0.0380623 7.27341 0.0337498 7.28452 0.0302811 7.296C0.0271405 7.30641 0.0248436 7.31696 0.0222186 7.3275C0.0192655 7.33918 0.0159843 7.3508 0.0136406 7.36271C0.0112499 7.37485 0.00979682 7.38713 0.00806246 7.39936C0.00656246 7.40982 0.00454685 7.42013 0.00351561 7.43072C0.00126562 7.45341 9.37495e-05 7.47624 4.68748e-05 7.49902C4.68748e-05 7.49935 0 7.49972 0 7.50005C0 7.50038 4.68748e-05 7.50075 4.68748e-05 7.50108C9.37495e-05 7.52391 0.00126562 7.54669 0.00351561 7.56942C0.00454685 7.57988 0.00651559 7.59005 0.00796871 7.60041C0.00974995 7.61278 0.0112031 7.62516 0.0136406 7.63744C0.0159843 7.64925 0.0192186 7.66069 0.0221718 7.67227C0.0248436 7.68291 0.0271874 7.69364 0.0303748 7.70419C0.0337967 7.71549 0.0380623 7.72641 0.0419998 7.73747C0.0457966 7.74806 0.0492654 7.7587 0.0535778 7.76911C0.0578434 7.77942 0.062859 7.78931 0.0676403 7.79939C0.0727027 7.81013 0.077484 7.82095 0.0831089 7.8315C0.0882652 7.84111 0.0941245 7.85025 0.0997026 7.85958C0.105843 7.86994 0.111703 7.88039 0.118453 7.89047C0.125296 7.90073 0.132937 7.91034 0.140296 7.92023C0.146671 7.92872 0.152577 7.93748 0.159374 7.94573C0.17339 7.9628 0.188249 7.97916 0.203765 7.99486C0.204515 7.99561 0.205124 7.99645 0.205874 7.9972L2.31524 10.1066C2.45258 10.2439 2.63249 10.3126 2.81244 10.3126C2.99234 10.3125 3.17234 10.2439 3.30959 10.1067C3.58418 9.83206 3.58418 9.3869 3.30964 9.1123L2.40055 8.20312Z" fill="#444444"/>
        <path d="M14.2968 1.17187H5.39062C5.00231 1.17187 4.6875 1.48668 4.6875 1.87499V4.68747C4.6875 5.07578 5.00231 5.39059 5.39062 5.39059C5.77893 5.39059 6.09374 5.07578 6.09374 4.68747V2.57811H13.5937V12.4218H6.09374V10.3124C6.09374 9.92412 5.77893 9.60931 5.39062 9.60931C5.00231 9.60931 4.6875 9.92412 4.6875 10.3124V13.125C4.6875 13.5133 5.00231 13.8281 5.39062 13.8281H14.2968C14.6851 13.8281 14.9999 13.5133 14.9999 13.125V1.87499C14.9999 1.48668 14.6851 1.17187 14.2968 1.17187Z" fill="#444444"/>
        </g>
        <defs>
        <clipPath id="clip0_49_1880">
        <rect width="15" height="15" fill="white"/>
        </clipPath>
        </defs>
    </symbol>
</svg>