<svg width="15" height="15" viewBox="0 0 15 15" fill="none" xmlns="http://www.w3.org/2000/svg">
<path d="M0 3C0 2.175 0.675 1.5 1.5 1.5H13.5C13.8978 1.5 14.2794 1.65804 14.5607 1.93934C14.842 2.22064 15 2.60218 15 3V12C15 12.3978 14.842 12.7794 14.5607 13.0607C14.2794 13.342 13.8978 13.5 13.5 13.5H1.5C1.10218 13.5 0.720644 13.342 0.43934 13.0607C0.158035 12.7794 0 12.3978 0 12V3ZM8.25 9.75L6 7.5L1.5 12H13.5L9.75 8.25L8.25 9.75ZM11.25 6.75C11.6478 6.75 12.0294 6.59196 12.3107 6.31066C12.592 6.02936 12.75 5.64782 12.75 5.25C12.75 4.85218 12.592 4.47064 12.3107 4.18934C12.0294 3.90804 11.6478 3.75 11.25 3.75C10.8522 3.75 10.4706 3.90804 10.1893 4.18934C9.90804 4.47064 9.75 4.85218 9.75 5.25C9.75 5.64782 9.90804 6.02936 10.1893 6.31066C10.4706 6.59196 10.8522 6.75 11.25 6.75Z" fill="#272727"/>
</svg>
