<svg width="15" height="15" viewBox="0 0 15 15" fill="none" xmlns="http://www.w3.org/2000/svg">
    <path d="M10.7812 3.75C9.48656 3.75 8.4375 4.79906 8.4375 6.09375C8.4375 7.38844 9.48656 8.4375 10.7812 8.4375C12.0759 8.4375 13.125 7.38844 13.125 6.09375C13.125 4.79906 12.0759 3.75 10.7812 3.75Z" fill="white"/>
    <path d="M10.781 8.4375C10.1923 8.4375 9.6326 8.54625 9.12354 8.74125C9.8651 9.69469 10.3123 10.8881 10.3123 12.1875C10.3123 12.5306 10.2129 12.8484 10.0517 13.125H14.0623C14.5798 13.125 14.9998 12.705 14.9998 12.1875C14.9998 10.1194 13.107 8.4375 10.781 8.4375Z" fill="white"/>
    <path d="M8.265 9.195C7.40438 8.16844 6.12937 7.5 4.6875 7.5C2.10281 7.5 0 9.60281 0 12.1875C0 12.4462 0.105 12.6806 0.274687 12.8503C0.444375 13.02 0.67875 13.125 0.9375 13.125H7.5H8.4375C8.955 13.125 9.375 12.705 9.375 12.1875C9.375 11.0447 8.9475 10.0097 8.265 9.195Z" fill="white"/>
    <path d="M4.6875 7.5C3.13687 7.5 1.875 6.23812 1.875 4.6875C1.875 3.13687 3.13687 1.875 4.6875 1.875C6.23812 1.875 7.5 3.13687 7.5 4.6875C7.5 6.23812 6.23812 7.5 4.6875 7.5Z" fill="white"/>
</svg>